<svg xmlns="http://www.w3.org/2000/svg" viewBox="0 0 411.6 411.6">
  <defs>
    <style>
      .a {
        fill: #0033a1;
      }

      .b, .f {
        fill: none;
        stroke: #fff;
      }

      .b {
        stroke-miterlimit: 10;
        stroke-width: 1.25px;
      }

      .c {
        fill: #e07c00;
      }

      .d {
        fill: #fff;
      }

      .e {
        fill: #5d6dc0;
      }

      .f {
        stroke-width: 0.57px;
      }
    </style>
  </defs>
  <path class="a" d="M919.55,540.34c0,113.34-91.85,205.18-205.17,205.18S509.19,653.68,509.19,540.34s91.86-205.18,205.19-205.18S919.55,427,919.55,540.34" transform="translate(-508.57 -334.54)"/>
  <path class="b" d="M919.55,540.34c0,113.34-91.85,205.18-205.17,205.18S509.19,653.68,509.19,540.34s91.86-205.18,205.19-205.18S919.55,427,919.55,540.34Z" transform="translate(-508.57 -334.54)"/>
  <path class="c" d="M798.19,445.43a15.92,15.92,0,0,0-8.57-12.3c-.28-1.33-.68-3.1-1.27-5.52-4-16.28-23.06-19.66-23.06-19.66s10.16,8.94,8.92,25.81c-.86,12.22-13.66,14.4-13.66,14.4L753.64,450l2.47-2.74,7.3-2.27s10.49-4.19,6.5-17.41C765.4,412.72,737,415,737,415s8.93-3.7,17.68-2a24.83,24.83,0,0,1,10.91,5.36l3,2.76a2.11,2.11,0,0,0,.93-2.76c-1.23-4-5.89-8.56-12.6-11.67-7.28-3.39-18.82-3.17-25.8-1.85-10.21,1.95-23.33,8.3-23.33,8.3s-22.13-8-23.66-17.2,8.31-16,8.31-16l.89-.94s-.31-1.2-6.45-1.2-12.6,5.21-15.68,8.89-5.19,14.44.92,23.36c5.83,8.39,21.21,10.43,21.21,10.43l-.31,1.85a11.87,11.87,0,0,1-5.82,1.85c-3.07,0-8.31-1.25-13.82-3.4s-13-7.25-13.78-14.45c-1.08-9.58,5.17-10.42,6.09-11.65s-.62-2.47-.62-2.47-11-1.88-16.61,10.45c-4.82,10.74-3.43,16.85,2.49,23,8,8.41,19.33,8.29,19.33,8.29s-5.21,2.47-8.9,2.77-15.93.79-21.79-12c-7.52-16.32,7.35-26.41,7.35-26.41s-2.16-1.24-7.35,0-12.95,6.4-15.39,14.13a27,27,0,0,0-.3,16s3.68-4-1.55,2.12-7.36,17.51-7,20.29,3.39,19,24.89,17.19,43-16.89,43-16.89-1.21,3.7,1.55,9.84,10.12,5.83,16,3.67,14.46-15.65,17.19-18.72a8.19,8.19,0,0,1,8.61-2.18c2.15.65,2.15,6.15,2.15,6.15l6,2c.2-.61,1.1-4,.26-6.54a24,24,0,0,0-2.61-5.31s3.15.65,4.31,5.22a19.2,19.2,0,0,1-.1,7.25l4.14,1.37s4.58-2.28,6.73-2-1.78,2.22-1.78,2.22l-1.49.93,10.33,3.44s2.75,0,6.14.3,9.54,5.21,9.54,5.21,11.33,3.71,18.11.33,11.06-9.2,9.84-19.06m-82.94-4.89c-4.33,1.52-12.61,9.49-12.61,9.49a20.13,20.13,0,0,1-10.46,5.54c-6.13.93-5.59-5.38-5.59-5.38l3.64-2.76a103.69,103.69,0,0,1,17.64-7.55c10.11-3.35,20.26-.88,20.26-.88s-8.58,0-12.88,1.54m32.54,4.59s-.26-12.61-26.12-13.52c-10.16-.34-20.31,4.92-30.17,10.26-10.67,5.75-27.74,10.89-37.8,12-9.47,1-20.5,1.46-27-6.85s-1.23-14.74-1.23-14.74.43,15.24,20.72,17.3c14.4,1.5,31.42-4.36,38.87-7.67,7.7-3.43,20.52-10.65,26.27-13.66,0,0,11.08-.74,18.77.21,21.7,2.59,17.65,16.71,17.65,16.71m-5.45-21.63c-10.67-1.27-24.39.83-24.39.83l9.44-4.68s10.75-.62,18.58.42c17.36,2.35,15.63,13.08,15,17.07s-1.85,3.4-1.85,3.4,3.43-14.65-16.81-17m44.25,27.71c-3.37,3.08-12.69,3.15-12.69,3.15s6.86-1.47,10.07-5a16.79,16.79,0,0,0,4.41-9.91s1.3-6.53,1.48-.11c.12,3.67.12,8.82-3.27,11.89" transform="translate(-508.57 -334.54)"/>
  <path class="d" d="M692.44,394.75a150,150,0,0,1,24.57-2,146.41,146.41,0,1,1-102.2,41.54l-2.59-9.73A155.33,155.33,0,1,0,717,383.85a160.5,160.5,0,0,0-22.5,1.61Z" transform="translate(-508.57 -334.54)"/>
  <path class="d" d="M623.4,569.58H604.12l7.8-40.58a119.68,119.68,0,0,0,2-13.74c.53,5.56,1.18,10.06,1.84,13.74Zm22.08,15.33-21-90.27H603.73L581.9,584.91Z" transform="translate(-508.57 -334.54)"/>
  <polygon class="d" points="168.73 250.38 168.73 212.42 150.5 212.42 150.5 250.38 131.86 250.38 131.86 160.1 150.5 160.1 150.5 196.61 168.73 196.61 168.73 160.1 187.25 160.1 187.25 250.38 168.73 250.38"/>
  <polygon class="d" points="266.93 250.38 249.9 206.1 249.9 250.38 231.54 250.38 231.54 160.1 249.9 160.1 249.9 200.28 265.5 160.1 286.11 160.1 266.81 202.4 287.41 250.38 266.93 250.38"/>
  <path class="d" d="M831.69,539.85c0,20.76-4.35,31.33-12.44,31.33-7.93,0-12.26-10.57-12.26-31.33s4.33-31.33,12.26-31.33,12.44,10.57,12.44,31.33m19.32,0c0-29.87-12.47-46.65-31.6-46.65s-31.71,16.91-31.71,46.65,12.53,46.66,31.71,46.66S851,569.7,851,539.85" transform="translate(-508.57 -334.54)"/>
  <polygon class="d" points="167.46 305.66 169.59 299.75 181.18 304.02 171.37 330.81 163.9 328.09 171.53 307.16 167.46 305.66"/>
  <path class="d" d="M704.78,646.36a4.71,4.71,0,1,1-1.12,9.33,4.7,4.7,0,1,1,1.12-9.33m-1.54,23.79,7.48-7.13c3-2.93,5.7-6.6,6.21-10.7a10.08,10.08,0,0,0-3.14-8.3c-2.11-2.07-5.41-3.14-8.34-3.49-6.92-.85-13.49,2.17-14.35,9.13-.61,5.23,2.57,10.48,8.53,11.18a11.38,11.38,0,0,0,4.39-.34l.07.09-9.8,8.47Z" transform="translate(-508.57 -334.54)"/>
  <polygon class="d" points="210.74 314.64 209.86 308.41 234.72 304.88 221.34 335.6 212.75 336.84 223.38 312.82 210.74 314.64"/>
  <path class="d" d="M759.48,657.76a4.7,4.7,0,1,1-3.56-8.67,4.71,4.71,0,0,1,6.29,2.44,4.77,4.77,0,0,1-2.73,6.23m-10.24-21.58-3,9.92c-1.23,4-1.82,8.57-.22,12.38a10.28,10.28,0,0,0,6.74,5.71,15.27,15.27,0,0,0,9-1c6.46-2.64,10.73-8.48,8-15a9.7,9.7,0,0,0-12.85-5.57,10.56,10.56,0,0,0-3.63,2.42l-.08,0,4.36-12.2Z" transform="translate(-508.57 -334.54)"/>
  <polygon class="d" points="61.31 78.24 84.11 96.18 70.09 113.96 67.53 111.98 79.11 97.33 71.91 91.66 61.75 104.56 59.21 102.6 69.39 89.68 61.36 83.38 49.8 98.03 47.3 96.05 61.31 78.24"/>
  <polygon class="d" points="40.31 107.13 42.23 103.42 62.17 127.73 60.04 131.73 28.7 129.04 30.66 125.29 56.92 127.54 40.31 107.13"/>
  <polygon class="d" points="25.39 137.88 53.05 146.54 46.26 168.14 43.21 167.19 48.8 149.39 40.06 146.63 35.15 162.34 32.09 161.35 37 145.68 27.25 142.64 21.66 160.46 18.6 159.49 25.39 137.88"/>
  <polygon class="d" points="45.4 170.96 44.82 175.85 29.86 183.21 42.52 194.04 41.89 198.93 25.77 184.72 14.66 183.31 15.15 179.33 26.3 180.72 45.4 170.96"/>
  <path class="d" d="M546,557.67c-1.8,2.09-4.72,3.29-8.74,3.48s-7.08-.6-9.08-2.48a11.84,11.84,0,0,1-.83-15.34q2.7-3.15,8.74-3.46c4-.22,7.06.62,9.07,2.49a11.66,11.66,0,0,1,.84,15.31m1.13-18.4c-2.79-2.54-6.54-3.65-11.27-3.39s-8.34,1.8-10.81,4.63-3.56,6.42-3.31,10.82a14.54,14.54,0,0,0,4.52,10.38c2.76,2.57,6.51,3.7,11.22,3.45s8.3-1.83,10.79-4.66a16.32,16.32,0,0,0-1.14-21.23M535.6,557.7l3.19-.19L538,543.25l-3.18.15Z" transform="translate(-508.57 -334.54)"/>
  <polygon class="d" points="16.3 241.18 44.44 234.27 49.84 256.28 46.73 257.03 42.28 238.92 33.39 241.1 37.3 257.03 34.22 257.79 30.31 241.84 20.37 244.28 24.81 262.41 21.67 263.15 16.3 241.18"/>
  <path class="d" d="M563.15,610.53a7.13,7.13,0,0,1,.73,4.51c-.23,1.32-1.27,2.35-3.06,3.16s-3.22.86-4.36.19a7.36,7.36,0,0,1-2.87-3.58L549.67,606l9.6-4.28Zm-27.45,1.75,11-4.94,4,8.84a12.69,12.69,0,0,0,4.63,5.88c1.86,1.16,4.21,1.08,7.1-.2s4.61-3,5-5.21a12.9,12.9,0,0,0-1.31-7.34l-5.58-12.5-26.45,11.83Z" transform="translate(-508.57 -334.54)"/>
  <polygon class="d" points="40.12 303.73 64.89 288.71 66.99 292.14 42.19 307.16 40.12 303.73"/>
  <path class="d" d="M569.83,648.9l13.2-3.6-6.55,12Zm.57,19.56,2.63,3.33,15-27.62-2.8-3.56L555,649.1l2.61,3.22,9-2.46,8.25,10.37Z" transform="translate(-508.57 -334.54)"/>
  <path class="d" d="M598.23,682.47a5.48,5.48,0,0,1-2.09-3.67,4.64,4.64,0,0,1,1-3.79,4.75,4.75,0,0,1,3.54-1.74,5.6,5.6,0,0,1,4,1.33,5.82,5.82,0,0,1,2.09,3.71,4.67,4.67,0,0,1-1,3.77,4.74,4.74,0,0,1-3.54,1.72,5.61,5.61,0,0,1-4-1.33" transform="translate(-508.57 -334.54)"/>
  <path class="d" d="M639.12,689.56l-1.44,24.1L620.57,705ZM641,718.89l1.86-31.5-4.24-2.16-24.35,20.15Z" transform="translate(-508.57 -334.54)"/>
  <polygon class="d" points="140.84 387.4 148.84 359.56 152.66 360.64 149.31 372.37 165.46 377 168.79 365.28 172.66 366.39 164.67 394.21 160.82 393.13 164.56 380.06 148.43 375.46 144.66 388.49 140.84 387.4"/>
  <polygon class="d" points="176.2 396.56 178.32 367.68 184.37 368.15 191.76 393.41 202.75 369.48 208.84 369.95 206.69 398.82 202.68 398.54 204.49 374.05 193.31 397.85 189.57 397.57 182.01 372.44 180.18 396.86 176.2 396.56"/>
  <path class="d" d="M744.19,707c2.22,1.65,3.62,4.48,4.17,8.47s-.1,7.08-1.84,9.19a11.7,11.7,0,0,1-15.22,2c-2.22-1.59-3.6-4.4-4.1-8.41s.08-7.09,1.8-9.23a11.65,11.65,0,0,1,15.19-2m-18.42.27c-2.33,3-3.17,6.77-2.54,11.47s2.42,8.2,5.41,10.43a14.75,14.75,0,0,0,11,2.5c4.37-.57,7.74-2.33,10.06-5.27s3.21-6.79,2.59-11.46-2.44-8.15-5.48-10.43a14.49,14.49,0,0,0-11-2.53c-4.39.58-7.74,2.31-10,5.29" transform="translate(-508.57 -334.54)"/>
  <polygon class="d" points="254.83 392.25 245.93 364.7 249.71 363.45 254.19 377.24 264.67 358.6 269.3 357.12 260.8 372.32 278.43 384.6 273.72 386.2 258.75 375.64 255.47 381.28 258.67 391.03 254.83 392.25"/>
  <path class="d" d="M794.86,686.3a7.71,7.71,0,0,1,4.46-1c1.34.16,2.44,1.09,3.36,2.81s1.07,3.16.5,4.36a7.46,7.46,0,0,1-3.39,3.13l-8.43,4.5-5-9.24Zm3.66,27.26-5.69-10.63,8.54-4.58a12.5,12.5,0,0,0,5.56-5c1-1.92.79-4.31-.74-7.09s-3.35-4.35-5.5-4.6a12.78,12.78,0,0,0-7.23,1.82l-12.11,6.43L795,715.48Z" transform="translate(-508.57 -334.54)"/>
  <path class="d" d="M822.59,685.13,819,672l12,6.54Zm19.57-.51L845.5,682l-27.6-15.12-3.59,2.8L822.74,700l3.25-2.6-2.42-9.05L834,680.13Z" transform="translate(-508.57 -334.54)"/>
  <polygon class="d" points="319.05 324.34 335.85 305.64 338.23 307.76 331.17 315.65 350.34 332.85 347.68 335.82 328.49 318.6 321.41 326.45 319.05 324.34"/>
  <polygon class="d" points="361.72 318.6 338.08 301.83 340.4 298.58 364.04 315.33 361.72 318.6"/>
  <path class="d" d="M871.63,629.51l-8.54-10.65,13.57,1.21Zm17.75-8.31,2-3.75L860,614.64l-2.12,4L877.72,643l1.92-3.71L873.81,632,880,620.37Z" transform="translate(-508.57 -334.54)"/>
  <path class="d" d="M891.1,590a5.59,5.59,0,0,1-2.49,3.4,4.74,4.74,0,0,1-3.89.64,4.92,4.92,0,0,1-3-2.56,5.73,5.73,0,0,1-.38-4.22,5.83,5.83,0,0,1,2.55-3.38,4.61,4.61,0,0,1,3.87-.6,4.71,4.71,0,0,1,3,2.55,5.56,5.56,0,0,1,.37,4.17" transform="translate(-508.57 -334.54)"/>
  <path class="d" d="M751.74,353.65l5.33,23.52-18.81-3.51Zm10,27.67-7-30.8-4.73-.89L732.3,375.78Z" transform="translate(-508.57 -334.54)"/>
  <polygon class="d" points="258.35 49.07 267.61 21.6 271.38 22.89 262.11 50.35 258.35 49.07"/>
  <polygon class="d" points="270.23 53.06 283.04 27.07 286.61 28.83 280.23 41.85 300.73 35.79 305.1 37.94 288.42 42.96 292.48 64.03 288.03 61.88 284.61 43.88 278.36 45.66 273.83 54.85 270.23 53.06"/>
  <path class="d" d="M817.64,396l11.85-6.8-3.29,13.25Zm5.48,18.79,3.39,2.55,7.58-30.54-3.63-2.71-27.13,15.85,3.37,2.47,8.11-4.65,10.56,8Z" transform="translate(-508.57 -334.54)"/>
  <polygon class="d" points="321.22 86.77 341.56 66.15 344.43 68.97 324.06 89.59 321.22 86.77"/>
  <path class="d" d="M869.81,432.23q-.45,4.14-5.27,7.78c-3.22,2.46-6.2,3.45-8.89,3a11.79,11.79,0,0,1-9.29-12.21c.32-2.76,2.09-5.34,5.28-7.77s6.19-3.47,8.94-3.05a10.89,10.89,0,0,1,6.9,4.38,10.74,10.74,0,0,1,2.33,7.86m-9.36-15.89c-3.72-.53-7.45.63-11.23,3.52s-5.89,6.16-6.36,9.87.65,7.33,3.33,10.84,5.82,5.54,9.56,6.06,7.45-.57,11.22-3.42,5.85-6.17,6.32-9.92a16.28,16.28,0,0,0-12.84-17" transform="translate(-508.57 -334.54)"/>
  <polygon class="d" points="351.58 119.2 367.4 125.84 372.11 110.03 375 108.57 384.69 127.86 381.84 129.29 374.4 114.52 369.68 130.32 353.73 123.66 361.91 139.93 359.07 141.36 348.65 120.76 351.58 119.2"/>
  <polygon class="d" points="387.99 135.48 389.44 140.17 378.72 152.96 394.69 157.73 396.08 162.46 375.6 155.97 364.85 159.19 363.69 155.37 374.45 152.14 387.99 135.48"/>
  <polygon class="d" points="369.15 175.63 398.01 172.82 398.46 177.62 376.44 196.27 400.08 193.94 400.45 197.93 371.6 200.76 371.07 195.93 392.7 177.36 369.57 179.61 369.15 175.63"/>
  <polygon class="d" points="371.58 208.59 400.4 211.52 400 215.47 387.89 214.28 386.23 230.99 398.32 232.21 397.91 236.19 369.08 233.25 369.49 229.31 382.99 230.66 384.71 213.94 371.19 212.58 371.58 208.59"/>
  <polygon class="e" points="213.47 114.32 211.79 119.59 215.62 121.24 214.9 140.89 211.3 141.15 209.38 145.43 213.71 147.61 179.44 255.87 199.1 262.57 236.47 156.72 241.72 156.94 243.41 152.87 242.21 149.52 252.74 134.21 255.84 134.45 257.76 130.11 213.47 114.32"/>
  <polygon class="f" points="213.47 114.32 211.79 119.59 215.62 121.24 214.9 140.89 211.3 141.15 209.38 145.43 213.71 147.61 179.44 255.87 199.1 262.57 236.47 156.72 241.72 156.94 243.41 152.87 242.21 149.52 252.74 134.21 255.84 134.45 257.76 130.11 213.47 114.32"/>
</svg>