<?xml version="1.0" encoding="UTF-8"?>
<!-- Generator: Adobe Illustrator 23.0.2, SVG Export Plug-In . SVG Version: 6.00 Build 0)  -->
<svg version="1.1" id="Layer_1" xmlns="http://www.w3.org/2000/svg" xmlns:xlink="http://www.w3.org/1999/xlink" x="0px" y="0px" viewBox="0 0 280 150" style="enable-background:new 0 0 280 150;" xml:space="preserve">
<style type="text/css">
	.st0{fill:#F9A51A;}
	.st1{fill-rule:evenodd;clip-rule:evenodd;fill:#034693;}
	.st2{fill:#034693;}
</style>
<g>
	<g>
		<g>
			<polygon class="st0" points="88.5,123.2 84.2,122.9 81.5,124.7 81.4,122.7 76.8,122.4 81.2,121.4 81.2,119.3 84,120.8      88.4,119.9 85.7,121.7    "/>
			<polygon class="st0" points="77.6,116.8 73,116.4 70.2,118.4 70.1,116.3 65.4,115.9 70,115.1 70,112.9 72.8,114.5 77.6,113.5      74.7,115.3    "/>
			<polygon class="st0" points="59.7,114.1 55,113.8 52.1,115.7 51.9,113.6 47,113.3 51.7,112.4 51.6,110.3 54.6,111.8 59.5,110.8      56.6,112.7    "/>
			<polygon class="st0" points="38.7,115.9 33.8,115.6 31,117.4 30.7,115.4 25.5,115.1 30.4,114.1 30,112 33.3,113.5 38.3,112.5      35.4,114.4    "/>
			<polygon class="st0" points="22.1,121.6 17.1,121.3 14.4,123.1 13.9,121.1 8.7,120.7 13.5,119.8 13,117.8 16.4,119.2 21.3,118.3      18.6,120.2    "/>
			<polygon class="st0" points="14.5,129.8 9.5,129.4 7.1,131.3 6.4,129.2 1.2,128.9 5.9,128 5.2,125.9 8.7,127.4 13.4,126.4      10.9,128.3    "/>
			<polygon class="st0" points="18.7,138.2 13.8,137.9 11.6,139.7 10.8,137.7 5.8,137.4 10.2,136.4 9.4,134.4 12.9,135.8      17.5,134.9 15.1,136.7    "/>
			<polygon class="st0" points="32.5,144.7 27.9,144.4 25.8,146.3 24.9,144.2 20.1,143.9 24.3,143 23.5,140.9 26.9,142.4      31.2,141.4 29.1,143.3    "/>
			<polygon class="st0" points="50.8,147.5 46.4,147.2 44.3,149.1 43.6,147 38.9,146.7 43,145.8 42.2,143.6 45.5,145.2 49.7,144.2      47.6,146    "/>
			<polygon class="st0" points="69,145.7 64.7,145.3 62.6,147.2 62,145.2 57.5,144.8 61.6,144 61,141.9 64,143.3 68.2,142.4      66,144.2    "/>
			<polygon class="st0" points="83.1,139.9 79,139.6 76.6,141.4 76.2,139.4 71.8,139.1 75.9,138.1 75.6,136.1 78.4,137.5      82.6,136.6 80.2,138.5    "/>
			<polygon class="st0" points="90.5,131.6 86.2,131.3 83.8,133.1 83.5,131.1 79.1,130.7 83.4,129.8 83.2,127.8 85.9,129.2      90.3,128.3 87.7,130.1    "/>
		</g>
		<g>
			<g>
				<g>
					<path class="st1" d="M12.2,46.6c0.3,1.5,2.7,4.8,5.3,6.6C16.7,50.1,14.9,49,12.2,46.6z"/>
					<path class="st1" d="M13.5,50.6c0.3,1.5,2.7,4.8,5.3,6.6C18,54.1,16.2,53,13.5,50.6z"/>
					<path class="st1" d="M14.9,54.5c0.3,1.5,2.7,4.8,5.3,6.6C19.4,58,17.6,56.9,14.9,54.5z"/>
					<path class="st1" d="M11,42.7c0.3,1.5,2.7,4.8,5.3,6.6C15.5,46.1,13.7,45.1,11,42.7z"/>
					<path class="st1" d="M9.2,39c0.5,1.5,3.1,4.6,5.9,6.2C14,42.1,12.1,41.1,9.2,39z"/>
					<path class="st1" d="M12.6,40.8c-0.8-2.6-2.5-3.4-4.9-5.2C8.2,36.9,10.4,39.5,12.6,40.8z"/>
					<path class="st1" d="M11,36.8c-0.8-2.6-2.5-3.4-4.9-5.2C6.5,32.8,8.7,35.4,11,36.8z"/>
					<path class="st1" d="M21.6,65.1c-1-3.1-2.9-4-5.9-6.2C16.4,60.5,19,63.6,21.6,65.1z"/>
					<path class="st1" d="M24.1,54.1c-1.4,2.8-1.8,6.9-1.4,8.4C23.9,59,24.9,57.2,24.1,54.1z"/>
					<path class="st1" d="M21.5,58.5c1-3.5,2-5.3,0.9-8.4C21.3,52.9,21,57,21.5,58.5z"/>
					<path class="st1" d="M20.4,54.2c1-3.5,2-5.3,0.9-8.4C20,48.6,19.9,52.7,20.4,54.2z"/>
					<path class="st1" d="M19.3,42.3c-0.9,3-0.7,7,0,8.5C19.9,47.1,20.6,45.2,19.3,42.3z"/>
					<path class="st1" d="M17.1,38.5c-0.5,2.7,0,6.3,0.8,7.5C18,42.7,18.5,41,17.1,38.5z"/>
					<path class="st1" d="M16.1,42.1c-0.2-3.2,0.1-5-1.6-7.3C14.3,37.6,15.3,41,16.1,42.1z"/>
					<path class="st1" d="M14.2,37.9c-0.6-2.8-0.6-4.4-2.5-6.2C11.9,34.2,13.2,37.1,14.2,37.9z"/>
					<path class="st1" d="M11.1,34.1c-1.2-2.2-1.7-3.6-3.6-4.6C8.3,31.5,10.2,33.6,11.1,34.1z"/>
					<path class="st1" d="M15.2,98.4c4.7-3.2-12.2-14.2-2.5-18.8c7.2-3.4-1-12,6.3-14.5c-9.9,2.4,0.9,10-7.8,14.2       c-9.7,4.7,7.3,15.5,2.6,18.7C8,102,11,108.6,24.9,108.2C15.6,107.7,9.9,102.1,15.2,98.4z"/>
					<path class="st1" d="M32.6,73.2L32.6,73.2L32.6,73.2z"/>
				</g>
			</g>
			<path class="st2" d="M58.2,45.7c-0.2,0,4.8,1,10-0.6c0,0.1,1.4-0.2,2.4,0c0.9,0.3,1.1-0.3,1.2-0.7c0.1,0,4.4-1.5,6.7-3.5     c2.3-2,5.5-5.9,5.9-6.3c0.4-0.3,2.3-1.8,2.3-1.8s-0.8,0.3-2.2,1.4c-1.4,1.2-5.6,5.7-7.5,7s-4.9,2.7-5.3,2.9     c-0.1,0-0.3,0.1-0.3,0.1s0,1-1.4,0.5c0,0-2.2,0-2.6,0.1C67.2,44.9,65.2,45.9,58.2,45.7z"/>
			<path class="st2" d="M44.3,77.1c0,0-0.6,10.9-0.3,13.2c0.3,2.4,0.8,9.7,2.6,12.3c0.2,0.3-3.2-6.7-2-25.4L44.3,77.1z"/>
			<path class="st2" d="M52.2,83.4c0,0,0.6,7.8-2.2,18.7C50,102,54.1,91.4,52.2,83.4z"/>
			<g>
				<path class="st2" d="M53.2,39.8c0.4-0.6,0.8-1.4,0.9-2c0.3-0.9,0.7-2.9,0.7-2.9c0.5-2.3,2.1-5.8,4.8-8.5s13.1-9.9,13.1-9.9      c2.7-2,13.6-12,13.6-12c0.3,0.1,0.1,1.4-0.6,2.1s-0.1,0.6,0,0.6c1.3-0.3-2.4,4.1-2.4,4.1c1.8,0.8-2.4,3.8-3.1,4.3      c-0.7,0.5-0.1,0.4,0,0.4c2.4-1.2-0.5,3.1-0.5,3.1C79,20,73,25.7,72.4,26c-0.6,0.4,0.3,0.4,0.3,0.4s0.9-0.8,1-0.8      c2.7,1-2.3,5.8-3.1,6.5c-0.8,0.8,0.4,0.1,0.3,0.1c1.7,0.5-2.1,4.7-2.1,4.7c4.7-3.5,3.3-5.4,3.3-5.4c4.7-3.9,2.5-6.2,2.5-6.2      S74.4,25,78,21.9c4.6-3.9,4.1-6.4,4.1-6.4c3.1-3,2.3-4.7,2.3-4.8c2.5-1.7,2-3.9,2-3.9c1.2-1.8,0-3.1,0-3.1S84,5.9,84,6      c-6.8,6.7-15.9,12.9-18.6,14.7c-2.7,1.7-6.4,4.8-6.4,4.8c-5.3,4.2-5.6,10.8-5.7,10.8c-0.2,2-1.3,3.7-1.9,4.2h1.3"/>
				<path class="st2" d="M37,64.8C37.1,64.8,37.1,64.8,37,64.8L37,64.8z"/>
				<path class="st2" d="M37.1,64.9L37.1,64.9L37.1,64.9z"/>
			</g>
			<path class="st2" d="M49,39.8c0,0,2.1,1.3,4.3,0.6c2.2-0.7,6.5-2.6,17.3-0.4c-0.1,0.1,3.4-3.8,11.2-7.5c0.1-0.1,1.7-3.8,3.2-3.9     c0,0,0.8-0.9,2.3-0.3c0.1-0.1,0.7,0.2,1.5,0.4s1.2,0.4,1.4,0.4c0.3,0.1,0.5,0.3,0.8,0.8c0.3,0.4,0.6,1.5,0.3,1.5     c-0.3-0.1-0.7-0.1-0.9-0.3c-0.3-0.3-0.7-0.6-0.7-0.6s-0.3-0.3,0.2-0.2c0.4,0.1,0.8,0.3,0.8,0.3l0.3,0.3c0,0,0.2,0.2,0.2,0     c0-0.2-0.3-0.9-0.5-1.2c-0.3-0.3-0.5-0.4-1.1-0.5c-0.6-0.2-1.4-0.3-2-0.5c-0.5-0.2-1-0.8-2.3,0.3c0,0-0.8-0.3-1.3,0.5     c-0.5,0.8-1.2,1.7-1.4,2c-0.2,0.3-0.8,1.3-0.8,1.3s-6.9,3-11.2,7.5c0,0.1-11.5-2.9-18.5,0.8c0,0.1,0.8-0.6,0.8-0.6     S49.8,41.3,49,39.8z"/>
			<path class="st2" d="M91.5,31c-0.1,0-0.2,0-0.3,0c0.1,0.1,0.1,0.2,0.1,0.2c0-0.1-0.1-0.1-0.2-0.2c-0.1,0-0.1,0-0.1,0l-0.2-0.2     c-0.6-0.3-0.9-0.5-1-0.5s-1,0.1-1.2,0.1c-0.2,0.1-0.4,0-0.6,0.1c-0.2,0.1-0.2,0.2-0.2,0.3c-0.1,0.2-0.2,0.3-0.2,0.6     c0,0.1,0,0.1-0.1,0.2c0,0.2-0.3,0.8-1.3,1.5l0.4-0.2l-1.1,2l-4.3,5.9c0,0,3.6-3.9,4.6-5.3c1.1-1.3,1.9-3.5,2.2-4     c0.1-0.2,0.3-0.3,0.3-0.3c0,0.3,0.5,5.2-4.3,14c-2.5,3.6-7,7.9-12.7,12.4c-10.4,8.3-11.4,12.6-13.1,18.6     c5.9-15.7,18.3-17.5,25-29.1c1.2-1.9,2.5-4,3.2-5.8c-0.7,1.6-2.3,5.2-3.7,7.2c-0.1,0.1,3.9-4.2,5.4-12l0.5-0.2     c0,0,0.3-0.3,0.7-0.5c0.4-0.3,1-0.6,0.8-1.4c0,0,0,0,0.3-0.3c0.3-0.2,0.8-0.7,0.7-1.4c-0.1-0.7,0.2-1.3,0.2-1.3     C91.6,31.4,91.6,31.2,91.5,31z M86.8,41.1c0-0.1,0.1-0.2,0.1-0.3C86.8,41,86.8,41,86.8,41.1z M86.9,40.8c0-0.1,0.1-0.2,0.1-0.3     C87,40.5,87,40.7,86.9,40.8z M91,32.9c0,0,0.1,0.3-0.6,0.9c0.1,0-0.4,0.3-0.3,0.5c0.1,0.3,0.3,0.8-0.6,1.1     c-0.1,0-0.5,0.4-0.8,0.6c-0.1,0.1-0.2,0.2-0.2,0.2c0.3-1.6,0.5-3.4,0.6-5.3c0,0,0.3,0.1,0.6,0.8c0.3,0.7,0.3,0.6,0.4,0.7     C90.1,31,89,30.6,89,30.6s0,0,0.1-0.1c0.6-0.2,1.7,0.4,2.2,0.8C91.2,31.5,90.7,32.2,91,32.9z"/>
			<path class="st2" d="M34.5,79.4c0,0-0.2,12.5,2.5,16.8c-0.1-0.1,0.3-0.1,0.3-0.4C37.4,95.5,35.5,92,34.5,79.4z"/>
			<path class="st2" d="M44,83.7c0,0-0.3,4-2.1,4.8s-4.1,1.9-4.7,4.2c0-0.2,1.4-2.2,3.6-2.9c2.3-0.7,3.4-3.3,3.5-5.3     C44.4,84.6,44,83.7,44,83.7z"/>
			<path class="st2" d="M37.3,94.1c0,0,0.2-1.7,1.1-2c0.9-0.3,1.8,0.3,3.3,1.5c1.5,1.3,2.3,1.7,2.9,1.7c0,0-2,0-3.6-1.6     c-1.7-1.5-2.5-1.9-3.3,0.3l-0.3,0.8L37.3,94.1z"/>
			<g>
				<path class="st2" d="M37.3,94L37.3,94C37.4,94,37.4,94,37.3,94z"/>
				<path class="st2" d="M41.1,115.1L41.1,115.1c0.3-1.4,1.6-6.3,3-7.6c-0.1,0.1-6.6-11.5-6.6-13.4c0,0.1-0.6,0.3-0.2,1.4      c0,0,3.3,7.9,6.4,11.8C43.7,107.3,41,110.8,41.1,115.1z"/>
			</g>
			<path class="st2" d="M50.5,114.8c0.9-3.8,1.4-9.3,0.1-14.3l-0.3,0.4c0.2,0.8,1.3,5.3,0.4,10.3c-0.8,5.5-1.1,7.6-1.1,7.6     s0.2-0.5,0.4-1.3c-0.1,0.3-0.1,0.5-0.1,0.7c0,0.3,0,1.5,0,1.8c0,0.8,0.4,3,0.9,4.6c0.8,3.1-0.1,4-2.2,4.4     c-1.7,0.5-1.6-3.1-1.5-3.6l0.2-3c0-0.2-0.8-1.8-0.8-2.7c0-0.3,0.3-1.8,0.3-2c0.1-1.4-0.6-3.2-1-4.5c-0.5-3.4-0.8-7.6,0.1-10.2     l0.4-0.8l-0.2-0.5c-0.2,0.3-0.8,1.5-0.9,2.5c-0.2,1.3-0.4,3.8-0.3,5.4c0.1,0.8,0.1,2.3,0.4,3.9v0.2c0,1.4,0.1,2,0.1,2     c0.1,1.4-0.8,2.1-1.5,2c0,0-2.6-1.2-2.8-3.6l-0.1,0.2l-0.1,0.9c0,0.3,0.2,0.5,0.3,0.7c0.5,0.8,2,2.1,2.5,2.6c2-0.5,2-2.2,2-3.3     c0.1,0.3,0.3,0.9,0.4,1.3c0.2,0.5,0.2,0.8,0.1,1.3c0,0.1,0,0.2,0,0.3c0,0.7-0.7,2-0.6,2.7c0.1,0.9,1,2.4,0.8,3.9     c-0.7,5.2,0.8,5.4,2,5.3c1.1-0.2,2.6-0.9,2.8-2.6c0.3-3.6-1.9-5.1-1.3-8.5L50.5,114.8z"/>
			<path class="st2" d="M56.8,81.1L56.8,81.1C56.8,81.1,56.8,81,56.8,81.1C56.8,81,56.8,81,56.8,81.1C56.8,81,56.8,81,56.8,81.1     c-0.3-0.8-2.9-8.4-4.2-14.3l0,0c-0.1-0.5-0.2-1-0.3-1.5c0-0.3,0.1-0.7,0.1-0.7s0.8-1.5,0.8-2.5c0.1-0.1,1.1-1.7,0.5-3.1     c0,0-0.6-1.6-1.9-1.5c0,0,0.9,0.7,1.1,1.1c0,0,0.1,0.3-0.8-0.3c-0.1,0-0.1-0.1-0.2-0.1c-1.6-4.6,11.9-6.9,15.7-12.4l-0.8-0.1     c-4.3,4.2-5.4,3.6-14.1,8.3c1.6-2.4,2.3-4.3,2.9-5c1.3-1.4,2.4-2.3,4.1-2.8c0,0,0,0,0.1,0l3.2-0.3c-0.7,0-4.4-0.3-4.7-0.3     c0.5-0.4,0.9-0.8,1.4-0.9c0,0,0.1-0.3-0.3-0.3c0,0-2.2,0.9-3.6,3.1c-0.7,0.8-1.3,1.8-1.8,2.5c0-0.4-0.2-0.8-0.5-1.4     c-0.3-0.3-0.4,0-0.4,0s1.3,1.4,0.3,3.3c-1,1.5-3.4,2.5-6.2,0.5c0.2,0.5,2.3,2.5,4.9,2c-0.5,1.1-0.7,2.5-0.8,3.4     c-0.1,0-0.1-0.1-0.2-0.1c-3.6-3.2-10.5-14.7-9.9-17.2c0.4,0.2,1.4,0.5,1.7,0.1c0.1,0.4,0.3,0.6,0.4,0.9c0.1-0.5,0.3-1.2,0.3-1.9     c0.3,0.2,1,0.4,1.5,0.4c0.8,0.1,1.8-0.3,2.3-1.1c0.2,0.5,0.3,1.4,0.4,2c0.2-0.3,0.3-0.7,0.3-1.2c0.8,0.7,1.7,0.9,2.5,1v-0.3     c-1.3-0.1-1.9-0.9-2-1.2c-0.3-0.3-0.3-0.7-0.3-0.9c0.1-0.9,1.2-2.2,1.3-4.8c1-1.7,1.1-3,0.7-3.4c-5.9,3.1-10.3-0.3-10.3-0.3     c-0.3,0.7,0.1,2.7,1,3.6c0.8,0.8,0.2,2.5,2.2,5.8c0,0,0,0.5-0.3,0.8c-0.3,0.1-0.6,0-0.8,0s-0.3,0-0.5-0.2     c-0.3-0.1-0.4-0.3-0.6-0.5c-0.3-0.3-0.6-0.3-1-0.2c-0.8-0.9-3.8-4.7-3.8-9.1c-0.6-3.6-2.6-10.6-7.5-14.4c0,0-17.7-12.2-20.5-14.7     c0,0-1.8,2,1.1,5.1C8.7,6,7.8,8.1,11,9.9c0.1,0-1.5,1.9,3.2,5.1c0,0.1-0.3,2.9,5,6.8c0.1,0-0.7,2.8,2.4,4.7     c0.1,0.1-1.4,2,1.7,5.2c-0.1-0.1-1.4,2.5,2.1,6.2c0.1,0-0.5,2,1.9,4.3c0.1,0.1-0.8,1.9,2.5,3.4c0,0-2-1.4-1.4-3.2     c0,0-4.6-4.2-1-3.3c-0.1,0.1-4.2-3.6-3.8-6c0.2-0.1,0.2-0.9,1.6,0.6c0.1-0.1-3.6-4.2-3.3-5.7c0,0-0.1-1.1,1.2-0.1     c0.1-0.1-3.6-3.7-3.1-5.3c0.1,0.1,1.3,0.8,2.1,1.2c0,0-7-5.9-6.8-7.8c0-0.1,2.6,2,2.9,2c0,0-6.7-5.3-6.4-7.3     c0-0.1,0.8-0.2,1.4,0.3C13.1,11,9.3,8.1,9.4,6.8c-0.1,0.1,2,1.2,2,1.2S7.1,3.7,8.2,2.1c0.1,0.1,6,4.5,8.6,6.1s14.1,8.6,16.5,16     c0,0,1.1,2.3,2.3,8.2c-0.1,0.1,1.1,4.5,4.1,6.6c-0.2,0-0.3,0.1-0.5,0.2c-0.5,0.3-1.4,0.5-2,0.5c-0.1,0-0.1,0-0.2,0     c-2.2,0.4-4.2,3.8-4.7,4.6S29.6,48,29.6,48l0,0c-1.4,1.8-3.6,3.9-5.9,6.1c1.7-1,3.5-2.4,5.6-5c-1.6,2.9-2.4,6.2-3.9,8.6     c-0.7,1.1-1.8,3.6-2.6,6.1c-2.9-9.9-6.6-21.7-11.4-29.1c3.4,5.3,8.3,20.4,11.2,30c-0.6,1.8-0.9,3.6-0.9,4.7     c-0.5,1-1.1,2.6-1.2,4.2c-0.2,2.8,3,4.3,5.2,6.2c0.3,0.5,0.8,1.1,0.9,1.4c0.7,0.3,1-0.3,1-0.3l0.2,0.3c0.8-0.1,0.6-0.3-0.3-2.2     c0-0.1-0.1-0.2-0.1-0.2c-0.8-1.9-1.6-4.8-2.6-8.3c1.1-2,3.1-5.6,3.6-6.6c1.4-2.1,1.1-3.3,2.7-6c1.4-2.2,3.6-4.4,4-5.8     c0,0-0.2,0.8,0.8,2c-0.2,1.7,0.5,2.3,0.3,2.5c0.1,0.2,0.1,0.3,0.2,0.5c-0.9,1-3.1,3.4-4.2,4.7c-1.5,1.7-6.3,6.3-5.3,10.6     c0.9,4.2,3.7,5.4,6.9,5.5c-3.4,1.9-4.5,15.2-12.4,23.7c0,0,6.9-1.4,5.3,3.1c-2.8,7.9,5.4,8.7,10.8,8.5c-0.8-0.1-1.7-0.2-2.7-0.3     c-7.5-1.2-8.2-5.5-7.1-8.4c1.7-4.3-3.6-4.2-3.6-4.2c5.5-7.7,7.5-18.8,10.8-22.3l0,0c0,1.3,0.1,2.5,0.3,3.9c0,0,0.4,6.5,1.1,9.9     c0.3,1.4,0.8,2.8,1.3,4c0.1-0.3,0.1-0.4,0.1-0.4l2.9,5c-0.9-2-2.3-4.6-2.6-6v-0.1c0,0,0-0.1-0.1-0.3c-0.1,0.2-0.3-0.3-0.6-1.3     l0,0c-0.4-1.6-2-7.9-1.7-14.7c2.8,0.1,5.1,0.5,7.1,5.3c0,0-1-5.8-6.1-5.9c-0.3,0-0.7,0-1,0c0-0.2,0-0.3,0-0.5     c0,0,0.1-0.6,0.2-1.4c4.1-0.7,6.7,5,6.8,5.1c-0.9-4.9-5.9-5.7-6.6-5.8c0.2-1.3,0.5-2.7,0.9-3.2l0,0c3.2,0.3,5.9,3.6,5.9,3.7     c-1.5-3.1-4.9-4-5.9-4.2c0-0.8,0-2.5,1.2-3.8c0,0,0.1,0,0.1-0.1c0.5,1.2,2.1,3.4,4,4.5c-2-2-3.1-4.1-3.3-5c0.3-0.3,0.7-0.5,1-0.8     c0.4,1.7,2.1,4.2,4.2,5.8c-3.1-2.6-3.1-5.9-3.1-6.8l0,0c3.1-0.5,5.9-2.1,8.2-0.6c-0.9,0.7-1.5,1.6-3.1,2.4c2.9-0.5,3.1-2.2,4-1.8     c0.1,0.3,0.1,0.7,0.1,0.9c-0.2,2.5-1.4,4.5-3,7.5c1.6-1.7,2.7-3.5,3.3-5.3c-0.1,1.3-0.3,3.1-0.8,4.3c-0.8,1.8-2.7,4.7-3.2,5.6     c-0.4,0.8-1.6,2.7-1.9,3.2v0.7c0.7-1,3.2-5.2,3.9-6.1c0.8-1,1.9-3.5,2-4.8c0-0.1,0,3.5,0.4,5.1c0.3,1,1.3,4.1,1.9,7.9l0.3,2.4     c-0.2-7-2.2-11.4-2.2-12.6c0-1.3,0.2-5.7,0.2-5.7s0.3-1.4,0-2l0.4-0.3c0,0.8,0.1,2.5,0.1,3.1c0,0.6,0.1,1.3,0.2,1.8     s0.3,2,0.5,2.7s0.4,1.8,0.7,2.7c0.3,0.9,0.9,4.2,1.1,5c0.1,0.3,0.1,0.7,0.2,1.1h0.6l0,0c0-0.3,0.3-0.6,0.3-1.1c0,0,0-1.7-0.1-3.5     c4.8,14.7,11.7,14.3,14.7,20.8c-5.5,5.6-9.7,6.4-16.9,5.9c4,0.4,10.5,3.1,17.6-5.6C69,92.8,60.8,90.4,56.8,81.1z M41.8,32.8     c0,0,0.4,0.6,1.3,0.7c0.4,0,1.1-0.5,1.1-0.5s0.6,0.5,1.2,0.6c0.9,0,1.4-0.6,1.4-0.6s0.3,0.4,0.8,0.3s1.4-0.8,1.4-0.8     s-0.3,7-3.8,7.1C42,39.6,41.8,32.8,41.8,32.8z M24.7,73.3c0.4,1.4,1.1,3.6,1,3.5c-0.1-0.1-1.4-1.7-1.6-1.9     c-0.3-0.2-0.3,0.2-0.3,0.2c0.5,0.3,2.5,3.5,2.8,4s0.5,1.1,0.7,1.4c0.2,0.4-0.3,0.8-0.8,0.2c-0.2-0.3-0.3-0.5-0.5-0.8L26,79.9     l-0.5-0.6c-0.1-0.1-0.1-0.1-0.2-0.2S25.2,79,25.2,79l0,0c-2.1-2-4.4-2.7-4.2-5.3c0.1-1.4,0.6-2.9,1.1-3.8c0.1-0.7,0.4-2,0.8-3.6     c0.3,1.1,0.7,2.2,0.9,3.1c0.1,0.5,0.3,1.4,0.3,1.8c-0.2,0.4-0.3,0.7-0.5,0.9C23.8,72.1,24.3,72.6,24.7,73.3z M24,71.7     c0-0.1,0.1-0.1,0.1-0.2l0.2,0.3C24.1,71.8,24,71.7,24,71.7z M35.5,50.3c-0.2,0.3-0.3,0.6-0.5,0.9c-1.1,1.8-3.4,4.2-4.7,6.2     c-1.3,1.9-1.5,4.1-2.8,6c-0.5,0.8-2,4.2-3.1,6.5c-0.4-1.5-0.9-3.1-1.4-4.8c0.8-2.3,1.6-4.7,2-5.2c1.1-1.4,5.1-11.3,5.1-11.3     c1.1-2.2,5.2-8.2,6.7-8.1c0.5,0,1.4-0.2,2.1-0.3c0.3,1,1.7,7-2.5,9l1.1-1.9c0,0-0.1-0.5-0.4,0C37,47.6,36.3,48.8,35.5,50.3z      M34.4,77.5c-4-0.1-5.8-0.4-6.9-5c-0.8-3.3,2-4.2,2-4.2s-4,5.4,2.6,7.8c0,0-4.2-2.3-3-6.2c0-0.1-0.1,3.6,3.1,3.3     c-0.6-0.1-3.6-1.3-2.4-4.2c1-2,3.7-0.6,3.7-0.6s0.8,0.4,1.4,0.1C35.3,68.5,34.4,72.2,34.4,77.5z M40.2,64.5     c-1.4,0.6-2.5,1.4-3.6,2.2c-2.5,1-4,0.5-5.5,0.4c-2-0.1-2.5,0.6-2.5,0.6l1.8-3.1c0,0,0.3,2.2,4.1,0.8c0.2,0,1.9-0.7,2.5-0.7     c-0.3,0-1.4,0-3.1,0.3c-2.1,0.4-3.1-0.3-3.1-0.8c0.1,0.2,1.9-2.5,1.9-2.5s0.5,3.3,3.1,2.7c2.5-0.6,5.1-1.7,6.3-1.3     c0.1-0.1-0.8-0.8-2.7-0.2c-2,0.6-5.9,2.4-6.2-1.6c0-0.1,1.1-1.4,1.4-1.5c-0.1,0-0.1,2.7,3.1,2.6c0-0.1-3.3-0.8-2.8-3.1l1.4-1.3     c0.3,0.5,0.5,1.1,1,1.6c0.6,0.4,1.4,0.9,2.1,1.4c0.3,0.1,0.6,0.2,1,0.3c1.4,0.3,2.1,0.9,2.9,1.9C42.7,63.3,41.6,63.6,40.2,64.5z      M42.2,63.9c0.5-0.3,0.9-0.3,1.3-0.4c0.1,0.1,0.1,0.2,0.2,0.3C43.2,63.7,42.7,63.8,42.2,63.9z M41.7,53.8c1.6,6.4,3.4,7,4.9,9     c-0.3,0-1.8,0.3-2,0.3c-1.4-0.1-2-1.9-3.4-2c-2.7-0.4-4-2.4-4.6-4.1l-0.1-0.3l0,0c-0.3-1-0.3-1.8-0.3-2.1     c0.8,0.4,1.4,0.3,1.4,0.3c0.3,1.2,1.1,2.9,2.6,3.9c-0.5-0.7-2-2.5-1.9-4c0.8,0,1.5-0.4,1.8-0.6c-3.1,0.9-4.7-1.4-4.4-3.4     c0.2-0.3,0.4-0.8,0.6-1.2c0.1,0,0.7,0,0.7,0s2.6-1.6,2.8-5.3c0.1-1.8-0.1-2.8-0.3-3.4c0-0.9,0.1-1.8,0.6-1.4     c0.2,0.2,0.6,0.5,0.6,0.5c0,3.3,1.7,5.8,4.1,9.9c2.3,4.1,4.7,6.4,5.9,7.5l0,0c0.1,0.1,0.2,0.1,0.3,0.2c0.5,0.3,1.4,0.9,1.8,1.2     c0.4,0.2,0.8,0.2,0.8,0.2s0,0.4-0.1,0.8c-0.1,0.4-0.1,0.7-0.2,1c-0.1,0.3-0.3,0.5-0.3,0.5s-2.3-1.5-2.8-1.7c0,0-0.3,0.1,0.1,0.3     c0.3,0.3,0.7,0.5,1.1,0.9c0.5,0.5,0.8,0.5,1.1,0.8c0.3,0.3,0.3,0.6,0.2,0.8s-0.4,0.8-0.5,0.9c-0.1,0.3,0.3,0.6-0.6-0.1     c-0.8-0.7-2.1-1.6-2.1-1.6s-0.3-0.1-0.3,0.3c0.2,0.3,2.3,1.6,2.5,1.9c0.1,0.3,0.2,0.3-0.1,0.5c-0.1,0,0.3,0.3,0.1,0.7l0,0     L51.6,65C50.5,65.3,45.3,62.7,41.7,53.8z M54,81.2C54,81.2,54,81.3,54,81.2C54,81.3,54,81.2,54,81.2c0-0.3-0.3-2.8-0.5-3.3     c-0.2-0.5-0.8-2.5-0.8-3.2c-0.1-0.7-0.3-1.8-0.4-2.2c-0.1-0.3-0.4-2.2-0.4-2.9c0-0.7-0.2-3.4-0.4-4l0.5-0.3c0,0.1,0,0.2,0,0.2     c0,0.3,0.1,0.3,0.2,0.4c0.1,0.1,0.1,0.1,0.1,0.2c0,0.1,0,0.2,0,0.3c0,0,0.2,0.5,0.3,1.1c0.1,0.6,0.1,1.5,0.3,2.2     c0,0,1.2,3.8,1.3,4.5C53.9,74.9,54,80.6,54,81.2z"/>
			<path class="st2" d="M54.6,81.3c0,0-0.9,4.7-1.9,7.7c0,0.1,1.1-4,0.9-7.7s0.5,0.3,0.5,0.3L54.6,81.3z"/>
		</g>
		<g>
			<g>
				<g>
					<path class="st2" d="M101.5,70.4l0.3-1.7l7.7-14h3.6l2.8,14l-0.3,1.7H101.5z M111.2,61.6c-0.1-0.4-0.2-0.8-0.2-1       c-0.1-0.3-0.1-0.6-0.1-0.8c0-0.3-0.1-0.5-0.1-0.8c0-0.3,0-0.5-0.1-0.8c-0.1,0.3-0.3,0.5-0.3,0.8c-0.1,0.3-0.3,0.5-0.3,0.8       c-0.2,0.3-0.3,0.5-0.4,0.8c-0.2,0.3-0.3,0.7-0.5,1l-3.3,6.4h6.5L111.2,61.6z"/>
					<path class="st2" d="M127.4,70.4l1.2-6.8h-6.4l-1.2,6.8h-3.4l2.8-15.6h3.4l-1,5.9h6.4l1-5.9h3.4l-2.7,15.6H127.4z"/>
					<path class="st2" d="M147.4,70.4l0.8-4.7c0.1-0.3,0.1-0.6,0.2-1c0.1-0.3,0.2-0.8,0.3-1.4c0.1-0.5,0.2-0.9,0.3-1.4       c0.1-0.4,0.2-0.8,0.2-1c0.1-0.3,0.2-0.7,0.2-1c0.1-0.3,0.2-0.7,0.3-1l0.3-1.2c-0.2,0.4-0.3,0.8-0.5,1.1       c-0.2,0.3-0.3,0.6-0.4,0.9c-0.1,0.3-0.3,0.6-0.4,0.8c-0.2,0.3-0.3,0.6-0.4,0.9c-0.2,0.3-0.3,0.6-0.4,0.8       c-0.2,0.3-0.3,0.5-0.3,0.8l-3.7,7.1h-2.6l-1.3-7c0-0.2-0.1-0.4-0.1-0.7c0-0.3-0.1-0.6-0.2-0.9c-0.1-0.5-0.1-0.8-0.2-1.3       c0-0.3-0.1-0.7-0.1-0.9c0-0.2-0.1-0.4-0.1-0.8s0-0.7-0.1-1.1l-0.3,2c-0.1,0.5-0.1,1-0.2,1.4c-0.1,0.4-0.1,0.8-0.2,1.2       c-0.1,0.4-0.1,0.8-0.2,1.3c-0.1,0.4-0.2,1-0.3,1.6l-0.8,5h-3.2l2.7-15.6h4.8l1.1,6.8c0.2,0.8,0.3,1.6,0.3,2.3       c0.1,0.8,0.1,1.6,0.2,2.6c0.1-0.3,0.3-0.6,0.3-0.8c0.1-0.3,0.2-0.4,0.3-0.7c0.1-0.2,0.2-0.4,0.3-0.7s0.2-0.5,0.3-0.8       c0.2-0.4,0.3-0.8,0.5-1.1s0.3-0.7,0.5-0.9l3.4-6.8h4.7l-2.7,15.9H147.4z"/>
					<path class="st2" d="M169.8,62.6c-0.3,1.2-0.6,2.4-1.1,3.3c-0.5,1-1.2,1.9-2,2.6c-0.8,0.7-1.7,1.3-2.7,1.7       c-1,0.4-2.1,0.6-3.2,0.6c-1.2,0-2.2-0.2-3.1-0.6c-0.8-0.4-1.6-0.9-2.1-1.7c-0.6-0.8-0.9-1.6-1.1-2.5c-0.2-1-0.2-2.1,0-3.4       c0.3-1.2,0.6-2.4,1.2-3.4c0.6-1,1.2-1.9,2-2.5c0.8-0.7,1.7-1.3,2.7-1.6c1-0.4,2.1-0.6,3.3-0.6c1.1,0,2.1,0.2,3.1,0.6       c0.8,0.4,1.6,0.9,2.1,1.7c0.5,0.7,0.9,1.6,1.1,2.5C169.9,60.3,169.9,61.4,169.8,62.6z M166.3,62.6c0.3-1.6,0.2-3-0.4-3.9       c-0.6-0.9-1.5-1.4-2.9-1.4c-0.7,0-1.3,0.1-1.9,0.3s-1.1,0.6-1.5,1.1c-0.4,0.4-0.8,1-1.2,1.7c-0.3,0.7-0.5,1.4-0.7,2.2       c-0.3,1.7-0.2,3,0.4,3.9c0.6,0.9,1.5,1.4,2.9,1.4c1.3,0,2.4-0.5,3.3-1.4C165.4,65.5,166,64.3,166.3,62.6z"/>
					<path class="st2" d="M180.8,70.4l-3.6-7l-2.3,2l-0.9,5h-3.4l2.7-15.6h3.4l-0.8,4.7l-0.2,1l-0.2,0.9l0.7-0.6l0.9-0.8l5.8-5.1       h4.3L180,61l5,9.4H180.8z"/>
					<path class="st2" d="M200.8,59.9c-0.3,1.6-1.1,2.9-2.4,3.8c-0.6,0.4-1.2,0.7-1.8,0.8c-0.7,0.2-1.4,0.3-2.3,0.3h-3.5l-1,5.6       h-3.4l2.8-15.6h6.3c0.5,0,1,0,1.4,0c0.4,0,0.8,0.1,1.1,0.2c0.3,0.1,0.6,0.2,0.8,0.3c0.3,0.1,0.5,0.3,0.7,0.4       C200.7,56.6,201.1,58,200.8,59.9z M197.5,59.9c0.1-0.8,0-1.3-0.4-1.7c-0.4-0.3-1.1-0.5-2.1-0.5h-2.9l-0.8,4.4h3.1       C196.2,62.2,197.2,61.4,197.5,59.9z"/>
					<path class="st2" d="M209.7,70.4l-0.7-3.5h-5.8l-2,3.5h-3.5l8.7-15.7h3.6l3.1,15.7H209.7z M208.2,61.6c-0.1-0.4-0.2-0.8-0.2-1       c-0.1-0.3-0.1-0.6-0.2-0.8c0-0.3-0.1-0.5-0.1-0.8c0-0.3-0.1-0.5-0.1-0.8c-0.1,0.3-0.3,0.5-0.3,0.8c-0.1,0.3-0.3,0.5-0.3,0.8       c-0.1,0.3-0.3,0.5-0.4,0.8c-0.2,0.3-0.3,0.7-0.5,1l-1.5,2.8h4.2L208.2,61.6z"/>
					<path class="st2" d="M222.4,57.7l-2.3,12.7h-3.4l2.2-12.7h-4.7l0.5-2.9h12.8l-0.5,2.9H222.4z"/>
					<path class="st2" d="M226.7,70.4l2.7-15.6h3.4l-2.7,15.6H226.7z"/>
					<path class="st2" d="M243.3,70.4l-3.6-7l-2.3,2l-0.8,5h-3.4l2.7-15.6h3.4l-0.8,4.7l-0.2,1l-0.2,0.9l0.7-0.6l0.9-0.8l5.8-5.1       h4.3l-7.2,6.2l5,9.4H243.3z"/>
					<path class="st2" d="M264,62.6c-0.2,1.2-0.6,2.4-1.1,3.3c-0.5,1-1.2,1.9-2,2.6c-0.8,0.7-1.7,1.3-2.7,1.7       c-1,0.4-2.1,0.6-3.2,0.6c-1.2,0-2.2-0.2-3.1-0.6c-0.8-0.4-1.6-0.9-2.1-1.7c-0.5-0.8-0.9-1.6-1.1-2.5c-0.2-1-0.2-2.1,0.1-3.4       c0.3-1.2,0.6-2.4,1.1-3.4c0.5-1,1.2-1.9,2-2.5c0.8-0.7,1.7-1.3,2.7-1.6c1-0.4,2.1-0.6,3.3-0.6c1.1,0,2.1,0.2,3.1,0.6       c0.8,0.4,1.5,0.9,2.1,1.7c0.5,0.7,0.9,1.6,1.1,2.5C264.2,60.3,264.2,61.4,264,62.6z M260.7,62.6c0.3-1.6,0.2-3-0.4-3.9       c-0.6-0.9-1.5-1.4-2.9-1.4c-0.7,0-1.3,0.1-1.9,0.3s-1.1,0.6-1.5,1.1c-0.4,0.4-0.8,1-1.2,1.7c-0.3,0.7-0.5,1.4-0.7,2.2       c-0.3,1.7-0.2,3,0.4,3.9c0.6,0.9,1.5,1.4,2.9,1.4c1.3,0,2.4-0.5,3.3-1.4C259.7,65.5,260.3,64.3,260.7,62.6z"/>
					<path class="st2" d="M263.5,70.4l0.5-2.7l5.3-5.3l-3.3-5l0.4-2.5h12.4l-0.5,2.9h-5.2c-0.3,0-0.4,0-0.6,0s-0.4,0-0.6,0       s-0.4,0-0.7,0s-0.6,0-0.8,0c0.3,0.4,0.6,0.8,0.8,0.9c0.2,0.2,0.3,0.3,0.4,0.6l2.1,3.2l-3.3,3.4c-0.1,0.1-0.3,0.3-0.3,0.3       c-0.2,0.2-0.3,0.3-0.6,0.5c-0.2,0.1-0.3,0.3-0.4,0.4c-0.2,0.2-0.4,0.3-0.7,0.6c0.4,0,0.8,0,1.1-0.1c0.3,0,0.6,0,0.8,0       s0.4,0,0.6,0s0.4,0,0.6,0h5.9l-0.5,2.9L263.5,70.4L263.5,70.4z"/>
					<path class="st2" d="M97.5,93.4l0.6-3.1l6.2-6.2l-3.8-5.8l0.5-3h14.4l-0.6,3.4h-6.1c-0.3,0-0.5,0-0.8,0c-0.3,0-0.4,0-0.7,0       s-0.5,0-0.8,0s-0.6,0-1,0c0.4,0.5,0.7,0.8,0.8,1.1c0.2,0.3,0.3,0.4,0.5,0.7l2.5,3.8l-3.9,4c-0.1,0.1-0.3,0.3-0.4,0.4       c-0.2,0.2-0.4,0.4-0.7,0.6c-0.2,0.1-0.3,0.3-0.5,0.5c-0.3,0.2-0.4,0.4-0.8,0.7c0.5,0,0.9,0,1.3-0.1c0.3,0,0.7,0,0.9,0       c0.3,0,0.5,0,0.8,0c0.3,0,0.4,0,0.7,0h6.9l-0.6,3.4H97.5V93.4z"/>
					<path class="st2" d="M125.2,86.4l-1.3,7h-4l1.3-7.1l-4.8-11.1h4.6l2,4.8c0.1,0.2,0.2,0.3,0.3,0.6c0.1,0.3,0.2,0.5,0.3,0.8       s0.2,0.6,0.3,0.8s0.2,0.5,0.3,0.8c0.3-0.6,0.8-1.2,1.1-1.8c0.4-0.6,0.7-1.1,0.9-1.4l3.6-4.7h4.5L125.2,86.4z"/>
					<path class="st2" d="M143.4,93.4l-3.9-8.8c0-0.1-0.1-0.2-0.2-0.3c-0.1-0.2-0.2-0.4-0.3-0.8c-0.2-0.3-0.3-0.7-0.3-0.8       c-0.1-0.3-0.2-0.4-0.3-0.5c-0.1-0.2-0.1-0.3-0.2-0.3c0-0.1-0.1-0.3-0.1-0.3c0-0.1-0.1-0.2-0.1-0.3c0-0.1-0.1-0.3-0.2-0.4       c-0.1,0.6-0.2,1.4-0.3,2.3c-0.1,0.9-0.3,1.9-0.4,2.8l-1.4,7.8H132l3.2-18.2h4.1l3.7,8.6c0.3,0.5,0.4,0.9,0.6,1.4       c0.2,0.4,0.3,0.8,0.4,1.1c0.1,0.3,0.3,0.6,0.3,0.9c0.1,0.3,0.2,0.6,0.3,0.8c0-0.2,0-0.3,0.1-0.5c0-0.2,0-0.3,0-0.4       c0-0.2,0-0.3,0.1-0.4c0-0.2,0.1-0.3,0.1-0.7l0.3-1.5l0.3-1.7l1.3-7.5h3.8l-3.2,18.2h-4V93.4z"/>
					<path class="st2" d="M162.8,93.4l-0.8-4.1h-6.8l-2.2,4.1H149l10.1-18.2h4.2l3.7,18.2H162.8z M160.9,83.1       c-0.1-0.4-0.2-0.8-0.3-1.2c-0.1-0.3-0.1-0.7-0.2-0.9c0-0.3-0.1-0.6-0.1-0.8s-0.1-0.6-0.1-0.9c-0.1,0.3-0.3,0.6-0.4,0.9       c-0.2,0.3-0.3,0.6-0.4,0.9c-0.2,0.3-0.3,0.6-0.5,1c-0.2,0.3-0.4,0.8-0.6,1.2l-1.8,3.3h4.8L160.9,83.1z"/>
					<path class="st2" d="M175,78.6l-2.6,14.8h-4l3.2-18.2h12.8l-0.6,3.4H175z"/>
					<path class="st2" d="M183.6,93.4l3.2-18.2h13.7l-0.6,3.4h-9.7l-0.7,3.9h8.9l-0.6,3.1h-8.9l-0.8,4.5h9.8l-0.6,3.4L183.6,93.4       L183.6,93.4z"/>
					<path class="st2" d="M216.9,81.1c-0.3,2-1.3,3.4-2.8,4.5c-0.7,0.5-1.4,0.8-2.1,1c-0.8,0.2-1.6,0.3-2.7,0.3h-4.1l-1.2,6.5h-4       l3.2-18.2h7.4c0.6,0,1.2,0,1.6,0.1c0.4,0,0.8,0.1,1.3,0.2c0.3,0.1,0.7,0.2,1,0.3c0.3,0.2,0.6,0.3,0.8,0.5       C216.7,77.3,217.2,78.9,216.9,81.1z M213,81.1c0.2-0.8,0-1.5-0.5-2c-0.5-0.4-1.3-0.6-2.5-0.6h-3.3l-0.9,5.2h3.6       C211.5,83.8,212.7,82.8,213,81.1z"/>
					<path class="st2" d="M233.1,93.4l1-5.4c0.1-0.3,0.2-0.7,0.3-1.2c0.1-0.4,0.2-0.9,0.3-1.5c0.1-0.6,0.3-1.1,0.3-1.5       c0.1-0.5,0.2-0.8,0.3-1.3c0.1-0.4,0.2-0.8,0.3-1.2c0.1-0.4,0.2-0.8,0.3-1.3l0.3-1.4c-0.3,0.5-0.4,0.9-0.6,1.4       c-0.2,0.3-0.3,0.8-0.5,1.1s-0.3,0.7-0.5,1c-0.2,0.3-0.3,0.7-0.5,1.1c-0.2,0.3-0.3,0.7-0.5,1c-0.2,0.3-0.3,0.6-0.4,0.8l-4.3,8.3       h-3.1l-1.5-8.1c0-0.2-0.1-0.4-0.1-0.8c-0.1-0.3-0.1-0.7-0.2-1.1c-0.1-0.5-0.2-1-0.2-1.4c-0.1-0.4-0.1-0.8-0.2-1       c0-0.3-0.1-0.5-0.1-0.9c0-0.3,0-0.8-0.1-1.3l-0.3,2.2c-0.1,0.6-0.2,1.2-0.3,1.6c-0.1,0.5-0.2,0.9-0.2,1.4       c-0.1,0.5-0.2,1-0.3,1.5c-0.1,0.5-0.2,1.2-0.3,2l-1,5.9h-3.7l3.2-18.2h5.7l1.3,7.9c0.2,0.9,0.3,1.9,0.3,2.7s0.2,1.9,0.2,3.1       c0.2-0.3,0.3-0.7,0.3-0.9c0.1-0.3,0.2-0.5,0.3-0.8c0.1-0.3,0.2-0.5,0.3-0.8c0.1-0.3,0.3-0.6,0.4-0.9c0.3-0.5,0.4-0.9,0.6-1.3       c0.2-0.4,0.3-0.8,0.6-1.1l4-7.9h5.6l-3.2,18.2L233.1,93.4L233.1,93.4z"/>
					<path class="st2" d="M259.1,84.3c-0.3,1.4-0.7,2.7-1.4,3.9c-0.6,1.2-1.4,2.2-2.4,3.1c-0.9,0.8-2,1.5-3.1,2       c-1.2,0.4-2.5,0.7-3.8,0.7s-2.5-0.3-3.6-0.7c-1-0.4-1.9-1.1-2.5-2c-0.7-0.8-1.1-1.9-1.3-3c-0.3-1.2-0.2-2.5,0.1-3.9       c0.3-1.4,0.7-2.7,1.4-3.9c0.6-1.2,1.4-2.2,2.4-3c0.9-0.8,2-1.4,3.2-2c1.2-0.4,2.5-0.7,3.8-0.7c1.4,0,2.5,0.3,3.5,0.7       c1,0.4,1.9,1.1,2.5,2c0.7,0.8,1.1,1.9,1.3,3C259.4,81.6,259.4,82.9,259.1,84.3z M255.1,84.3c0.3-2,0.2-3.4-0.5-4.5       c-0.7-1.1-1.8-1.7-3.4-1.7c-0.8,0-1.4,0.2-2.1,0.4c-0.7,0.3-1.3,0.7-1.8,1.3c-0.5,0.5-0.9,1.2-1.4,2c-0.3,0.8-0.7,1.6-0.8,2.5       c-0.3,2-0.2,3.5,0.5,4.6c0.7,1.1,1.9,1.7,3.4,1.7s2.8-0.6,3.9-1.7C254.1,87.8,254.8,86.2,255.1,84.3z"/>
					<path class="st2" d="M258.5,93.4l0.6-3.1l6.2-6.2l-3.8-5.8l0.5-3h14.4l-0.6,3.4h-6c-0.3,0-0.5,0-0.8,0c-0.3,0-0.4,0-0.7,0       s-0.5,0-0.8,0c-0.3,0-0.6,0-1,0c0.4,0.5,0.7,0.8,0.8,1.1c0.2,0.3,0.3,0.4,0.4,0.7l2.5,3.8l-3.9,4c-0.1,0.1-0.3,0.3-0.4,0.4       c-0.2,0.2-0.4,0.4-0.7,0.6c-0.2,0.1-0.3,0.3-0.5,0.5c-0.3,0.2-0.5,0.4-0.8,0.7c0.5,0,0.9,0,1.3-0.1c0.3,0,0.7,0,0.9,0       c0.3,0,0.5,0,0.8,0s0.4,0,0.7,0h6.9l-0.6,3.4h-15.5V93.4z"/>
				</g>
			</g>
		</g>
		<g>
			<path class="st2" d="M45.6,30.6L45.6,30.6c-1.8,0-3.3-0.4-4.2-0.8c-0.1,0-0.3-0.1-0.4-0.2c-0.4-0.2-0.7-0.3-0.8-0.3l-0.1-0.1V29     c-0.1-0.9,0.4-1.3,0.8-1.4c0-0.3,0.1-0.6,0.3-0.8c0.2-0.2,0.4-0.3,0.7-0.3c0.1,0,0.2,0,0.2,0h0.1c0.4,0.3,1.6,0.9,3.1,0.9     c1.1,0,2.2-0.3,3.1-1c0.1-0.1,0.3-0.1,0.3-0.2c0.1,0,0.2,0,0.2,0c0.3,0,0.6,0.1,0.8,0.4c0.2,0.2,0.3,0.4,0.2,0.9     c0.2,0.2,0.4,0.3,0.4,0.7c0,0.3,0,0.3-0.1,0.5v0.1c-0.1,0.2-0.2,0.3-0.3,0.5h-0.1C48.8,30.3,47.2,30.6,45.6,30.6z M40.5,29     c0.2,0.1,0.3,0.2,0.6,0.3c0.1,0.1,0.2,0.1,0.3,0.1c0.9,0.3,2.5,0.8,4.2,0.8c1.5,0,2.9-0.3,4.2-0.9C50,29.1,50,29,50,28.9v-0.1     c0-0.2,0.1-0.3,0-0.3c0-0.3-0.3-0.4-0.3-0.4l0-0.1l-0.1-0.2v-0.1c0.1-0.3,0-0.5-0.1-0.7c-0.2-0.2-0.3-0.3-0.5-0.3h-0.1     c-0.1,0-0.1,0.1-0.2,0.1c-1.1,0.8-2.2,1.1-3.4,1.1c-1.6,0-2.9-0.7-3.3-1c-0.1,0-0.3,0-0.4,0.2c-0.1,0.1-0.2,0.3-0.1,0.6V28h-0.3     C41.1,28.2,40.6,28.2,40.5,29z"/>
		</g>
		<g>
			<path class="st2" d="M45.4,27.1L45.4,27.1c-1.6,0-2.7-0.8-2.9-0.8l-0.2-0.1l0.1-0.2c0,0,0.1-0.1,0.1-0.2l0.3-0.4l0,0l0.1-0.1     c0.3-0.3,0.8-0.3,1.3-0.3c0.3-0.3,0.8-0.7,1.4-0.7c0.5,0,0.9,0.3,1.4,0.8c0.3,0.1,1.1,0.3,1.4,0.9l0.1,0.2l-0.3,0.1     C47.2,26.8,46.3,27.1,45.4,27.1z M42.9,25.9c0.3,0.3,1.3,0.7,2.5,0.7l0,0c0.8,0,1.6-0.2,2.4-0.6c-0.3-0.4-0.9-0.5-0.9-0.5h-0.1     l-0.1-0.1c-0.3-0.4-0.8-0.6-1.1-0.6c-0.4,0-0.8,0.3-0.9,0.4l0.6,0.6l-1-0.4c-0.3-0.2-0.7-0.1-1,0.2l-0.1,0.1L42.9,25.9z"/>
		</g>
	</g>
</g>
</svg>