<?xml version="1.0" encoding="UTF-8"?>
<!-- Generator: Adobe Illustrator 23.0.3, SVG Export Plug-In . SVG Version: 6.00 Build 0)  -->
<svg version="1.2" baseProfile="tiny" id="Layer_1" xmlns="http://www.w3.org/2000/svg" xmlns:xlink="http://www.w3.org/1999/xlink" x="0px" y="0px" viewBox="0 0 545.328 165.962" xml:space="preserve">
<g>
	<polygon fill="none" points="272.429,153.733 283.91,153.733 278.221,135.723  "/>
	<path fill="none" d="M442.872,111.591c1.482,0,2.646-0.396,3.492-1.187c0.847-0.791,1.271-2.044,1.271-3.759V93.54   c0-1.715-0.424-2.968-1.271-3.759c-0.846-0.792-2.01-1.187-3.492-1.187c-1.481,0-2.637,0.395-3.466,1.187   c-0.83,0.791-1.244,2.044-1.244,3.759v13.105c0,1.715,0.414,2.968,1.244,3.759C440.235,111.195,441.391,111.591,442.872,111.591z"/>
	<path fill="none" d="M380.854,88.594c-1.481,0-2.637,0.395-3.466,1.187c-0.83,0.791-1.244,2.044-1.244,3.759v13.105   c0,1.715,0.414,2.968,1.244,3.759c0.829,0.791,1.985,1.187,3.466,1.187c1.482,0,2.646-0.396,3.492-1.187   c0.847-0.791,1.271-2.044,1.271-3.759V93.54c0-1.715-0.424-2.968-1.271-3.759C383.5,88.989,382.336,88.594,380.854,88.594z"/>
	<path fill="none" d="M411.363,133.712c-4.203,0-6.713,2.156-6.713,6.802v14.417c0,4.646,2.51,6.802,6.713,6.802   s6.766-2.156,6.766-6.802v-14.417C418.129,135.868,415.566,133.712,411.363,133.712z"/>
	<path fill="none" d="M306.081,88.594c-1.481,0-2.637,0.395-3.466,1.187c-0.83,0.791-1.244,2.044-1.244,3.759v13.105   c0,1.715,0.414,2.968,1.244,3.759c0.829,0.791,1.985,1.187,3.466,1.187c1.482,0,2.646-0.396,3.492-1.187   c0.847-0.791,1.271-2.044,1.271-3.759V93.54c0-1.715-0.424-2.968-1.271-3.759C308.727,88.989,307.563,88.594,306.081,88.594z"/>
	<path fill="none" d="M219.182,133.712v14.178h6.919c4.203,0,6.766-2.203,6.766-6.801v-0.575c0-4.647-2.563-6.802-6.766-6.802   H219.182z"/>
	<polygon fill="none" points="260.625,104.47 268.351,104.47 264.488,91.215  "/>
	<polygon fill="none" points="343.357,135.723 337.566,153.733 349.046,153.733  "/>
	<path fill="#006A2C" d="M128.834,117.996c0.582-0.215,1.112-0.503,1.588-0.866c0.476-0.363,0.864-0.774,1.164-1.237   c0.299-0.461,0.45-0.939,0.45-1.433c0-0.429-0.142-0.858-0.423-1.287l-10.955-15.677l8.679-10.188   c0.212-0.263,0.352-0.527,0.423-0.792c0.071-0.263,0.106-0.494,0.106-0.692c0-0.494-0.159-0.972-0.476-1.434   c-0.317-0.462-0.714-0.882-1.191-1.261c-0.476-0.379-0.997-0.684-1.561-0.916c-0.565-0.23-1.111-0.345-1.64-0.345   c-0.918,0-1.641,0.363-2.17,1.088l-9.896,13.105V84.192c0-0.824-0.432-1.417-1.296-1.78c-0.865-0.363-1.809-0.544-2.831-0.544   c-1.024,0-1.967,0.181-2.831,0.544c-0.865,0.363-1.297,0.956-1.297,1.78v31.454c0,0.791,0.432,1.385,1.297,1.78   c0.864,0.396,1.807,0.594,2.831,0.594c1.022,0,1.966-0.198,2.831-0.594c0.864-0.395,1.296-0.989,1.296-1.78v-8.951l2.223-2.671   l9.049,12.858c0.352,0.529,0.776,0.899,1.27,1.114c0.494,0.214,1.023,0.321,1.588,0.321   C127.661,118.317,128.252,118.21,128.834,117.996z"/>
	<path fill="#006A2C" d="M138.756,118.02c1.022,0,1.966-0.198,2.831-0.594c0.864-0.395,1.296-0.989,1.296-1.78V84.192   c0-0.824-0.432-1.417-1.296-1.78c-0.865-0.363-1.809-0.544-2.831-0.544c-1.024,0-1.967,0.181-2.831,0.544   c-0.865,0.363-1.297,0.956-1.297,1.78v31.454c0,0.791,0.432,1.385,1.297,1.78C136.79,117.822,137.732,118.02,138.756,118.02z"/>
	<path fill="#006A2C" d="M174.344,82.413c-0.866-0.363-1.809-0.544-2.832-0.544s-1.967,0.181-2.831,0.544   c-0.865,0.363-1.296,0.956-1.296,1.78v16.815l-8.573-15.282c-0.495-0.891-0.953-1.599-1.376-2.127   c-0.424-0.526-0.865-0.915-1.323-1.162c-0.459-0.247-0.953-0.403-1.482-0.47c-0.529-0.065-1.164-0.098-1.905-0.098   c-1.024,0-1.967,0.189-2.831,0.568c-0.865,0.38-1.297,0.981-1.297,1.806v31.404c0,0.791,0.432,1.385,1.297,1.78   c0.864,0.396,1.807,0.594,2.831,0.594c1.023,0,1.967-0.198,2.831-0.594c0.864-0.395,1.297-0.989,1.297-1.78V98.832l10.054,17.112   c0.494,0.857,1.146,1.418,1.958,1.681c0.812,0.264,1.694,0.396,2.646,0.396c1.023,0,1.966-0.198,2.832-0.594   c0.863-0.395,1.296-0.989,1.296-1.78V84.193C175.64,83.369,175.207,82.776,174.344,82.413z"/>
	<path fill="#006A2C" d="M188.314,82.412c-0.865-0.362-1.809-0.544-2.831-0.544c-1.024,0-1.967,0.182-2.831,0.544   c-0.865,0.363-1.297,0.956-1.297,1.78v31.454c0,0.791,0.432,1.385,1.297,1.781c0.864,0.395,1.807,0.593,2.831,0.593   c1.022,0,1.966-0.198,2.831-0.593c0.864-0.396,1.296-0.99,1.296-1.781v-13.402h10.531v13.402c0,0.791,0.432,1.385,1.296,1.781   c0.865,0.395,1.808,0.593,2.831,0.593s1.967-0.198,2.832-0.593c0.864-0.396,1.296-0.99,1.296-1.781V84.192   c0-0.824-0.432-1.417-1.296-1.78c-0.865-0.362-1.809-0.544-2.832-0.544s-1.966,0.182-2.831,0.544   c-0.864,0.363-1.296,0.956-1.296,1.78v12.117H189.61V84.192C189.61,83.368,189.178,82.775,188.314,82.412z"/>
	<path fill="#006A2C" d="M244.803,82.733c-0.846-0.576-1.799-0.865-2.857-0.865c-0.741,0-1.395,0.033-1.958,0.099   c-0.565,0.066-1.085,0.231-1.562,0.495c-0.476,0.264-0.943,0.651-1.402,1.162c-0.458,0.511-0.952,1.211-1.481,2.102l-5.451,8.902   l-5.451-8.902c-0.528-0.891-1.023-1.591-1.481-2.102c-0.459-0.511-0.926-0.898-1.402-1.162c-0.477-0.264-0.998-0.429-1.562-0.495   c-0.564-0.066-1.217-0.099-1.958-0.099c-0.529,0-1.041,0.067-1.534,0.197c-0.495,0.133-0.935,0.356-1.323,0.668   c-0.389,0.314-0.697,0.717-0.926,1.212c-0.23,0.495-0.344,1.088-0.344,1.781v29.921c0,0.791,0.431,1.384,1.296,1.78   c0.864,0.395,1.808,0.594,2.831,0.594s1.967-0.199,2.832-0.594c0.863-0.396,1.296-0.989,1.296-1.78V96.606l5.027,8.605   c0.318,0.562,0.705,0.94,1.164,1.138c0.458,0.198,0.935,0.297,1.429,0.297c0.494,0,0.987-0.099,1.482-0.297   c0.494-0.198,0.917-0.576,1.27-1.138l5.08-8.11v18.546c0,0.791,0.432,1.384,1.296,1.78c0.865,0.395,1.808,0.594,2.832,0.594   c1.022,0,1.966-0.199,2.831-0.594c0.864-0.396,1.296-0.989,1.296-1.78V85.726C246.073,84.309,245.65,83.311,244.803,82.733z"/>
	<path fill="#006A2C" d="M269.886,84.143c-0.283-0.857-0.945-1.5-1.985-1.929c-1.041-0.428-2.178-0.642-3.413-0.642   s-2.373,0.214-3.413,0.642c-1.041,0.429-1.703,1.072-1.985,1.929l-9.843,30.169c-0.07,0.263-0.105,0.445-0.105,0.544   c0,0.462,0.167,0.882,0.502,1.26c0.335,0.38,0.768,0.71,1.297,0.99c0.529,0.28,1.102,0.503,1.72,0.668   c0.617,0.165,1.208,0.247,1.773,0.247c0.669,0,1.243-0.107,1.719-0.322c0.477-0.213,0.802-0.584,0.979-1.113l1.8-6.181h11.166   l1.798,6.181c0.177,0.529,0.503,0.9,0.979,1.113c0.477,0.215,1.05,0.322,1.721,0.322c0.564,0,1.154-0.082,1.773-0.247   c0.617-0.165,1.19-0.388,1.719-0.668c0.53-0.28,0.961-0.61,1.297-0.99c0.335-0.378,0.502-0.798,0.502-1.26   c0-0.099-0.035-0.281-0.105-0.544L269.886,84.143z M260.625,104.47l3.863-13.255l3.863,13.255H260.625z"/>
	<path fill="#006A2C" d="M319.099,106.645V93.54c0-2.11-0.335-3.907-1.005-5.392c-0.671-1.483-1.588-2.695-2.752-3.634   c-1.164-0.94-2.54-1.616-4.128-2.028c-1.587-0.412-3.299-0.618-5.133-0.618c-1.835,0-3.537,0.206-5.106,0.618   c-1.57,0.412-2.938,1.088-4.102,2.028c-1.164,0.939-2.082,2.151-2.752,3.634c-0.67,1.485-1.005,3.282-1.005,5.392v13.105   c0,2.144,0.335,3.95,1.005,5.416c0.67,1.467,1.588,2.67,2.752,3.61s2.532,1.616,4.102,2.028c1.569,0.412,3.271,0.618,5.106,0.618   c1.834,0,3.546-0.206,5.133-0.618c1.588-0.412,2.964-1.088,4.128-2.028s2.081-2.143,2.752-3.61   C318.764,110.595,319.099,108.789,319.099,106.645z M310.844,106.645c0,1.715-0.424,2.968-1.271,3.759   c-0.846,0.791-2.01,1.187-3.492,1.187c-1.481,0-2.637-0.396-3.466-1.187c-0.83-0.791-1.244-2.044-1.244-3.759V93.54   c0-1.715,0.414-2.968,1.244-3.759c0.829-0.792,1.985-1.187,3.466-1.187c1.482,0,2.646,0.395,3.492,1.187   c0.847,0.791,1.271,2.044,1.271,3.759V106.645z"/>
	<path fill="#006A2C" d="M331.35,82.413c-0.865-0.363-1.809-0.544-2.831-0.544c-1.024,0-1.968,0.181-2.831,0.544   c-0.865,0.363-1.297,0.956-1.297,1.78v31.454c0,0.791,0.432,1.385,1.297,1.78c0.863,0.396,1.807,0.594,2.831,0.594   c1.022,0,1.966-0.198,2.831-0.594c0.863-0.395,1.296-0.989,1.296-1.78V84.192C332.646,83.369,332.213,82.775,331.35,82.413z"/>
	<path fill="#006A2C" d="M345.32,82.413c-0.864-0.363-1.809-0.544-2.831-0.544c-1.024,0-1.967,0.181-2.831,0.544   c-0.865,0.363-1.297,0.956-1.297,1.78v31.454c0,0.791,0.432,1.385,1.297,1.78c0.864,0.396,1.807,0.594,2.831,0.594   c1.022,0,1.967-0.198,2.831-0.594c0.864-0.395,1.297-0.989,1.297-1.78v-8.951l2.223-2.671l9.048,12.858   c0.353,0.529,0.776,0.899,1.27,1.114c0.494,0.214,1.023,0.321,1.588,0.321c0.599,0,1.19-0.107,1.772-0.321   c0.582-0.215,1.112-0.503,1.588-0.866c0.476-0.363,0.864-0.774,1.164-1.237c0.299-0.461,0.45-0.939,0.45-1.433   c0-0.429-0.141-0.858-0.423-1.287l-10.955-15.677l8.679-10.188c0.212-0.263,0.353-0.527,0.423-0.792   c0.07-0.263,0.106-0.494,0.106-0.692c0-0.494-0.159-0.972-0.476-1.434c-0.317-0.462-0.714-0.882-1.191-1.261   c-0.476-0.379-0.997-0.684-1.56-0.916c-0.566-0.23-1.111-0.345-1.641-0.345c-0.918,0-1.64,0.363-2.17,1.088l-9.895,13.105V84.192   C346.617,83.369,346.184,82.775,345.32,82.413z"/>
	<path fill="#006A2C" d="M393.872,93.54c0-2.11-0.336-3.907-1.005-5.392c-0.671-1.483-1.588-2.695-2.752-3.634   c-1.164-0.94-2.54-1.616-4.128-2.028s-3.299-0.618-5.133-0.618c-1.835,0-3.537,0.206-5.106,0.618   c-1.57,0.412-2.938,1.088-4.102,2.028c-1.164,0.939-2.082,2.151-2.752,3.634c-0.67,1.485-1.005,3.282-1.005,5.392v13.105   c0,2.144,0.335,3.95,1.005,5.416c0.67,1.467,1.588,2.67,2.752,3.61s2.532,1.616,4.102,2.028c1.569,0.412,3.271,0.618,5.106,0.618   c1.834,0,3.545-0.206,5.133-0.618s2.964-1.088,4.128-2.028s2.081-2.143,2.752-3.61c0.669-1.466,1.005-3.272,1.005-5.416V93.54z    M385.617,106.645c0,1.715-0.424,2.968-1.271,3.759c-0.846,0.791-2.01,1.187-3.492,1.187c-1.481,0-2.637-0.396-3.466-1.187   c-0.83-0.791-1.244-2.044-1.244-3.759V93.54c0-1.715,0.414-2.968,1.244-3.759c0.829-0.792,1.985-1.187,3.466-1.187   c1.482,0,2.646,0.395,3.492,1.187c0.847,0.791,1.271,2.044,1.271,3.759V106.645z"/>
	<path fill="#006A2C" d="M417.314,84.44c-0.283-0.856-0.944-1.5-1.984-1.929c-1.041-0.427-2.179-0.642-3.414-0.642   c-1.235,0-2.373,0.215-3.414,0.642c-1.041,0.429-1.702,1.073-1.984,1.929l-9.896,30.169c-0.071,0.264-0.105,0.444-0.105,0.544   c0,0.462,0.167,0.882,0.503,1.261c0.334,0.38,0.767,0.71,1.296,0.989c0.529,0.28,1.102,0.503,1.72,0.668   c0.617,0.164,1.208,0.247,1.773,0.247c0.669,0,1.243-0.107,1.72-0.321c0.475-0.215,0.801-0.585,0.978-1.114l7.409-25.371   l7.356,25.371c0.176,0.529,0.502,0.899,0.978,1.114c0.477,0.214,1.05,0.321,1.72,0.321c0.565,0,1.155-0.083,1.774-0.247   c0.616-0.165,1.19-0.388,1.719-0.668c0.53-0.279,0.961-0.609,1.296-0.989c0.335-0.379,0.503-0.799,0.503-1.261   c0-0.1-0.035-0.28-0.105-0.544L417.314,84.44z"/>
	<path fill="#006A2C" d="M433.664,115.671c1.164,0.94,2.532,1.616,4.102,2.028c1.569,0.412,3.271,0.618,5.106,0.618   c1.834,0,3.545-0.206,5.133-0.618c1.588-0.412,2.964-1.088,4.128-2.028s2.081-2.143,2.752-3.61   c0.669-1.466,1.005-3.272,1.005-5.416V93.54c0-2.11-0.336-3.907-1.005-5.392c-0.671-1.483-1.588-2.695-2.752-3.634   c-1.164-0.94-2.54-1.616-4.128-2.028c-1.588-0.412-3.299-0.618-5.133-0.618c-1.835,0-3.537,0.206-5.106,0.618   c-1.57,0.412-2.938,1.088-4.102,2.028c-1.164,0.939-2.082,2.151-2.752,3.634c-0.67,1.485-1.005,3.282-1.005,5.392v13.105   c0,2.144,0.335,3.95,1.005,5.416C431.582,113.528,432.5,114.731,433.664,115.671z M438.162,93.54c0-1.715,0.414-2.968,1.244-3.759   c0.829-0.792,1.985-1.187,3.466-1.187c1.482,0,2.646,0.395,3.492,1.187c0.847,0.791,1.271,2.044,1.271,3.759v13.105   c0,1.715-0.424,2.968-1.271,3.759c-0.846,0.791-2.01,1.187-3.492,1.187c-1.481,0-2.637-0.396-3.466-1.187   c-0.83-0.791-1.244-2.044-1.244-3.759V93.54z"/>
	<path fill="#006A2C" d="M483.142,81.868H464.78c-0.918,0-1.746,0.197-2.488,0.594c-0.741,0.395-1.111,0.988-1.111,1.78v31.404   c0,0.791,0.432,1.385,1.297,1.781c0.864,0.395,1.807,0.593,2.831,0.593c1.022,0,1.966-0.198,2.831-0.593   c0.864-0.396,1.297-0.99,1.297-1.781V88.594h13.705c0.811,0,1.429-0.338,1.852-1.014c0.423-0.676,0.635-1.476,0.635-2.399   c0-0.791-0.194-1.541-0.582-2.25S484.024,81.868,483.142,81.868z"/>
	<path fill="#006A2C" d="M489.915,111.295c-0.67,0-1.252,0.307-1.746,0.922c-0.494,0.614-0.74,1.42-0.74,2.416   c0,0.964,0.228,1.768,0.687,2.416c0.458,0.647,1.059,0.972,1.799,0.972h9.632V104.42c-1.094,0-1.905-0.428-2.434-1.286   c-0.53-0.857-0.794-1.994-0.794-3.412V93.54c0-1.715,0.414-2.968,1.244-3.759c0.828-0.792,1.984-1.187,3.466-1.187   c1.481,0,2.636,0.395,3.465,1.187c0.829,0.791,1.245,2.044,1.245,3.759v6.182c0,2.704-1.078,4.27-3.229,4.698v13.601h9.632   c0.74,0,1.34-0.325,1.799-0.972c0.458-0.648,0.687-1.452,0.687-2.416c0-0.996-0.247-1.802-0.74-2.416   c-0.495-0.615-1.077-0.922-1.746-0.922h-5.134v-0.593c2.046-0.659,3.722-1.885,5.027-3.678c1.305-1.794,1.958-4.238,1.958-7.333   v-6.17c0-2.107-0.336-3.901-1.004-5.382c-0.671-1.482-1.588-2.692-2.752-3.63c-1.165-0.938-2.533-1.612-4.102-2.024   c-1.57-0.411-3.272-0.617-5.106-0.617c-1.835,0-3.538,0.206-5.107,0.617c-1.57,0.412-2.937,1.086-4.101,2.024   c-1.165,0.938-2.082,2.148-2.752,3.63c-0.67,1.481-1.005,3.275-1.005,5.382v6.17c0,3.128,0.634,5.572,1.905,7.333   c1.27,1.761,2.963,2.987,5.08,3.678v0.593H489.915z"/>
	<path fill="#006A2C" d="M545.083,82.413c-0.865-0.363-1.809-0.544-2.831-0.544c-1.024,0-1.968,0.181-2.831,0.544   c-0.865,0.363-1.297,0.956-1.297,1.78v16.815l-8.572-15.282c-0.495-0.891-0.953-1.599-1.376-2.127   c-0.424-0.526-0.865-0.915-1.323-1.162c-0.459-0.247-0.953-0.403-1.482-0.47c-0.529-0.065-1.165-0.098-1.905-0.098   c-1.024,0-1.967,0.189-2.831,0.568c-0.865,0.38-1.297,0.981-1.297,1.806v31.404c0,0.791,0.432,1.385,1.297,1.78   c0.864,0.396,1.807,0.594,2.831,0.594c1.022,0,1.966-0.198,2.831-0.594c0.864-0.395,1.297-0.989,1.297-1.78V98.832l10.054,17.112   c0.494,0.857,1.146,1.418,1.958,1.681c0.811,0.264,1.693,0.396,2.646,0.396c1.022,0,1.966-0.198,2.831-0.594   c0.864-0.395,1.296-0.989,1.296-1.78V84.193C546.379,83.369,545.947,82.776,545.083,82.413z"/>
	<path fill="#005EAD" d="M103.257,162.403c-0.257,0.479-0.411,1.006-0.411,1.389c0,0.766,0.513,1.293,1.487,1.293h20.245   c0.975,0,1.538-0.958,1.538-1.82s-0.563-1.82-1.538-1.82h-16.196l7.33-12.645c0,0,0.666-1.197,0.666-1.868   c0-0.718-0.871-2.251-0.871-2.251l-6.356-10.969h14.761c0.974,0,1.487-0.862,1.487-1.819c0-0.91-0.462-1.82-1.487-1.82h-18.861   c-0.974,0-1.487,0.478-1.487,1.197c0,0.478,0.205,1.006,0.513,1.532l7.021,12.07c0,0,0.667,1.293,0.667,2.06   c0,0.719-0.564,1.868-0.564,1.868L103.257,162.403z"/>
	<path fill="#005EAD" d="M132.161,131.126c-0.41-0.719-0.82-1.054-1.538-1.054c-1.076,0-2.563,0.67-2.563,1.676   c0,0.192,0.052,0.479,0.205,0.814l10.61,18.489c0.103,0.143,0.154,0.288,0.154,0.479v12.118c0,0.958,1.076,1.437,2.152,1.437   c1.077,0,2.153-0.479,2.153-1.437V151.53c0-0.191,0-0.336,0.103-0.479l10.61-18.489c0.153-0.335,0.204-0.622,0.204-0.814   c0-1.006-1.435-1.676-2.562-1.676c-0.667,0-1.128,0.335-1.538,1.054l-8.97,16.428L132.161,131.126z"/>
	<path fill="#005EAD" d="M160.912,130.073c-1.127,0-2.152,0.382-2.152,1.388v32.188c0,0.958,1.076,1.436,2.152,1.436   c1.077,0,2.153-0.478,2.153-1.436v-24.476l13.326,24.092c0.615,1.054,1.538,1.82,2.716,1.82c1.077,0,2.153-0.478,2.153-1.436   v-32.188c0-0.958-1.076-1.388-2.153-1.388c-1.076,0-2.152,0.43-2.152,1.388v24.476l-12.763-23.326   C163.27,130.935,162.45,130.073,160.912,130.073z"/>
	<path fill="#005EAD" d="M208.729,133.712c0.923,0,1.486-0.862,1.486-1.868c0-0.862-0.461-1.772-1.486-1.772h-18.246   c-0.975,0-1.948,0.479-1.948,1.437v32.14c0,0.958,0.973,1.436,1.948,1.436h18.246c1.025,0,1.486-0.91,1.486-1.772   c0-1.006-0.563-1.869-1.486-1.869H192.84v-12.213h7.996c1.025,0,1.486-0.862,1.486-1.628c0-0.911-0.564-1.725-1.486-1.725h-7.996   v-12.166H208.729z"/>
	<path fill="#005EAD" d="M216.619,130.072c-1.076,0-1.742,0.67-1.742,1.389v32.188c0,0.958,1.076,1.436,2.152,1.436   c1.077,0,2.153-0.478,2.153-1.436v-12.407h6.919c6.202,0,11.071-2.873,11.071-10.393v-0.431c0-7.568-4.818-10.346-10.865-10.346   H216.619z M232.867,140.514v0.575c0,4.598-2.563,6.801-6.766,6.801h-6.919v-14.178h6.919   C230.304,133.712,232.867,135.867,232.867,140.514z"/>
	<path fill="#005EAD" d="M242.294,131.509v32.188c0,0.958,1.076,1.388,2.152,1.388c1.077,0,2.153-0.43,2.153-1.388v-29.985h15.684   c0.974,0,1.487-0.862,1.487-1.868c0-0.861-0.462-1.772-1.487-1.772h-18.041C243.268,130.072,242.294,130.551,242.294,131.509z"/>
	<path fill="#005EAD" d="M275.556,131.173l-10.457,31.852c-0.051,0.144-0.102,0.239-0.102,0.383c0,1.006,1.487,1.677,2.614,1.677   c0.769,0,1.384-0.288,1.589-0.911l2.255-7.136h13.48l2.255,7.136c0.205,0.623,0.821,0.911,1.538,0.911   c1.23,0,2.665-0.767,2.665-1.725c0-0.096-0.051-0.191-0.051-0.335l-10.455-31.852c-0.308-0.91-1.487-1.389-2.666-1.389   S275.863,130.215,275.556,131.173z M283.91,153.733h-11.481l5.792-18.01L283.91,153.733z"/>
	<path fill="#005EAD" d="M293.748,162.403c-0.257,0.479-0.411,1.006-0.411,1.389c0,0.766,0.513,1.293,1.487,1.293h20.245   c0.975,0,1.538-0.958,1.538-1.82s-0.563-1.82-1.538-1.82h-16.196l7.33-12.645c0,0,0.666-1.197,0.666-1.868   c0-0.718-0.871-2.251-0.871-2.251l-6.356-10.969h14.761c0.974,0,1.486-0.862,1.486-1.819c0-0.91-0.461-1.82-1.486-1.82h-18.861   c-0.974,0-1.487,0.478-1.487,1.197c0,0.478,0.205,1.006,0.513,1.532l7.021,12.07c0,0,0.666,1.293,0.666,2.06   c0,0.719-0.563,1.868-0.563,1.868L293.748,162.403z"/>
	<path fill="#005EAD" d="M321.32,131.461v32.188c0,0.958,1.076,1.436,2.152,1.436c1.077,0,2.153-0.478,2.153-1.436v-32.188   c0-0.958-1.076-1.389-2.153-1.389C322.396,130.072,321.32,130.503,321.32,131.461z"/>
	<path fill="#005EAD" d="M330.133,163.408c0,1.006,1.487,1.677,2.614,1.677c0.769,0,1.384-0.288,1.589-0.911l2.256-7.136h13.479   l2.255,7.136c0.205,0.623,0.821,0.911,1.538,0.911c1.23,0,2.665-0.767,2.665-1.725c0-0.096-0.051-0.191-0.051-0.335l-10.455-31.852   c-0.308-0.91-1.487-1.389-2.666-1.389c-1.179,0-2.358,0.431-2.665,1.389l-10.457,31.852   C330.185,163.169,330.133,163.264,330.133,163.408z M343.357,135.723l5.689,18.01h-11.48L343.357,135.723z"/>
	<path fill="#005EAD" d="M391.276,165.085c1.076,0,2.152-0.431,2.152-1.389v-32.187c0-0.958-0.973-1.437-1.947-1.437h-18.195   c-0.974,0-1.949,0.479-1.949,1.437v32.187c0,0.958,1.078,1.389,2.154,1.389c1.076,0,2.152-0.431,2.152-1.389v-29.984h13.48v29.984   C389.123,164.654,390.2,165.085,391.276,165.085z"/>
	<path fill="#005EAD" d="M411.363,130.073c-6.201,0-11.019,2.825-11.019,10.441v14.417c0,7.616,4.818,10.441,11.019,10.441   c6.203,0,11.072-2.825,11.072-10.441v-14.417C422.435,132.898,417.566,130.073,411.363,130.073z M418.129,154.931   c0,4.646-2.563,6.802-6.766,6.802s-6.713-2.156-6.713-6.802v-14.417c0-4.646,2.51-6.802,6.713-6.802s6.766,2.156,6.766,6.802   V154.931z"/>
	<path fill="#005EAD" d="M426.583,163.696c0,1.006,1.486,1.676,2.614,1.676c0.768,0,1.384-0.287,1.589-0.91l9.02-28.45l8.97,28.45   c0.256,0.623,0.82,0.91,1.538,0.91c1.23,0,2.665-0.765,2.665-1.723c0-0.097-0.052-0.193-0.052-0.336l-10.404-31.852   c-0.359-0.91-1.486-1.389-2.717-1.389c-1.178,0-2.306,0.431-2.613,1.389l-10.508,31.852   C426.634,163.456,426.583,163.552,426.583,163.696z"/>
	<path fill="#005EAD" d="M457.486,131.461v32.188c0,0.958,1.077,1.436,2.153,1.436s2.153-0.478,2.153-1.436v-32.188   c0-0.958-1.077-1.389-2.153-1.389S457.486,130.503,457.486,131.461z"/>
	<path fill="#005EAD" d="M466.096,131.892c0,1.005,0.564,1.915,1.538,1.915h8.302v29.841c0,0.958,1.077,1.437,2.154,1.437   c1.076,0,2.152-0.479,2.152-1.437v-29.841h8.252c1.025,0,1.537-0.958,1.537-1.915c0-0.91-0.512-1.82-1.537-1.82h-20.86   C466.608,130.072,466.096,131.03,466.096,131.892z"/>
	<path fill="#005EAD" d="M516.014,150.285v-9.771c0-7.616-4.819-10.441-11.02-10.441c-6.202,0-11.019,2.825-11.019,10.441v9.771   c0,5.556,2.46,8.622,6.15,9.819v1.389h-5.279c-0.77,0-1.487,0.718-1.487,1.772c0,1.006,0.616,1.82,1.487,1.82h8.097v-8.238   c-3.075-0.431-4.664-2.683-4.664-6.562v-9.771c0-4.646,2.512-6.802,6.715-6.802c4.202,0,6.714,2.156,6.714,6.802v9.771   c0,3.832-1.589,5.939-4.664,6.562v8.238h8.099c0.871,0,1.486-0.814,1.486-1.82c0-1.054-0.718-1.772-1.486-1.772h-5.28v-1.389   C513.451,158.907,516.014,155.841,516.014,150.285z"/>
	<path fill="#005EAD" d="M527.133,163.649v-24.476l13.326,24.092c0.615,1.054,1.538,1.82,2.717,1.82   c1.076,0,2.152-0.478,2.152-1.436v-32.188c0-0.958-1.076-1.388-2.152-1.388s-2.154,0.43-2.154,1.388v24.476l-12.761-23.326   c-0.923-1.676-1.743-2.538-3.281-2.538c-1.127,0-2.153,0.382-2.153,1.388v32.188c0,0.958,1.077,1.436,2.153,1.436   C526.057,165.085,527.133,164.607,527.133,163.649z"/>
	<path d="M60.488,71.515c-1.119,8.049,4.498,15.481,12.547,16.6c8.049,1.119,15.481-4.498,16.6-12.547   c1.119-8.049-4.499-15.481-12.547-16.6C69.039,57.848,61.607,63.465,60.488,71.515z"/>
	<path fill="#006A2C" d="M74.253,126.009c6.595,10.805,17.763,16.409,17.763,16.409c16.597-33.467-18.473-48.851-18.473-48.851   S81.118,110.434,74.253,126.009z"/>
	<path fill="#FED327" d="M56.532,143.504c9.485-4.729,14.858-11,17.721-17.495c6.865-15.575-0.71-32.442-0.71-32.442   c-7.037,3.452-12.111,7.245-15.706,11.15c-0.749,5.686-2.904,11.692-7.709,16.871C49.163,133.666,56.532,143.504,56.532,143.504z"/>
	<path fill="#006A2C" d="M33.085,107.241c-2.891,12.324,1.128,24.156,1.128,24.156c7.165-2.47,12.292-5.904,15.915-9.808   c4.805-5.179,6.96-11.185,7.709-16.871c1.469-11.156-2.48-21.076-2.48-21.076S48.908,100.971,33.085,107.241z"/>
	<path fill="#FED327" d="M17.825,88.239c-8.127,7.901-9.641,19.017-9.641,19.017c10.074,3.293,18.302,2.6,24.901-0.015   c15.824-6.27,22.272-23.599,22.272-23.599c-6.571-2.194-12.24-3.126-17.128-3.137C33.154,84.796,26.363,88.332,17.825,88.239z"/>
	<path fill="#006A2C" d="M17.177,66.007C6.254,72.405,0.449,83.469,0.449,83.469c6.436,3.339,12.223,4.713,17.376,4.769   c8.538,0.093,15.329-3.443,20.403-7.733c7.641-6.461,11.398-14.62,11.398-14.62S32.624,73.154,17.177,66.007z"/>
	<path fill="#FED327" d="M0.007,47.972c4.556,9.569,10.728,15.054,17.17,18.035c15.447,7.147,32.449-0.122,32.449-0.122   c-2.603-5.558-5.436-9.915-8.385-13.307c-6.233-1.282-12.858-4.24-17.965-10.461C10.669,40.284,0.007,47.972,0.007,47.972z"/>
	<path fill="#006A2C" d="M41.241,52.579c10.038,2.065,19.054-0.215,19.054-0.215s-16.338-8.658-20.486-25.165   c-11.84-4.476-24.096-2.039-24.096-2.039c1.501,7.366,4.204,12.866,7.562,16.957C28.383,48.339,35.008,51.296,41.241,52.579z"/>
	<path fill="#FED327" d="M60.295,52.364c3.147-6.459,4.814-12.13,5.41-17.105c-2.442-4.945-3.938-10.853-3.024-17.529   C56.343,6.139,43.048,2.509,43.048,2.509c-4.581,9.557-4.969,17.805-3.239,24.69C43.957,43.706,60.295,52.364,60.295,52.364z"/>
	<path fill="#006A2C" d="M65.705,35.259c5.129,10.384,14.44,16.51,14.44,16.51S75.5,33.872,84.876,19.666   C80.183,7.91,70.111,0.516,70.111,0.516c-4.472,6.152-6.707,11.923-7.43,17.214C61.767,24.406,63.262,30.314,65.705,35.259z"/>
	<path fill="#FED327" d="M80.145,51.769c6.799-2.013,12.06-4.571,16.111-7.444c1.974-5.685,5.456-11.605,11.562-15.864   c3.204-11.895-2.543-23.075-2.543-23.075c-10.143,3.074-16.489,8.356-20.4,14.281C75.5,33.872,80.145,51.769,80.145,51.769z"/>
	<path fill="#006A2C" d="M96.256,44.325c-3.177,9.15-2.446,17.687-2.446,17.687s11.178-14.717,28.131-16.149   c6.333-10.962,5.919-23.451,5.919-23.451c-8.703,0.337-15.197,2.67-20.041,6.049C101.712,32.72,98.23,38.64,96.256,44.325z"/>
	<path fill="#FED327" d="M93.81,62.012c36.195,25.603,51.986-8.964,51.986-8.964c-8.697-6.069-16.779-7.783-23.855-7.185   C104.987,47.296,93.81,62.012,93.81,62.012z"/>
</g>
</svg>