<?xml version="1.0" encoding="UTF-8" standalone="no"?>
<!-- Generator: Adobe Illustrator 23.0.2, SVG Export Plug-In . SVG Version: 6.00 Build 0)  -->

<svg
   version="1.1"
   id="Layer_1"
   x="0px"
   y="0px"
   viewBox="0 0 181.3 189.04666"
   xml:space="preserve"
   sodipodi:docname="disyv2.svg"
   width="181.3"
   height="189.04666"
   inkscape:version="1.2.1 (9c6d41e410, 2022-07-14)"
   xmlns:inkscape="http://www.inkscape.org/namespaces/inkscape"
   xmlns:sodipodi="http://sodipodi.sourceforge.net/DTD/sodipodi-0.dtd"
   xmlns="http://www.w3.org/2000/svg"
   xmlns:svg="http://www.w3.org/2000/svg"><defs
   id="defs358" /><sodipodi:namedview
   id="namedview356"
   pagecolor="#ffffff"
   bordercolor="#000000"
   borderopacity="0.25"
   inkscape:showpageshadow="2"
   inkscape:pageopacity="0.0"
   inkscape:pagecheckerboard="0"
   inkscape:deskcolor="#d1d1d1"
   showgrid="false"
   inkscape:zoom="2.2964286"
   inkscape:cx="22.208398"
   inkscape:cy="118.22706"
   inkscape:window-width="1920"
   inkscape:window-height="1001"
   inkscape:window-x="-9"
   inkscape:window-y="-9"
   inkscape:window-maximized="1"
   inkscape:current-layer="g353" />
<style
   type="text/css"
   id="style187">
	.st0{fill:#F9A51A;}
	.st1{fill-rule:evenodd;clip-rule:evenodd;fill:#034693;}
	.st2{fill:#034693;}
</style>
<g
   id="g353"
   transform="translate(-66.550622,41.339502)">
	<g
   id="g351"
   transform="translate(108.8647,-42.239502)">
		<g
   id="g213">
			<polygon
   class="st0"
   points="81.4,122.7 76.8,122.4 81.2,121.4 81.2,119.3 84,120.8 88.4,119.9 85.7,121.7 88.5,123.2 84.2,122.9 81.5,124.7 "
   id="polygon189" />
			<polygon
   class="st0"
   points="70.1,116.3 65.4,115.9 70,115.1 70,112.9 72.8,114.5 77.6,113.5 74.7,115.3 77.6,116.8 73,116.4 70.2,118.4 "
   id="polygon191" />
			<polygon
   class="st0"
   points="51.9,113.6 47,113.3 51.7,112.4 51.6,110.3 54.6,111.8 59.5,110.8 56.6,112.7 59.7,114.1 55,113.8 52.1,115.7 "
   id="polygon193" />
			<polygon
   class="st0"
   points="30.7,115.4 25.5,115.1 30.4,114.1 30,112 33.3,113.5 38.3,112.5 35.4,114.4 38.7,115.9 33.8,115.6 31,117.4 "
   id="polygon195" />
			<polygon
   class="st0"
   points="13.9,121.1 8.7,120.7 13.5,119.8 13,117.8 16.4,119.2 21.3,118.3 18.6,120.2 22.1,121.6 17.1,121.3 14.4,123.1 "
   id="polygon197" />
			<polygon
   class="st0"
   points="6.4,129.2 1.2,128.9 5.9,128 5.2,125.9 8.7,127.4 13.4,126.4 10.9,128.3 14.5,129.8 9.5,129.4 7.1,131.3 "
   id="polygon199" />
			<polygon
   class="st0"
   points="10.8,137.7 5.8,137.4 10.2,136.4 9.4,134.4 12.9,135.8 17.5,134.9 15.1,136.7 18.7,138.2 13.8,137.9 11.6,139.7 "
   id="polygon201" />
			<polygon
   class="st0"
   points="24.9,144.2 20.1,143.9 24.3,143 23.5,140.9 26.9,142.4 31.2,141.4 29.1,143.3 32.5,144.7 27.9,144.4 25.8,146.3 "
   id="polygon203" />
			<polygon
   class="st0"
   points="43.6,147 38.9,146.7 43,145.8 42.2,143.6 45.5,145.2 49.7,144.2 47.6,146 50.8,147.5 46.4,147.2 44.3,149.1 "
   id="polygon205" />
			<polygon
   class="st0"
   points="62,145.2 57.5,144.8 61.6,144 61,141.9 64,143.3 68.2,142.4 66,144.2 69,145.7 64.7,145.3 62.6,147.2 "
   id="polygon207" />
			<polygon
   class="st0"
   points="76.2,139.4 71.8,139.1 75.9,138.1 75.6,136.1 78.4,137.5 82.6,136.6 80.2,138.5 83.1,139.9 79,139.6 76.6,141.4 "
   id="polygon209" />
			<polygon
   class="st0"
   points="83.5,131.1 79.1,130.7 83.4,129.8 83.2,127.8 85.9,129.2 90.3,128.3 87.7,130.1 90.5,131.6 86.2,131.3 83.8,133.1 "
   id="polygon211" />
		</g>
		<g
   id="g291"
   style="display:inline">
			<g
   id="g253">
				<g
   id="g251">
					<path
   class="st1"
   d="m 12.2,46.6 c 0.3,1.5 2.7,4.8 5.3,6.6 -0.8,-3.1 -2.6,-4.2 -5.3,-6.6 z"
   id="path215" />
					<path
   class="st1"
   d="m 13.5,50.6 c 0.3,1.5 2.7,4.8 5.3,6.6 C 18,54.1 16.2,53 13.5,50.6 Z"
   id="path217" />
					<path
   class="st1"
   d="m 14.9,54.5 c 0.3,1.5 2.7,4.8 5.3,6.6 -0.8,-3.1 -2.6,-4.2 -5.3,-6.6 z"
   id="path219" />
					<path
   class="st1"
   d="m 11,42.7 c 0.3,1.5 2.7,4.8 5.3,6.6 -0.8,-3.2 -2.6,-4.2 -5.3,-6.6 z"
   id="path221" />
					<path
   class="st1"
   d="m 9.2,39 c 0.5,1.5 3.1,4.6 5.9,6.2 C 14,42.1 12.1,41.1 9.2,39 Z"
   id="path223" />
					<path
   class="st1"
   d="m 12.6,40.8 c -0.8,-2.6 -2.5,-3.4 -4.9,-5.2 0.5,1.3 2.7,3.9 4.9,5.2 z"
   id="path225" />
					<path
   class="st1"
   d="M 11,36.8 C 10.2,34.2 8.5,33.4 6.1,31.6 6.5,32.8 8.7,35.4 11,36.8 Z"
   id="path227" />
					<path
   class="st1"
   d="m 21.6,65.1 c -1,-3.1 -2.9,-4 -5.9,-6.2 0.7,1.6 3.3,4.7 5.9,6.2 z"
   id="path229" />
					<path
   class="st1"
   d="m 24.1,54.1 c -1.4,2.8 -1.8,6.9 -1.4,8.4 1.2,-3.5 2.2,-5.3 1.4,-8.4 z"
   id="path231" />
					<path
   class="st1"
   d="m 21.5,58.5 c 1,-3.5 2,-5.3 0.9,-8.4 -1.1,2.8 -1.4,6.9 -0.9,8.4 z"
   id="path233" />
					<path
   class="st1"
   d="m 20.4,54.2 c 1,-3.5 2,-5.3 0.9,-8.4 -1.3,2.8 -1.4,6.9 -0.9,8.4 z"
   id="path235" />
					<path
   class="st1"
   d="m 19.3,42.3 c -0.9,3 -0.7,7 0,8.5 0.6,-3.7 1.3,-5.6 0,-8.5 z"
   id="path237" />
					<path
   class="st1"
   d="m 17.1,38.5 c -0.5,2.7 0,6.3 0.8,7.5 0.1,-3.3 0.6,-5 -0.8,-7.5 z"
   id="path239" />
					<path
   class="st1"
   d="m 16.1,42.1 c -0.2,-3.2 0.1,-5 -1.6,-7.3 -0.2,2.8 0.8,6.2 1.6,7.3 z"
   id="path241" />
					<path
   class="st1"
   d="m 14.2,37.9 c -0.6,-2.8 -0.6,-4.4 -2.5,-6.2 0.2,2.5 1.5,5.4 2.5,6.2 z"
   id="path243" />
					<path
   class="st1"
   d="M 11.1,34.1 C 9.9,31.9 9.4,30.5 7.5,29.5 c 0.8,2 2.7,4.1 3.6,4.6 z"
   id="path245" />
					<path
   class="st1"
   d="M 15.2,98.4 C 19.9,95.2 3,84.2 12.7,79.6 c 7.2,-3.4 -1,-12 6.3,-14.5 -9.9,2.4 0.9,10 -7.8,14.2 -9.7,4.7 7.3,15.5 2.6,18.7 -5.8,4 -2.8,10.6 11.1,10.2 -9.3,-0.5 -15,-6.1 -9.7,-9.8 z"
   id="path247" />
					<path
   class="st1"
   d="M 32.6,73.2 Z"
   id="path249" />
				</g>
			</g>
			<path
   class="st2"
   d="m 58.2,45.7 c -0.2,0 4.8,1 10,-0.6 0,0.1 1.4,-0.2 2.4,0 0.9,0.3 1.1,-0.3 1.2,-0.7 0.1,0 4.4,-1.5 6.7,-3.5 2.3,-2 5.5,-5.9 5.9,-6.3 0.4,-0.3 2.3,-1.8 2.3,-1.8 0,0 -0.8,0.3 -2.2,1.4 -1.4,1.2 -5.6,5.7 -7.5,7 -1.9,1.3 -4.9,2.7 -5.3,2.9 -0.1,0 -0.3,0.1 -0.3,0.1 0,0 0,1 -1.4,0.5 0,0 -2.2,0 -2.6,0.1 -0.2,0.1 -2.2,1.1 -9.2,0.9 z"
   id="path255" />
			<path
   class="st2"
   d="m 44.3,77.1 c 0,0 -0.6,10.9 -0.3,13.2 0.3,2.4 0.8,9.7 2.6,12.3 0.2,0.3 -3.2,-6.7 -2,-25.4 z"
   id="path257" />
			<path
   class="st2"
   d="m 52.2,83.4 c 0,0 0.6,7.8 -2.2,18.7 0,-0.1 4.1,-10.7 2.2,-18.7 z"
   id="path259" />
			<g
   id="g267">
				<path
   class="st2"
   d="m 53.2,39.8 c 0.4,-0.6 0.8,-1.4 0.9,-2 0.3,-0.9 0.7,-2.9 0.7,-2.9 0.5,-2.3 2.1,-5.8 4.8,-8.5 2.7,-2.7 13.1,-9.9 13.1,-9.9 2.7,-2 13.6,-12 13.6,-12 0.3,0.1 0.1,1.4 -0.6,2.1 -0.7,0.7 -0.1,0.6 0,0.6 1.3,-0.3 -2.4,4.1 -2.4,4.1 1.8,0.8 -2.4,3.8 -3.1,4.3 -0.7,0.5 -0.1,0.4 0,0.4 2.4,-1.2 -0.5,3.1 -0.5,3.1 C 79,20 73,25.7 72.4,26 c -0.6,0.4 0.3,0.4 0.3,0.4 0,0 0.9,-0.8 1,-0.8 2.7,1 -2.3,5.8 -3.1,6.5 -0.8,0.8 0.4,0.1 0.3,0.1 1.7,0.5 -2.1,4.7 -2.1,4.7 4.7,-3.5 3.3,-5.4 3.3,-5.4 4.7,-3.9 2.5,-6.2 2.5,-6.2 0,0 -0.2,-0.3 3.4,-3.4 4.6,-3.9 4.1,-6.4 4.1,-6.4 3.1,-3 2.3,-4.7 2.3,-4.8 2.5,-1.7 2,-3.9 2,-3.9 1.2,-1.8 0,-3.1 0,-3.1 0,0 -2.4,2.2 -2.4,2.3 -6.8,6.7 -15.9,12.9 -18.6,14.7 -2.7,1.7 -6.4,4.8 -6.4,4.8 -5.3,4.2 -5.6,10.8 -5.7,10.8 -0.2,2 -1.3,3.7 -1.9,4.2 h 1.3"
   id="path261" />
				<path
   class="st2"
   d="m 37,64.8 c 0.1,0 0.1,0 0,0 z"
   id="path263" />
				<path
   class="st2"
   d="M 37.1,64.9 Z"
   id="path265" />
			</g>
			<path
   class="st2"
   d="m 49,39.8 c 0,0 2.1,1.3 4.3,0.6 2.2,-0.7 6.5,-2.6 17.3,-0.4 -0.1,0.1 3.4,-3.8 11.2,-7.5 0.1,-0.1 1.7,-3.8 3.2,-3.9 0,0 0.8,-0.9 2.3,-0.3 0.1,-0.1 0.7,0.2 1.5,0.4 0.8,0.2 1.2,0.4 1.4,0.4 0.3,0.1 0.5,0.3 0.8,0.8 0.3,0.4 0.6,1.5 0.3,1.5 -0.3,-0.1 -0.7,-0.1 -0.9,-0.3 -0.3,-0.3 -0.7,-0.6 -0.7,-0.6 0,0 -0.3,-0.3 0.2,-0.2 0.4,0.1 0.8,0.3 0.8,0.3 l 0.3,0.3 c 0,0 0.2,0.2 0.2,0 0,-0.2 -0.3,-0.9 -0.5,-1.2 -0.3,-0.3 -0.5,-0.4 -1.1,-0.5 -0.6,-0.2 -1.4,-0.3 -2,-0.5 -0.5,-0.2 -1,-0.8 -2.3,0.3 0,0 -0.8,-0.3 -1.3,0.5 -0.5,0.8 -1.2,1.7 -1.4,2 -0.2,0.3 -0.8,1.3 -0.8,1.3 0,0 -6.9,3 -11.2,7.5 0,0.1 -11.5,-2.9 -18.5,0.8 0,0.1 0.8,-0.6 0.8,-0.6 0,0 -3.1,0.8 -3.9,-0.7 z"
   id="path269" />
			<path
   class="st2"
   d="m 91.5,31 c -0.1,0 -0.2,0 -0.3,0 0.1,0.1 0.1,0.2 0.1,0.2 0,-0.1 -0.1,-0.1 -0.2,-0.2 C 91,31 91,31 91,31 l -0.2,-0.2 c -0.6,-0.3 -0.9,-0.5 -1,-0.5 -0.1,0 -1,0.1 -1.2,0.1 -0.2,0.1 -0.4,0 -0.6,0.1 -0.2,0.1 -0.2,0.2 -0.2,0.3 -0.1,0.2 -0.2,0.3 -0.2,0.6 0,0.1 0,0.1 -0.1,0.2 0,0.2 -0.3,0.8 -1.3,1.5 l 0.4,-0.2 -1.1,2 -4.3,5.9 c 0,0 3.6,-3.9 4.6,-5.3 1.1,-1.3 1.9,-3.5 2.2,-4 0.1,-0.2 0.3,-0.3 0.3,-0.3 0,0.3 0.5,5.2 -4.3,14 -2.5,3.6 -7,7.9 -12.7,12.4 -10.4,8.3 -11.4,12.6 -13.1,18.6 5.9,-15.7 18.3,-17.5 25,-29.1 1.2,-1.9 2.5,-4 3.2,-5.8 -0.7,1.6 -2.3,5.2 -3.7,7.2 -0.1,0.1 3.9,-4.2 5.4,-12 l 0.5,-0.2 c 0,0 0.3,-0.3 0.7,-0.5 0.4,-0.3 1,-0.6 0.8,-1.4 0,0 0,0 0.3,-0.3 0.3,-0.2 0.8,-0.7 0.7,-1.4 -0.1,-0.7 0.2,-1.3 0.2,-1.3 0.3,0 0.3,-0.2 0.2,-0.4 z m -4.7,10.1 c 0,-0.1 0.1,-0.2 0.1,-0.3 -0.1,0.2 -0.1,0.2 -0.1,0.3 z m 0.1,-0.3 c 0,-0.1 0.1,-0.2 0.1,-0.3 0,0 0,0.2 -0.1,0.3 z M 91,32.9 c 0,0 0.1,0.3 -0.6,0.9 0.1,0 -0.4,0.3 -0.3,0.5 0.1,0.3 0.3,0.8 -0.6,1.1 -0.1,0 -0.5,0.4 -0.8,0.6 -0.1,0.1 -0.2,0.2 -0.2,0.2 0.3,-1.6 0.5,-3.4 0.6,-5.3 0,0 0.3,0.1 0.6,0.8 0.3,0.7 0.3,0.6 0.4,0.7 0,-1.4 -1.1,-1.8 -1.1,-1.8 0,0 0,0 0.1,-0.1 0.6,-0.2 1.7,0.4 2.2,0.8 -0.1,0.2 -0.6,0.9 -0.3,1.6 z"
   id="path271" />
			<path
   class="st2"
   d="m 34.5,79.4 c 0,0 -0.2,12.5 2.5,16.8 -0.1,-0.1 0.3,-0.1 0.3,-0.4 0.1,-0.3 -1.8,-3.8 -2.8,-16.4 z"
   id="path273" />
			<path
   class="st2"
   d="m 44,83.7 c 0,0 -0.3,4 -2.1,4.8 -1.8,0.8 -4.1,1.9 -4.7,4.2 0,-0.2 1.4,-2.2 3.6,-2.9 2.3,-0.7 3.4,-3.3 3.5,-5.3 0.1,0.1 -0.3,-0.8 -0.3,-0.8 z"
   id="path275" />
			<path
   class="st2"
   d="m 37.3,94.1 c 0,0 0.2,-1.7 1.1,-2 0.9,-0.3 1.8,0.3 3.3,1.5 1.5,1.3 2.3,1.7 2.9,1.7 0,0 -2,0 -3.6,-1.6 -1.7,-1.5 -2.5,-1.9 -3.3,0.3 l -0.3,0.8 z"
   id="path277" />
			<g
   id="g283">
				<path
   class="st2"
   d="m 37.3,94 v 0 c 0.1,0 0.1,0 0,0 z"
   id="path279" />
				<path
   class="st2"
   d="m 41.1,115.1 v 0 c 0.3,-1.4 1.6,-6.3 3,-7.6 -0.1,0.1 -6.6,-11.5 -6.6,-13.4 0,0.1 -0.6,0.3 -0.2,1.4 0,0 3.3,7.9 6.4,11.8 0,0 -2.7,3.5 -2.6,7.8 z"
   id="path281" />
			</g>
			<path
   class="st2"
   d="m 50.5,114.8 c 0.9,-3.8 1.4,-9.3 0.1,-14.3 l -0.3,0.4 c 0.2,0.8 1.3,5.3 0.4,10.3 -0.8,5.5 -1.1,7.6 -1.1,7.6 0,0 0.2,-0.5 0.4,-1.3 -0.1,0.3 -0.1,0.5 -0.1,0.7 0,0.3 0,1.5 0,1.8 0,0.8 0.4,3 0.9,4.6 0.8,3.1 -0.1,4 -2.2,4.4 -1.7,0.5 -1.6,-3.1 -1.5,-3.6 l 0.2,-3 c 0,-0.2 -0.8,-1.8 -0.8,-2.7 0,-0.3 0.3,-1.8 0.3,-2 0.1,-1.4 -0.6,-3.2 -1,-4.5 -0.5,-3.4 -0.8,-7.6 0.1,-10.2 l 0.4,-0.8 -0.2,-0.5 c -0.2,0.3 -0.8,1.5 -0.9,2.5 -0.2,1.3 -0.4,3.8 -0.3,5.4 0.1,0.8 0.1,2.3 0.4,3.9 v 0.2 c 0,1.4 0.1,2 0.1,2 0.1,1.4 -0.8,2.1 -1.5,2 0,0 -2.6,-1.2 -2.8,-3.6 l -0.1,0.2 -0.1,0.9 c 0,0.3 0.2,0.5 0.3,0.7 0.5,0.8 2,2.1 2.5,2.6 2,-0.5 2,-2.2 2,-3.3 0.1,0.3 0.3,0.9 0.4,1.3 0.2,0.5 0.2,0.8 0.1,1.3 0,0.1 0,0.2 0,0.3 0,0.7 -0.7,2 -0.6,2.7 0.1,0.9 1,2.4 0.8,3.9 -0.7,5.2 0.8,5.4 2,5.3 1.1,-0.2 2.6,-0.9 2.8,-2.6 0.3,-3.6 -1.9,-5.1 -1.3,-8.5 z"
   id="path285" />
			<path
   class="st2"
   d="m 56.8,81.1 v 0 c 0,0 0,-0.1 0,0 0,-0.1 0,-0.1 0,0 0,-0.1 0,-0.1 0,0 -0.3,-0.8 -2.9,-8.4 -4.2,-14.3 v 0 c -0.1,-0.5 -0.2,-1 -0.3,-1.5 0,-0.3 0.1,-0.7 0.1,-0.7 0,0 0.8,-1.5 0.8,-2.5 0.1,-0.1 1.1,-1.7 0.5,-3.1 0,0 -0.6,-1.6 -1.9,-1.5 0,0 0.9,0.7 1.1,1.1 0,0 0.1,0.3 -0.8,-0.3 -0.1,0 -0.1,-0.1 -0.2,-0.1 -1.6,-4.6 11.9,-6.9 15.7,-12.4 l -0.8,-0.1 c -4.3,4.2 -5.4,3.6 -14.1,8.3 1.6,-2.4 2.3,-4.3 2.9,-5 1.3,-1.4 2.4,-2.3 4.1,-2.8 0,0 0,0 0.1,0 L 63,45.9 c -0.7,0 -4.4,-0.3 -4.7,-0.3 0.5,-0.4 0.9,-0.8 1.4,-0.9 0,0 0.1,-0.3 -0.3,-0.3 0,0 -2.2,0.9 -3.6,3.1 -0.7,0.8 -1.3,1.8 -1.8,2.5 0,-0.4 -0.2,-0.8 -0.5,-1.4 -0.3,-0.3 -0.4,0 -0.4,0 0,0 1.3,1.4 0.3,3.3 -1,1.5 -3.4,2.5 -6.2,0.5 0.2,0.5 2.3,2.5 4.9,2 -0.5,1.1 -0.7,2.5 -0.8,3.4 -0.1,0 -0.1,-0.1 -0.2,-0.1 C 47.5,54.5 40.6,43 41.2,40.5 c 0.4,0.2 1.4,0.5 1.7,0.1 0.1,0.4 0.3,0.6 0.4,0.9 0.1,-0.5 0.3,-1.2 0.3,-1.9 0.3,0.2 1,0.4 1.5,0.4 0.8,0.1 1.8,-0.3 2.3,-1.1 0.2,0.5 0.3,1.4 0.4,2 0.2,-0.3 0.3,-0.7 0.3,-1.2 0.8,0.7 1.7,0.9 2.5,1 v -0.3 c -1.3,-0.1 -1.9,-0.9 -2,-1.2 -0.3,-0.3 -0.3,-0.7 -0.3,-0.9 0.1,-0.9 1.2,-2.2 1.3,-4.8 1,-1.7 1.1,-3 0.7,-3.4 C 44.4,33.2 40,29.8 40,29.8 c -0.3,0.7 0.1,2.7 1,3.6 0.8,0.8 0.2,2.5 2.2,5.8 0,0 0,0.5 -0.3,0.8 -0.3,0.1 -0.6,0 -0.8,0 -0.2,0 -0.3,0 -0.5,-0.2 C 41.3,39.7 41.2,39.5 41,39.3 40.7,39 40.4,39 40,39.1 39.2,38.2 36.2,34.4 36.2,30 35.6,26.4 33.6,19.4 28.7,15.6 28.7,15.6 11,3.4 8.2,0.9 c 0,0 -1.8,2 1.1,5.1 -0.6,0 -1.5,2.1 1.7,3.9 0.1,0 -1.5,1.9 3.2,5.1 0,0.1 -0.3,2.9 5,6.8 0.1,0 -0.7,2.8 2.4,4.7 0.1,0.1 -1.4,2 1.7,5.2 -0.1,-0.1 -1.4,2.5 2.1,6.2 0.1,0 -0.5,2 1.9,4.3 0.1,0.1 -0.8,1.9 2.5,3.4 0,0 -2,-1.4 -1.4,-3.2 0,0 -4.6,-4.2 -1,-3.3 -0.1,0.1 -4.2,-3.6 -3.8,-6 0.2,-0.1 0.2,-0.9 1.6,0.6 0.1,-0.1 -3.6,-4.2 -3.3,-5.7 0,0 -0.1,-1.1 1.2,-0.1 0.1,-0.1 -3.6,-3.7 -3.1,-5.3 0.1,0.1 1.3,0.8 2.1,1.2 0,0 -7,-5.9 -6.8,-7.8 0,-0.1 2.6,2 2.9,2 0,0 -6.7,-5.3 -6.4,-7.3 0,-0.1 0.8,-0.2 1.4,0.3 -0.1,0 -3.9,-2.9 -3.8,-4.2 -0.1,0.1 2,1.2 2,1.2 0,0 -4.3,-4.3 -3.2,-5.9 0.1,0.1 6,4.5 8.6,6.1 2.6,1.6 14.1,8.6 16.5,16 0,0 1.1,2.3 2.3,8.2 -0.1,0.1 1.1,4.5 4.1,6.6 -0.2,0 -0.3,0.1 -0.5,0.2 -0.5,0.3 -1.4,0.5 -2,0.5 -0.1,0 -0.1,0 -0.2,0 -2.2,0.4 -4.2,3.8 -4.7,4.6 -0.5,0.8 -2.7,3.7 -2.7,3.7 v 0 c -1.4,1.8 -3.6,3.9 -5.9,6.1 1.7,-1 3.5,-2.4 5.6,-5 -1.6,2.9 -2.4,6.2 -3.9,8.6 -0.7,1.1 -1.8,3.6 -2.6,6.1 -2.9,-9.9 -6.6,-21.7 -11.4,-29.1 3.4,5.3 8.3,20.4 11.2,30 -0.6,1.8 -0.9,3.6 -0.9,4.7 -0.5,1 -1.1,2.6 -1.2,4.2 -0.2,2.8 3,4.3 5.2,6.2 0.3,0.5 0.8,1.1 0.9,1.4 0.7,0.3 1,-0.3 1,-0.3 l 0.2,0.3 c 0.8,-0.1 0.6,-0.3 -0.3,-2.2 0,-0.1 -0.1,-0.2 -0.1,-0.2 -0.8,-1.9 -1.6,-4.8 -2.6,-8.3 1.1,-2 3.1,-5.6 3.6,-6.6 1.4,-2.1 1.1,-3.3 2.7,-6 1.4,-2.2 3.6,-4.4 4,-5.8 0,0 -0.2,0.8 0.8,2 -0.2,1.7 0.5,2.3 0.3,2.5 0.1,0.2 0.1,0.3 0.2,0.5 -0.9,1 -3.1,3.4 -4.2,4.7 -1.5,1.7 -6.3,6.3 -5.3,10.6 0.9,4.2 3.7,5.4 6.9,5.5 -3.4,1.9 -4.5,15.2 -12.4,23.7 0,0 6.9,-1.4 5.3,3.1 -2.8,7.9 5.4,8.7 10.8,8.5 -0.8,-0.1 -1.7,-0.2 -2.7,-0.3 -7.5,-1.2 -8.2,-5.5 -7.1,-8.4 1.7,-4.3 -3.6,-4.2 -3.6,-4.2 5.5,-7.7 7.5,-18.8 10.8,-22.3 v 0 c 0,1.3 0.1,2.5 0.3,3.9 0,0 0.4,6.5 1.1,9.9 0.3,1.4 0.8,2.8 1.3,4 0.1,-0.3 0.1,-0.4 0.1,-0.4 l 2.9,5 c -0.9,-2 -2.3,-4.6 -2.6,-6 v -0.1 c 0,0 0,-0.1 -0.1,-0.3 -0.1,0.2 -0.3,-0.3 -0.6,-1.3 v 0 c -0.4,-1.6 -2,-7.9 -1.7,-14.7 2.8,0.1 5.1,0.5 7.1,5.3 0,0 -1,-5.8 -6.1,-5.9 -0.3,0 -0.7,0 -1,0 0,-0.2 0,-0.3 0,-0.5 0,0 0.1,-0.6 0.2,-1.4 4.1,-0.7 6.7,5 6.8,5.1 -0.9,-4.9 -5.9,-5.7 -6.6,-5.8 0.2,-1.3 0.5,-2.7 0.9,-3.2 v 0 c 3.2,0.3 5.9,3.6 5.9,3.7 -1.5,-3.1 -4.9,-4 -5.9,-4.2 0,-0.8 0,-2.5 1.2,-3.8 0,0 0.1,0 0.1,-0.1 0.5,1.2 2.1,3.4 4,4.5 -2,-2 -3.1,-4.1 -3.3,-5 0.3,-0.3 0.7,-0.5 1,-0.8 0.4,1.7 2.1,4.2 4.2,5.8 C 41,69.1 41,65.8 41,64.9 v 0 c 3.1,-0.5 5.9,-2.1 8.2,-0.6 -0.9,0.7 -1.5,1.6 -3.1,2.4 2.9,-0.5 3.1,-2.2 4,-1.8 0.1,0.3 0.1,0.7 0.1,0.9 -0.2,2.5 -1.4,4.5 -3,7.5 1.6,-1.7 2.7,-3.5 3.3,-5.3 -0.1,1.3 -0.3,3.1 -0.8,4.3 -0.8,1.8 -2.7,4.7 -3.2,5.6 -0.4,0.8 -1.6,2.7 -1.9,3.2 v 0.7 c 0.7,-1 3.2,-5.2 3.9,-6.1 0.8,-1 1.9,-3.5 2,-4.8 0,-0.1 0,3.5 0.4,5.1 0.3,1 1.3,4.1 1.9,7.9 l 0.3,2.4 c -0.2,-7 -2.2,-11.4 -2.2,-12.6 0,-1.3 0.2,-5.7 0.2,-5.7 0,0 0.3,-1.4 0,-2 l 0.4,-0.3 c 0,0.8 0.1,2.5 0.1,3.1 0,0.6 0.1,1.3 0.2,1.8 0.1,0.5 0.3,2 0.5,2.7 0.2,0.7 0.4,1.8 0.7,2.7 0.3,0.9 0.9,4.2 1.1,5 0.1,0.3 0.1,0.7 0.2,1.1 h 0.6 v 0 c 0,-0.3 0.3,-0.6 0.3,-1.1 0,0 0,-1.7 -0.1,-3.5 4.8,14.7 11.7,14.3 14.7,20.8 -5.5,5.6 -9.7,6.4 -16.9,5.9 4,0.4 10.5,3.1 17.6,-5.6 C 69,92.8 60.8,90.4 56.8,81.1 Z m -15,-48.3 c 0,0 0.4,0.6 1.3,0.7 0.4,0 1.1,-0.5 1.1,-0.5 0,0 0.6,0.5 1.2,0.6 0.9,0 1.4,-0.6 1.4,-0.6 0,0 0.3,0.4 0.8,0.3 0.5,-0.1 1.4,-0.8 1.4,-0.8 0,0 -0.3,7 -3.8,7.1 -3.2,0 -3.4,-6.8 -3.4,-6.8 z M 24.7,73.3 c 0.4,1.4 1.1,3.6 1,3.5 -0.1,-0.1 -1.4,-1.7 -1.6,-1.9 -0.3,-0.2 -0.3,0.2 -0.3,0.2 0.5,0.3 2.5,3.5 2.8,4 0.3,0.5 0.5,1.1 0.7,1.4 0.2,0.4 -0.3,0.8 -0.8,0.2 -0.2,-0.3 -0.3,-0.5 -0.5,-0.8 v 0 L 25.5,79.3 C 25.4,79.2 25.4,79.2 25.3,79.1 25.2,79 25.2,79 25.2,79 v 0 c -2.1,-2 -4.4,-2.7 -4.2,-5.3 0.1,-1.4 0.6,-2.9 1.1,-3.8 0.1,-0.7 0.4,-2 0.8,-3.6 0.3,1.1 0.7,2.2 0.9,3.1 0.1,0.5 0.3,1.4 0.3,1.8 -0.2,0.4 -0.3,0.7 -0.5,0.9 0.2,0 0.7,0.5 1.1,1.2 z M 24,71.7 c 0,-0.1 0.1,-0.1 0.1,-0.2 l 0.2,0.3 C 24.1,71.8 24,71.7 24,71.7 Z M 35.5,50.3 c -0.2,0.3 -0.3,0.6 -0.5,0.9 -1.1,1.8 -3.4,4.2 -4.7,6.2 -1.3,1.9 -1.5,4.1 -2.8,6 -0.5,0.8 -2,4.2 -3.1,6.5 -0.4,-1.5 -0.9,-3.1 -1.4,-4.8 0.8,-2.3 1.6,-4.7 2,-5.2 1.1,-1.4 5.1,-11.3 5.1,-11.3 1.1,-2.2 5.2,-8.2 6.7,-8.1 0.5,0 1.4,-0.2 2.1,-0.3 0.3,1 1.7,7 -2.5,9 l 1.1,-1.9 c 0,0 -0.1,-0.5 -0.4,0 -0.1,0.3 -0.8,1.5 -1.6,3 z m -1.1,27.2 c -4,-0.1 -5.8,-0.4 -6.9,-5 -0.8,-3.3 2,-4.2 2,-4.2 0,0 -4,5.4 2.6,7.8 0,0 -4.2,-2.3 -3,-6.2 0,-0.1 -0.1,3.6 3.1,3.3 -0.6,-0.1 -3.6,-1.3 -2.4,-4.2 1,-2 3.7,-0.6 3.7,-0.6 0,0 0.8,0.4 1.4,0.1 0.4,0 -0.5,3.7 -0.5,9 z m 5.8,-13 c -1.4,0.6 -2.5,1.4 -3.6,2.2 -2.5,1 -4,0.5 -5.5,0.4 -2,-0.1 -2.5,0.6 -2.5,0.6 l 1.8,-3.1 c 0,0 0.3,2.2 4.1,0.8 0.2,0 1.9,-0.7 2.5,-0.7 -0.3,0 -1.4,0 -3.1,0.3 -2.1,0.4 -3.1,-0.3 -3.1,-0.8 0.1,0.2 1.9,-2.5 1.9,-2.5 0,0 0.5,3.3 3.1,2.7 2.5,-0.6 5.1,-1.7 6.3,-1.3 0.1,-0.1 -0.8,-0.8 -2.7,-0.2 -2,0.6 -5.9,2.4 -6.2,-1.6 0,-0.1 1.1,-1.4 1.4,-1.5 -0.1,0 -0.1,2.7 3.1,2.6 0,-0.1 -3.3,-0.8 -2.8,-3.1 L 36.3,58 c 0.3,0.5 0.5,1.1 1,1.6 0.6,0.4 1.4,0.9 2.1,1.4 0.3,0.1 0.6,0.2 1,0.3 1.4,0.3 2.1,0.9 2.9,1.9 -0.6,0.1 -1.7,0.4 -3.1,1.3 z m 2,-0.6 c 0.5,-0.3 0.9,-0.3 1.3,-0.4 0.1,0.1 0.1,0.2 0.2,0.3 -0.5,-0.1 -1,0 -1.5,0.1 z M 41.7,53.8 c 1.6,6.4 3.4,7 4.9,9 -0.3,0 -1.8,0.3 -2,0.3 -1.4,-0.1 -2,-1.9 -3.4,-2 -2.7,-0.4 -4,-2.4 -4.6,-4.1 l -0.1,-0.3 v 0 c -0.3,-1 -0.3,-1.8 -0.3,-2.1 0.8,0.4 1.4,0.3 1.4,0.3 0.3,1.2 1.1,2.9 2.6,3.9 -0.5,-0.7 -2,-2.5 -1.9,-4 0.8,0 1.5,-0.4 1.8,-0.6 -3.1,0.9 -4.7,-1.4 -4.4,-3.4 0.2,-0.3 0.4,-0.8 0.6,-1.2 0.1,0 0.7,0 0.7,0 0,0 2.6,-1.6 2.8,-5.3 0.1,-1.8 -0.1,-2.8 -0.3,-3.4 0,-0.9 0.1,-1.8 0.6,-1.4 0.2,0.2 0.6,0.5 0.6,0.5 0,3.3 1.7,5.8 4.1,9.9 2.3,4.1 4.7,6.4 5.9,7.5 v 0 c 0.1,0.1 0.2,0.1 0.3,0.2 0.5,0.3 1.4,0.9 1.8,1.2 0.4,0.2 0.8,0.2 0.8,0.2 0,0 0,0.4 -0.1,0.8 -0.1,0.4 -0.1,0.7 -0.2,1 -0.1,0.3 -0.3,0.5 -0.3,0.5 0,0 -2.3,-1.5 -2.8,-1.7 0,0 -0.3,0.1 0.1,0.3 0.3,0.3 0.7,0.5 1.1,0.9 0.5,0.5 0.8,0.5 1.1,0.8 0.3,0.3 0.3,0.6 0.2,0.8 -0.1,0.2 -0.4,0.8 -0.5,0.9 -0.1,0.3 0.3,0.6 -0.6,-0.1 -0.8,-0.7 -2.1,-1.6 -2.1,-1.6 0,0 -0.3,-0.1 -0.3,0.3 0.2,0.3 2.3,1.6 2.5,1.9 0.1,0.3 0.2,0.3 -0.1,0.5 -0.1,0 0.3,0.3 0.1,0.7 v 0 H 51.6 C 50.5,65.3 45.3,62.7 41.7,53.8 Z M 54,81.2 c 0,0 0,0.1 0,0 0,0.1 0,0 0,0 0,-0.3 -0.3,-2.8 -0.5,-3.3 -0.2,-0.5 -0.8,-2.5 -0.8,-3.2 -0.1,-0.7 -0.3,-1.8 -0.4,-2.2 -0.1,-0.3 -0.4,-2.2 -0.4,-2.9 0,-0.7 -0.2,-3.4 -0.4,-4 L 52,65.3 c 0,0.1 0,0.2 0,0.2 0,0.3 0.1,0.3 0.2,0.4 0.1,0.1 0.1,0.1 0.1,0.2 0,0.1 0,0.2 0,0.3 0,0 0.2,0.5 0.3,1.1 0.1,0.6 0.1,1.5 0.3,2.2 0,0 1.2,3.8 1.3,4.5 -0.3,0.7 -0.2,6.4 -0.2,7 z"
   id="path287" />
			<path
   class="st2"
   d="m 54.6,81.3 c 0,0 -0.9,4.7 -1.9,7.7 0,0.1 1.1,-4 0.9,-7.7 -0.2,-3.7 0.5,0.3 0.5,0.3 z"
   id="path289" />
		</g>
		
		<g
   id="g345">
			<path
   class="st2"
   d="m 45.6,30.6 v 0 c -1.8,0 -3.3,-0.4 -4.2,-0.8 -0.1,0 -0.3,-0.1 -0.4,-0.2 -0.4,-0.2 -0.7,-0.3 -0.8,-0.3 L 40.1,29.2 V 29 c -0.1,-0.9 0.4,-1.3 0.8,-1.4 0,-0.3 0.1,-0.6 0.3,-0.8 0.2,-0.2 0.4,-0.3 0.7,-0.3 0.1,0 0.2,0 0.2,0 h 0.1 c 0.4,0.3 1.6,0.9 3.1,0.9 1.1,0 2.2,-0.3 3.1,-1 0.1,-0.1 0.3,-0.1 0.3,-0.2 0.1,0 0.2,0 0.2,0 0.3,0 0.6,0.1 0.8,0.4 0.2,0.2 0.3,0.4 0.2,0.9 0.2,0.2 0.4,0.3 0.4,0.7 0,0.3 0,0.3 -0.1,0.5 v 0.1 C 50.1,29 50,29.1 49.9,29.3 h -0.1 c -1,1 -2.6,1.3 -4.2,1.3 z M 40.5,29 c 0.2,0.1 0.3,0.2 0.6,0.3 0.1,0.1 0.2,0.1 0.3,0.1 0.9,0.3 2.5,0.8 4.2,0.8 1.5,0 2.9,-0.3 4.2,-0.9 C 50,29.1 50,29 50,28.9 v -0.1 c 0,-0.2 0.1,-0.3 0,-0.3 0,-0.3 -0.3,-0.4 -0.3,-0.4 V 28 l -0.1,-0.2 v -0.1 c 0.1,-0.3 0,-0.5 -0.1,-0.7 -0.2,-0.2 -0.3,-0.3 -0.5,-0.3 h -0.1 c -0.1,0 -0.1,0.1 -0.2,0.1 -1.1,0.8 -2.2,1.1 -3.4,1.1 -1.6,0 -2.9,-0.7 -3.3,-1 -0.1,0 -0.3,0 -0.4,0.2 -0.1,0.1 -0.2,0.3 -0.1,0.6 V 28 h -0.3 c -0.1,0.2 -0.6,0.2 -0.7,1 z"
   id="path343" />
		</g>
		<g
   id="g349">
			<path
   class="st2"
   d="m 45.4,27.1 v 0 c -1.6,0 -2.7,-0.8 -2.9,-0.8 L 42.3,26.2 42.4,26 c 0,0 0.1,-0.1 0.1,-0.2 l 0.3,-0.4 v 0 l 0.1,-0.1 C 43.2,25 43.7,25 44.2,25 c 0.3,-0.3 0.8,-0.7 1.4,-0.7 0.5,0 0.9,0.3 1.4,0.8 0.3,0.1 1.1,0.3 1.4,0.9 l 0.1,0.2 -0.3,0.1 c -1,0.5 -1.9,0.8 -2.8,0.8 z m -2.5,-1.2 c 0.3,0.3 1.3,0.7 2.5,0.7 v 0 c 0.8,0 1.6,-0.2 2.4,-0.6 -0.3,-0.4 -0.9,-0.5 -0.9,-0.5 h -0.1 l -0.1,-0.1 c -0.3,-0.4 -0.8,-0.6 -1.1,-0.6 -0.4,0 -0.8,0.3 -0.9,0.4 l 0.6,0.6 -1,-0.4 c -0.3,-0.2 -0.7,-0.1 -1,0.2 l -0.1,0.1 z"
   id="path347" />
		</g>
	</g>
<g
   id="g341"
   style="display:inline"
   transform="translate(-30.949378,53.707154)">
			<g
   id="g339">
				<g
   id="g337">
					<path
   class="st2"
   d="m 101.5,70.4 0.3,-1.7 7.7,-14 h 3.6 l 2.8,14 -0.3,1.7 z m 9.7,-8.8 c -0.1,-0.4 -0.2,-0.8 -0.2,-1 -0.1,-0.3 -0.1,-0.6 -0.1,-0.8 0,-0.3 -0.1,-0.5 -0.1,-0.8 0,-0.3 0,-0.5 -0.1,-0.8 -0.1,0.3 -0.3,0.5 -0.3,0.8 -0.1,0.3 -0.3,0.5 -0.3,0.8 -0.2,0.3 -0.3,0.5 -0.4,0.8 -0.2,0.3 -0.3,0.7 -0.5,1 l -3.3,6.4 h 6.5 z"
   id="path293"
   style="fill:#034693" />
					<path
   class="st2"
   d="m 127.4,70.4 1.2,-6.8 h -6.4 l -1.2,6.8 h -3.4 l 2.8,-15.6 h 3.4 l -1,5.9 h 6.4 l 1,-5.9 h 3.4 l -2.7,15.6 z"
   id="path295"
   style="fill:#034693" />
					<path
   class="st2"
   d="m 147.4,70.4 0.8,-4.7 c 0.1,-0.3 0.1,-0.6 0.2,-1 0.1,-0.3 0.2,-0.8 0.3,-1.4 0.1,-0.5 0.2,-0.9 0.3,-1.4 0.1,-0.4 0.2,-0.8 0.2,-1 0.1,-0.3 0.2,-0.7 0.2,-1 0.1,-0.3 0.2,-0.7 0.3,-1 l 0.3,-1.2 c -0.2,0.4 -0.3,0.8 -0.5,1.1 -0.2,0.3 -0.3,0.6 -0.4,0.9 -0.1,0.3 -0.3,0.6 -0.4,0.8 -0.2,0.3 -0.3,0.6 -0.4,0.9 -0.2,0.3 -0.3,0.6 -0.4,0.8 -0.2,0.3 -0.3,0.5 -0.3,0.8 l -3.7,7.1 h -2.6 l -1.3,-7 c 0,-0.2 -0.1,-0.4 -0.1,-0.7 0,-0.3 -0.1,-0.6 -0.2,-0.9 -0.1,-0.5 -0.1,-0.8 -0.2,-1.3 0,-0.3 -0.1,-0.7 -0.1,-0.9 0,-0.2 -0.1,-0.4 -0.1,-0.8 0,-0.4 0,-0.7 -0.1,-1.1 l -0.3,2 c -0.1,0.5 -0.1,1 -0.2,1.4 -0.1,0.4 -0.1,0.8 -0.2,1.2 -0.1,0.4 -0.1,0.8 -0.2,1.3 -0.1,0.4 -0.2,1 -0.3,1.6 l -0.8,5 H 134 l 2.7,-15.6 h 4.8 l 1.1,6.8 c 0.2,0.8 0.3,1.6 0.3,2.3 0.1,0.8 0.1,1.6 0.2,2.6 0.1,-0.3 0.3,-0.6 0.3,-0.8 0.1,-0.3 0.2,-0.4 0.3,-0.7 0.1,-0.2 0.2,-0.4 0.3,-0.7 0.1,-0.3 0.2,-0.5 0.3,-0.8 0.2,-0.4 0.3,-0.8 0.5,-1.1 0.2,-0.3 0.3,-0.7 0.5,-0.9 l 3.4,-6.8 h 4.7 l -2.7,15.9 h -3.3 z"
   id="path297"
   style="fill:#034693" />
					<path
   class="st2"
   d="m 169.8,62.6 c -0.3,1.2 -0.6,2.4 -1.1,3.3 -0.5,1 -1.2,1.9 -2,2.6 -0.8,0.7 -1.7,1.3 -2.7,1.7 -1,0.4 -2.1,0.6 -3.2,0.6 -1.2,0 -2.2,-0.2 -3.1,-0.6 -0.8,-0.4 -1.6,-0.9 -2.1,-1.7 -0.6,-0.8 -0.9,-1.6 -1.1,-2.5 -0.2,-1 -0.2,-2.1 0,-3.4 0.3,-1.2 0.6,-2.4 1.2,-3.4 0.6,-1 1.2,-1.9 2,-2.5 0.8,-0.7 1.7,-1.3 2.7,-1.6 1,-0.4 2.1,-0.6 3.3,-0.6 1.1,0 2.1,0.2 3.1,0.6 0.8,0.4 1.6,0.9 2.1,1.7 0.5,0.7 0.9,1.6 1.1,2.5 -0.1,1 -0.1,2.1 -0.2,3.3 z m -3.5,0 c 0.3,-1.6 0.2,-3 -0.4,-3.9 -0.6,-0.9 -1.5,-1.4 -2.9,-1.4 -0.7,0 -1.3,0.1 -1.9,0.3 -0.6,0.2 -1.1,0.6 -1.5,1.1 -0.4,0.4 -0.8,1 -1.2,1.7 -0.3,0.7 -0.5,1.4 -0.7,2.2 -0.3,1.7 -0.2,3 0.4,3.9 0.6,0.9 1.5,1.4 2.9,1.4 1.3,0 2.4,-0.5 3.3,-1.4 1.1,-1 1.7,-2.2 2,-3.9 z"
   id="path299"
   style="fill:#034693" />
					<path
   class="st2"
   d="m 180.8,70.4 -3.6,-7 -2.3,2 -0.9,5 h -3.4 l 2.7,-15.6 h 3.4 l -0.8,4.7 -0.2,1 -0.2,0.9 0.7,-0.6 0.9,-0.8 5.8,-5.1 h 4.3 l -7.2,6.1 5,9.4 z"
   id="path301"
   style="fill:#034693" />
					<path
   class="st2"
   d="m 200.8,59.9 c -0.3,1.6 -1.1,2.9 -2.4,3.8 -0.6,0.4 -1.2,0.7 -1.8,0.8 -0.7,0.2 -1.4,0.3 -2.3,0.3 h -3.5 l -1,5.6 h -3.4 l 2.8,-15.6 h 6.3 c 0.5,0 1,0 1.4,0 0.4,0 0.8,0.1 1.1,0.2 0.3,0.1 0.6,0.2 0.8,0.3 0.3,0.1 0.5,0.3 0.7,0.4 1.2,0.9 1.6,2.3 1.3,4.2 z m -3.3,0 c 0.1,-0.8 0,-1.3 -0.4,-1.7 -0.4,-0.3 -1.1,-0.5 -2.1,-0.5 h -2.9 l -0.8,4.4 h 3.1 c 1.8,0.1 2.8,-0.7 3.1,-2.2 z"
   id="path303"
   style="fill:#034693" />
					<path
   class="st2"
   d="M 209.7,70.4 209,66.9 h -5.8 l -2,3.5 h -3.5 l 8.7,-15.7 h 3.6 l 3.1,15.7 z m -1.5,-8.8 c -0.1,-0.4 -0.2,-0.8 -0.2,-1 -0.1,-0.3 -0.1,-0.6 -0.2,-0.8 0,-0.3 -0.1,-0.5 -0.1,-0.8 0,-0.3 -0.1,-0.5 -0.1,-0.8 -0.1,0.3 -0.3,0.5 -0.3,0.8 -0.1,0.3 -0.3,0.5 -0.3,0.8 -0.1,0.3 -0.3,0.5 -0.4,0.8 -0.2,0.3 -0.3,0.7 -0.5,1 l -1.5,2.8 h 4.2 z"
   id="path305"
   style="fill:#034693" />
					<path
   class="st2"
   d="m 222.4,57.7 -2.3,12.7 h -3.4 l 2.2,-12.7 h -4.7 l 0.5,-2.9 h 12.8 l -0.5,2.9 z"
   id="path307"
   style="fill:#034693" />
					<path
   class="st2"
   d="m 226.7,70.4 2.7,-15.6 h 3.4 l -2.7,15.6 z"
   id="path309"
   style="fill:#034693" />
					<path
   class="st2"
   d="m 243.3,70.4 -3.6,-7 -2.3,2 -0.8,5 h -3.4 l 2.7,-15.6 h 3.4 l -0.8,4.7 -0.2,1 -0.2,0.9 0.7,-0.6 0.9,-0.8 5.8,-5.1 h 4.3 l -7.2,6.2 5,9.4 h -4.3 z"
   id="path311"
   style="fill:#034693" />
					<path
   class="st2"
   d="m 264,62.6 c -0.2,1.2 -0.6,2.4 -1.1,3.3 -0.5,1 -1.2,1.9 -2,2.6 -0.8,0.7 -1.7,1.3 -2.7,1.7 -1,0.4 -2.1,0.6 -3.2,0.6 -1.2,0 -2.2,-0.2 -3.1,-0.6 -0.8,-0.4 -1.6,-0.9 -2.1,-1.7 -0.5,-0.8 -0.9,-1.6 -1.1,-2.5 -0.2,-1 -0.2,-2.1 0.1,-3.4 0.3,-1.2 0.6,-2.4 1.1,-3.4 0.5,-1 1.2,-1.9 2,-2.5 0.8,-0.7 1.7,-1.3 2.7,-1.6 1,-0.4 2.1,-0.6 3.3,-0.6 1.1,0 2.1,0.2 3.1,0.6 0.8,0.4 1.5,0.9 2.1,1.7 0.5,0.7 0.9,1.6 1.1,2.5 0,1 0,2.1 -0.2,3.3 z m -3.3,0 c 0.3,-1.6 0.2,-3 -0.4,-3.9 -0.6,-0.9 -1.5,-1.4 -2.9,-1.4 -0.7,0 -1.3,0.1 -1.9,0.3 -0.6,0.2 -1.1,0.6 -1.5,1.1 -0.4,0.4 -0.8,1 -1.2,1.7 -0.3,0.7 -0.5,1.4 -0.7,2.2 -0.3,1.7 -0.2,3 0.4,3.9 0.6,0.9 1.5,1.4 2.9,1.4 1.3,0 2.4,-0.5 3.3,-1.4 1,-1 1.6,-2.2 2,-3.9 z"
   id="path313"
   style="fill:#034693" />
					<path
   class="st2"
   d="m 263.5,70.4 0.5,-2.7 5.3,-5.3 -3.3,-5 0.4,-2.5 h 12.4 l -0.5,2.9 h -5.2 c -0.3,0 -0.4,0 -0.6,0 -0.2,0 -0.4,0 -0.6,0 -0.2,0 -0.4,0 -0.7,0 -0.3,0 -0.6,0 -0.8,0 0.3,0.4 0.6,0.8 0.8,0.9 0.2,0.2 0.3,0.3 0.4,0.6 l 2.1,3.2 -3.3,3.4 c -0.1,0.1 -0.3,0.3 -0.3,0.3 -0.2,0.2 -0.3,0.3 -0.6,0.5 -0.2,0.1 -0.3,0.3 -0.4,0.4 -0.2,0.2 -0.4,0.3 -0.7,0.6 0.4,0 0.8,0 1.1,-0.1 0.3,0 0.6,0 0.8,0 0.2,0 0.4,0 0.6,0 0.2,0 0.4,0 0.6,0 h 5.9 l -0.5,2.9 z"
   id="path315"
   style="fill:#034693" />
					<path
   class="st2"
   d="m 97.5,93.4 0.6,-3.1 6.2,-6.2 -3.8,-5.8 0.5,-3 h 14.4 l -0.6,3.4 h -6.1 c -0.3,0 -0.5,0 -0.8,0 -0.3,0 -0.4,0 -0.7,0 -0.3,0 -0.5,0 -0.8,0 -0.3,0 -0.6,0 -1,0 0.4,0.5 0.7,0.8 0.8,1.1 0.2,0.3 0.3,0.4 0.5,0.7 l 2.5,3.8 -3.9,4 c -0.1,0.1 -0.3,0.3 -0.4,0.4 -0.2,0.2 -0.4,0.4 -0.7,0.6 -0.2,0.1 -0.3,0.3 -0.5,0.5 -0.3,0.2 -0.4,0.4 -0.8,0.7 0.5,0 0.9,0 1.3,-0.1 0.3,0 0.7,0 0.9,0 0.3,0 0.5,0 0.8,0 0.3,0 0.4,0 0.7,0 h 6.9 l -0.6,3.4 H 97.5 Z"
   id="path317"
   style="fill:#034693" />
					<path
   class="st2"
   d="m 125.2,86.4 -1.3,7 h -4 l 1.3,-7.1 -4.8,-11.1 h 4.6 l 2,4.8 c 0.1,0.2 0.2,0.3 0.3,0.6 0.1,0.3 0.2,0.5 0.3,0.8 0.1,0.3 0.2,0.6 0.3,0.8 0.1,0.2 0.2,0.5 0.3,0.8 0.3,-0.6 0.8,-1.2 1.1,-1.8 0.4,-0.6 0.7,-1.1 0.9,-1.4 l 3.6,-4.7 h 4.5 z"
   id="path319"
   style="fill:#034693" />
					<path
   class="st2"
   d="m 143.4,93.4 -3.9,-8.8 c 0,-0.1 -0.1,-0.2 -0.2,-0.3 -0.1,-0.2 -0.2,-0.4 -0.3,-0.8 -0.2,-0.3 -0.3,-0.7 -0.3,-0.8 -0.1,-0.3 -0.2,-0.4 -0.3,-0.5 -0.1,-0.2 -0.1,-0.3 -0.2,-0.3 0,-0.1 -0.1,-0.3 -0.1,-0.3 0,-0.1 -0.1,-0.2 -0.1,-0.3 0,-0.1 -0.1,-0.3 -0.2,-0.4 -0.1,0.6 -0.2,1.4 -0.3,2.3 -0.1,0.9 -0.3,1.9 -0.4,2.8 l -1.4,7.8 H 132 l 3.2,-18.2 h 4.1 l 3.7,8.6 c 0.3,0.5 0.4,0.9 0.6,1.4 0.2,0.4 0.3,0.8 0.4,1.1 0.1,0.3 0.3,0.6 0.3,0.9 0.1,0.3 0.2,0.6 0.3,0.8 0,-0.2 0,-0.3 0.1,-0.5 0,-0.2 0,-0.3 0,-0.4 0,-0.2 0,-0.3 0.1,-0.4 0,-0.2 0.1,-0.3 0.1,-0.7 l 0.3,-1.5 0.3,-1.7 1.3,-7.5 h 3.8 l -3.2,18.2 h -4 z"
   id="path321"
   style="fill:#034693" />
					<path
   class="st2"
   d="M 162.8,93.4 162,89.3 h -6.8 l -2.2,4.1 h -4 l 10.1,-18.2 h 4.2 l 3.7,18.2 z m -1.9,-10.3 c -0.1,-0.4 -0.2,-0.8 -0.3,-1.2 -0.1,-0.3 -0.1,-0.7 -0.2,-0.9 0,-0.3 -0.1,-0.6 -0.1,-0.8 0,-0.2 -0.1,-0.6 -0.1,-0.9 -0.1,0.3 -0.3,0.6 -0.4,0.9 -0.2,0.3 -0.3,0.6 -0.4,0.9 -0.2,0.3 -0.3,0.6 -0.5,1 -0.2,0.3 -0.4,0.8 -0.6,1.2 l -1.8,3.3 h 4.8 z"
   id="path323"
   style="fill:#034693" />
					<path
   class="st2"
   d="m 175,78.6 -2.6,14.8 h -4 l 3.2,-18.2 h 12.8 l -0.6,3.4 z"
   id="path325"
   style="fill:#034693" />
					<path
   class="st2"
   d="m 183.6,93.4 3.2,-18.2 h 13.7 l -0.6,3.4 h -9.7 l -0.7,3.9 h 8.9 l -0.6,3.1 h -8.9 l -0.8,4.5 h 9.8 l -0.6,3.4 z"
   id="path327"
   style="fill:#034693" />
					<path
   class="st2"
   d="m 216.9,81.1 c -0.3,2 -1.3,3.4 -2.8,4.5 -0.7,0.5 -1.4,0.8 -2.1,1 -0.8,0.2 -1.6,0.3 -2.7,0.3 h -4.1 l -1.2,6.5 h -4 l 3.2,-18.2 h 7.4 c 0.6,0 1.2,0 1.6,0.1 0.4,0 0.8,0.1 1.3,0.2 0.3,0.1 0.7,0.2 1,0.3 0.3,0.2 0.6,0.3 0.8,0.5 1.4,1 1.9,2.6 1.6,4.8 z m -3.9,0 c 0.2,-0.8 0,-1.5 -0.5,-2 -0.5,-0.4 -1.3,-0.6 -2.5,-0.6 h -3.3 l -0.9,5.2 h 3.6 c 2.1,0.1 3.3,-0.9 3.6,-2.6 z"
   id="path329"
   style="fill:#034693" />
					<path
   class="st2"
   d="m 233.1,93.4 1,-5.4 c 0.1,-0.3 0.2,-0.7 0.3,-1.2 0.1,-0.4 0.2,-0.9 0.3,-1.5 0.1,-0.6 0.3,-1.1 0.3,-1.5 0.1,-0.5 0.2,-0.8 0.3,-1.3 0.1,-0.4 0.2,-0.8 0.3,-1.2 0.1,-0.4 0.2,-0.8 0.3,-1.3 l 0.3,-1.4 c -0.3,0.5 -0.4,0.9 -0.6,1.4 -0.2,0.3 -0.3,0.8 -0.5,1.1 -0.2,0.3 -0.3,0.7 -0.5,1 -0.2,0.3 -0.3,0.7 -0.5,1.1 -0.2,0.3 -0.3,0.7 -0.5,1 -0.2,0.3 -0.3,0.6 -0.4,0.8 l -4.3,8.3 h -3.1 l -1.5,-8.1 c 0,-0.2 -0.1,-0.4 -0.1,-0.8 -0.1,-0.3 -0.1,-0.7 -0.2,-1.1 -0.1,-0.5 -0.2,-1 -0.2,-1.4 -0.1,-0.4 -0.1,-0.8 -0.2,-1 0,-0.3 -0.1,-0.5 -0.1,-0.9 0,-0.3 0,-0.8 -0.1,-1.3 l -0.3,2.2 c -0.1,0.6 -0.2,1.2 -0.3,1.6 -0.1,0.5 -0.2,0.9 -0.2,1.4 -0.1,0.5 -0.2,1 -0.3,1.5 -0.1,0.5 -0.2,1.2 -0.3,2 l -1,5.9 h -3.7 l 3.2,-18.2 h 5.7 l 1.3,7.9 c 0.2,0.9 0.3,1.9 0.3,2.7 0,0.8 0.2,1.9 0.2,3.1 0.2,-0.3 0.3,-0.7 0.3,-0.9 0.1,-0.3 0.2,-0.5 0.3,-0.8 0.1,-0.3 0.2,-0.5 0.3,-0.8 0.1,-0.3 0.3,-0.6 0.4,-0.9 0.3,-0.5 0.4,-0.9 0.6,-1.3 0.2,-0.4 0.3,-0.8 0.6,-1.1 l 4,-7.9 h 5.6 l -3.2,18.2 z"
   id="path331"
   style="fill:#034693" />
					<path
   class="st2"
   d="m 259.1,84.3 c -0.3,1.4 -0.7,2.7 -1.4,3.9 -0.6,1.2 -1.4,2.2 -2.4,3.1 -0.9,0.8 -2,1.5 -3.1,2 -1.2,0.4 -2.5,0.7 -3.8,0.7 -1.3,0 -2.5,-0.3 -3.6,-0.7 -1,-0.4 -1.9,-1.1 -2.5,-2 -0.7,-0.8 -1.1,-1.9 -1.3,-3 -0.3,-1.2 -0.2,-2.5 0.1,-3.9 0.3,-1.4 0.7,-2.7 1.4,-3.9 0.6,-1.2 1.4,-2.2 2.4,-3 0.9,-0.8 2,-1.4 3.2,-2 1.2,-0.4 2.5,-0.7 3.8,-0.7 1.4,0 2.5,0.3 3.5,0.7 1,0.4 1.9,1.1 2.5,2 0.7,0.8 1.1,1.9 1.3,3 0.2,1.1 0.2,2.4 -0.1,3.8 z m -4,0 c 0.3,-2 0.2,-3.4 -0.5,-4.5 -0.7,-1.1 -1.8,-1.7 -3.4,-1.7 -0.8,0 -1.4,0.2 -2.1,0.4 -0.7,0.3 -1.3,0.7 -1.8,1.3 -0.5,0.5 -0.9,1.2 -1.4,2 -0.3,0.8 -0.7,1.6 -0.8,2.5 -0.3,2 -0.2,3.5 0.5,4.6 0.7,1.1 1.9,1.7 3.4,1.7 1.5,0 2.8,-0.6 3.9,-1.7 1.2,-1.1 1.9,-2.7 2.2,-4.6 z"
   id="path333"
   style="fill:#034693" />
					<path
   class="st2"
   d="m 258.5,93.4 0.6,-3.1 6.2,-6.2 -3.8,-5.8 0.5,-3 h 14.4 l -0.6,3.4 h -6 c -0.3,0 -0.5,0 -0.8,0 -0.3,0 -0.4,0 -0.7,0 -0.3,0 -0.5,0 -0.8,0 -0.3,0 -0.6,0 -1,0 0.4,0.5 0.7,0.8 0.8,1.1 0.2,0.3 0.3,0.4 0.4,0.7 l 2.5,3.8 -3.9,4 c -0.1,0.1 -0.3,0.3 -0.4,0.4 -0.2,0.2 -0.4,0.4 -0.7,0.6 -0.2,0.1 -0.3,0.3 -0.5,0.5 -0.3,0.2 -0.5,0.4 -0.8,0.7 0.5,0 0.9,0 1.3,-0.1 0.3,0 0.7,0 0.9,0 0.3,0 0.5,0 0.8,0 0.3,0 0.4,0 0.7,0 h 6.9 l -0.6,3.4 h -15.5 v -0.4 z"
   id="path335"
   style="fill:#034693" />
				</g>
			</g>
		</g></g>
</svg>
