<?xml version="1.0" encoding="UTF-8" standalone="no"?>
<!-- Generator: Adobe Illustrator 20.1.0, SVG Export Plug-In . SVG Version: 6.00 Build 0)  -->

<svg
   version="1.1"
   id="Calque_1"
   x="0px"
   y="0px"
   viewBox="0 0 258.68274 136.49641"
   xml:space="preserve"
   sodipodi:docname="alde.svg"
   inkscape:version="1.2.1 (9c6d41e410, 2022-07-14)"
   width="258.68274"
   height="136.49641"
   xmlns:inkscape="http://www.inkscape.org/namespaces/inkscape"
   xmlns:sodipodi="http://sodipodi.sourceforge.net/DTD/sodipodi-0.dtd"
   xmlns:xlink="http://www.w3.org/1999/xlink"
   xmlns="http://www.w3.org/2000/svg"
   xmlns:svg="http://www.w3.org/2000/svg"><defs
   id="defs142"><path
     id="SVGID_1_"
     d="m 298.8,125.1 c -0.1,-0.4 -0.4,-0.7 -0.6,-1 0,0 -0.1,-0.1 -0.1,-0.1 l -8.1,-8.1 c -1.1,-1.1 -3,-1.1 -4.1,0 -1.1,1.1 -1.1,3 0,4.1 l 6.2,6.2 -6.2,6.2 c -1.1,1.1 -1.1,3 0,4.1 1.1,1.1 3,1.1 4.1,0 l 8,-8 c 0.1,-0.1 0.2,-0.1 0.3,-0.2 0.7,-0.9 0.9,-2.1 0.5,-3.2 z" /><path
     id="SVGID_3_"
     d="m 310.8,125.1 c -0.1,-0.4 -0.4,-0.7 -0.6,-1 0,0 -0.1,-0.1 -0.1,-0.1 l -8.1,-8.1 c -1.1,-1.1 -3,-1.1 -4.1,0 -1.1,1.1 -1.1,3 0,4.1 l 6.2,6.2 -6.2,6.2 c -1.1,1.1 -1.1,3 0,4.1 1.1,1.1 3,1.1 4.1,0 l 8,-8 c 0.1,-0.1 0.2,-0.1 0.3,-0.2 0.7,-0.9 0.9,-2.1 0.5,-3.2 z" /></defs><sodipodi:namedview
   id="namedview140"
   pagecolor="#ffffff"
   bordercolor="#000000"
   borderopacity="0.25"
   inkscape:showpageshadow="2"
   inkscape:pageopacity="0.0"
   inkscape:pagecheckerboard="0"
   inkscape:deskcolor="#d1d1d1"
   showgrid="false"
   inkscape:zoom="1.8168975"
   inkscape:cx="36.876048"
   inkscape:cy="137.5972"
   inkscape:window-width="1920"
   inkscape:window-height="1001"
   inkscape:window-x="-9"
   inkscape:window-y="-9"
   inkscape:window-maximized="1"
   inkscape:current-layer="Calque_1" />
<style
   type="text/css"
   id="style2">
	.st0{fill:#324093;}
	.st1{fill:#E6007E;}
	.st2{fill:#3F2683;}
	.st3{fill:#702283;}
	.st4{fill:#37AAE1;}
	.st5{fill:#283B90;}
	.st6{fill:#36A9E1;}
	.st7{fill:url(#SVGID_5_);}
</style>


<linearGradient
   id="SVGID_5_"
   gradientUnits="userSpaceOnUse"
   x1="-4.3655"
   y1="101.5441"
   x2="358.25562"
   y2="101.5441">
	<stop
   offset="0"
   style="stop-color:#FFFFFF;stop-opacity:0"
   id="stop128" />
	<stop
   offset="0.1534"
   style="stop-color:#324093"
   id="stop130" />
	<stop
   offset="0.8405"
   style="stop-color:#324093"
   id="stop132" />
	<stop
   offset="0.9877"
   style="stop-color:#FFFFFF;stop-opacity:0"
   id="stop134" />
</linearGradient>

<g
   id="g106"
   transform="translate(-54.707455,-5.2658403)">
	<g
   id="g82">
		<path
   class="st0"
   d="m 75.4,123.7 -0.5,-1.5 h -3 l -0.5,1.5 h -1.7 l 3.1,-8.5 H 74 l 3.1,8.5 z m -2,-6 -1.1,3.1 h 2.1 z"
   id="path4"
   style="fill:#324093" />
		<path
   class="st0"
   d="m 80.4,123.7 v -8.5 h 1.7 v 7.1 H 86 v 1.5 h -5.6 z"
   id="path6"
   style="fill:#324093" />
		<path
   class="st0"
   d="m 89.5,123.7 v -8.5 h 1.7 v 7.1 H 95 v 1.5 h -5.5 z"
   id="path8"
   style="fill:#324093" />
		<path
   class="st0"
   d="m 98.6,123.7 v -8.5 h 1.7 v 8.5 z"
   id="path10"
   style="fill:#324093" />
		<path
   class="st0"
   d="m 109.3,123.7 -0.5,-1.5 h -3 l -0.5,1.5 h -1.7 l 3.1,-8.5 h 1.3 l 3.1,8.5 z m -2,-6 -1.1,3.1 h 2.1 z"
   id="path12"
   style="fill:#324093" />
		<path
   class="st0"
   d="m 119.4,123.7 -3.4,-5.2 v 5.2 h -1.7 v -8.5 h 1.5 l 3.4,5.2 v -5.2 h 1.7 v 8.5 z"
   id="path14"
   style="fill:#324093" />
		<path
   class="st0"
   d="m 127.9,123.8 c -0.9,0 -1.7,-0.3 -2.3,-0.9 -0.9,-0.9 -0.8,-1.9 -0.8,-3.4 0,-1.5 0,-2.5 0.8,-3.4 0.6,-0.6 1.4,-0.9 2.3,-0.9 1.6,0 2.8,0.9 3.1,2.7 h -1.7 c -0.2,-0.7 -0.6,-1.2 -1.4,-1.2 -0.5,0 -0.8,0.2 -1.1,0.4 -0.3,0.4 -0.4,0.8 -0.4,2.4 0,1.6 0.1,2.1 0.4,2.4 0.2,0.3 0.6,0.4 1.1,0.4 0.8,0 1.3,-0.5 1.4,-1.2 h 1.7 c -0.2,1.8 -1.5,2.7 -3.1,2.7 z"
   id="path16"
   style="fill:#324093" />
		<path
   class="st0"
   d="m 134.7,123.7 v -8.5 h 5.6 v 1.5 h -4 v 2 h 3.4 v 1.5 h -3.4 v 2.1 h 4 v 1.5 h -5.6 z"
   id="path18"
   style="fill:#324093" />
		<path
   class="st0"
   d="m 154.4,122.8 c -0.6,0.6 -1.3,0.9 -2.3,0.9 -1,0 -1.7,-0.3 -2.3,-0.9 -0.9,-0.9 -0.8,-1.9 -0.8,-3.4 0,-1.5 0,-2.5 0.8,-3.4 0.6,-0.6 1.3,-0.9 2.3,-0.9 1,0 1.7,0.3 2.3,0.9 0.9,0.9 0.9,1.9 0.9,3.4 -0.1,1.5 -0.1,2.6 -0.9,3.4 z m -1.3,-5.8 c -0.2,-0.3 -0.6,-0.5 -1.1,-0.5 -0.5,0 -0.8,0.2 -1.1,0.5 -0.3,0.4 -0.4,0.8 -0.4,2.4 0,1.6 0.1,2 0.4,2.4 0.2,0.3 0.6,0.5 1.1,0.5 0.5,0 0.8,-0.2 1.1,-0.5 0.3,-0.4 0.4,-0.8 0.4,-2.4 0,-1.6 -0.1,-2 -0.4,-2.4 z"
   id="path20"
   style="fill:#324093" />
		<path
   class="st0"
   d="m 160.8,116.7 v 2.1 h 3.4 v 1.5 h -3.4 v 3.5 h -1.7 v -8.5 h 5.6 v 1.5 h -3.9 z"
   id="path22"
   style="fill:#324093" />
		<path
   class="st0"
   d="m 173.4,123.7 v -8.5 h 1.7 v 7.1 h 3.9 v 1.5 h -5.6 z"
   id="path24"
   style="fill:#324093" />
		<path
   class="st0"
   d="m 182.5,123.7 v -8.5 h 1.7 v 8.5 z"
   id="path26"
   style="fill:#324093" />
		<path
   class="st0"
   d="m 191.9,123.7 h -3.6 v -8.5 h 3.4 c 1.7,0 2.6,0.9 2.6,2.4 0,0.9 -0.6,1.6 -1.1,1.8 0.5,0.2 1.2,0.8 1.2,1.9 0.2,1.5 -0.9,2.4 -2.5,2.4 z m -0.2,-7 H 190 v 2 h 1.6 c 0.7,0 1.1,-0.4 1.1,-1 0.1,-0.6 -0.3,-1 -1,-1 z m 0.1,3.4 H 190 v 2.1 h 1.7 c 0.8,0 1.1,-0.5 1.1,-1.1 0.1,-0.5 -0.3,-1 -1,-1 z"
   id="path28"
   style="fill:#324093" />
		<path
   class="st0"
   d="m 198.5,123.7 v -8.5 h 5.6 v 1.5 h -4 v 2 h 3.4 v 1.5 h -3.4 v 2.1 h 4 v 1.5 h -5.6 z"
   id="path30"
   style="fill:#324093" />
		<path
   class="st0"
   d="m 212.5,123.7 -1.7,-3.4 h -1.2 v 3.4 h -1.7 v -8.5 h 3.3 c 1.7,0 2.8,1.2 2.8,2.6 0,1.2 -0.7,1.9 -1.6,2.2 l 1.9,3.7 z m -1.3,-7 h -1.6 v 2.3 h 1.6 c 0.7,0 1.2,-0.5 1.2,-1.1 0,-0.8 -0.5,-1.2 -1.2,-1.2 z"
   id="path32"
   style="fill:#324093" />
		<path
   class="st0"
   d="m 222.9,123.7 -0.5,-1.5 h -3 l -0.5,1.5 h -1.7 l 3.1,-8.5 h 1.3 l 3.1,8.5 z m -2,-6 -1.1,3.1 h 2.1 z"
   id="path34"
   style="fill:#324093" />
		<path
   class="st0"
   d="m 227.9,123.7 v -8.5 h 1.7 v 7.1 h 3.9 v 1.5 h -5.6 z"
   id="path36"
   style="fill:#324093" />
		<path
   class="st0"
   d="m 239.3,123.8 c -1.3,0 -2.3,-0.3 -3.1,-1.1 l 1.1,-1.1 c 0.5,0.5 1.3,0.7 2.1,0.7 1,0 1.5,-0.4 1.5,-1.1 0,-0.3 -0.1,-0.6 -0.3,-0.7 -0.2,-0.2 -0.4,-0.2 -0.8,-0.3 l -1,-0.1 c -0.7,-0.1 -1.3,-0.3 -1.7,-0.7 -0.4,-0.4 -0.6,-1 -0.6,-1.7 0,-1.5 1.1,-2.6 3,-2.6 1.2,0 2,0.3 2.8,1 l -1.1,1 c -0.5,-0.5 -1.2,-0.6 -1.8,-0.6 -0.9,0 -1.3,0.5 -1.3,1.1 0,0.2 0.1,0.4 0.3,0.6 0.2,0.2 0.4,0.3 0.8,0.3 l 1,0.1 c 0.8,0.1 1.3,0.3 1.6,0.7 0.5,0.4 0.7,1.1 0.7,1.8 0,1.7 -1.4,2.7 -3.2,2.7 z"
   id="path38"
   style="fill:#324093" />
		<path
   class="st0"
   d="m 256.1,123.7 -0.5,-1.5 h -3 l -0.5,1.5 h -1.7 l 3.1,-8.5 h 1.3 l 3.1,8.5 z m -2,-6 -1.1,3.1 h 2.1 z"
   id="path40"
   style="fill:#324093" />
		<path
   class="st0"
   d="m 266.2,123.7 -3.4,-5.2 v 5.2 h -1.7 v -8.5 h 1.5 l 3.4,5.2 v -5.2 h 1.7 v 8.5 z"
   id="path42"
   style="fill:#324093" />
		<path
   class="st0"
   d="m 277.2,122.9 c -0.6,0.6 -1.4,0.8 -2.3,0.8 h -3.1 v -8.5 h 3.1 c 0.9,0 1.7,0.3 2.3,0.8 1,1 0.9,2.1 0.9,3.4 0,1.3 0.1,2.5 -0.9,3.5 z m -1.2,-5.7 c -0.3,-0.3 -0.7,-0.5 -1.2,-0.5 h -1.3 v 5.6 h 1.3 c 0.6,0 1,-0.2 1.2,-0.5 0.3,-0.4 0.4,-1 0.4,-2.3 0,-1.3 0,-1.9 -0.4,-2.3 z"
   id="path44"
   style="fill:#324093" />
		<path
   class="st0"
   d="m 75.9,136.4 c -0.6,0.6 -1.4,0.8 -2.3,0.8 h -3.1 v -8.5 h 3.1 c 0.9,0 1.7,0.3 2.3,0.8 1,1 0.9,2.1 0.9,3.4 0,1.3 0,2.5 -0.9,3.5 z m -1.2,-5.7 c -0.3,-0.3 -0.7,-0.5 -1.2,-0.5 h -1.3 v 5.6 h 1.3 c 0.6,0 1,-0.2 1.2,-0.5 0.3,-0.4 0.4,-1 0.4,-2.3 0,-1.3 -0.1,-1.9 -0.4,-2.3 z"
   id="path46"
   style="fill:#324093" />
		<path
   class="st0"
   d="m 80.6,137.2 v -8.5 h 5.6 v 1.5 h -4 v 2 h 3.4 v 1.5 h -3.4 v 2.1 h 4 v 1.5 h -5.6 z"
   id="path48"
   style="fill:#324093" />
		<path
   class="st0"
   d="m 96.2,137.2 v -5 l -1.6,3.2 h -1.1 l -1.6,-3.2 v 5 h -1.7 v -8.5 h 1.6 l 2.2,4.6 2.2,-4.6 h 1.6 v 8.5 z"
   id="path50"
   style="fill:#324093" />
		<path
   class="st0"
   d="m 107.2,136.3 c -0.6,0.6 -1.3,0.9 -2.3,0.9 -1,0 -1.7,-0.3 -2.3,-0.9 -0.9,-0.9 -0.8,-1.9 -0.8,-3.4 0,-1.5 0,-2.5 0.8,-3.4 0.6,-0.6 1.3,-0.9 2.3,-0.9 1,0 1.7,0.3 2.3,0.9 0.9,0.9 0.9,1.9 0.9,3.4 0,1.5 0,2.6 -0.9,3.4 z m -1.2,-5.8 c -0.2,-0.3 -0.6,-0.5 -1.1,-0.5 -0.5,0 -0.8,0.2 -1.1,0.5 -0.3,0.4 -0.4,0.8 -0.4,2.4 0,1.6 0.1,2 0.4,2.4 0.2,0.3 0.6,0.5 1.1,0.5 0.5,0 0.8,-0.2 1.1,-0.5 0.3,-0.4 0.4,-0.8 0.4,-2.4 0,-1.6 -0.1,-2 -0.4,-2.4 z"
   id="path52"
   style="fill:#324093" />
		<path
   class="st0"
   d="m 114.8,137.3 c -0.9,0 -1.7,-0.3 -2.3,-0.9 -0.9,-0.9 -0.8,-1.9 -0.8,-3.4 0,-1.5 0,-2.5 0.8,-3.4 0.6,-0.6 1.4,-0.9 2.3,-0.9 1.6,0 2.8,0.9 3.1,2.7 h -1.7 c -0.2,-0.7 -0.6,-1.2 -1.4,-1.2 -0.5,0 -0.8,0.2 -1.1,0.4 -0.3,0.4 -0.4,0.8 -0.4,2.4 0,1.6 0.1,2.1 0.4,2.4 0.2,0.3 0.6,0.4 1.1,0.4 0.8,0 1.3,-0.5 1.4,-1.2 h 1.7 c -0.2,1.8 -1.5,2.7 -3.1,2.7 z"
   id="path54"
   style="fill:#324093" />
		<path
   class="st0"
   d="m 126.2,137.2 -1.7,-3.4 h -1.2 v 3.4 h -1.7 v -8.5 h 3.3 c 1.7,0 2.8,1.2 2.8,2.6 0,1.2 -0.7,1.9 -1.6,2.2 l 1.9,3.7 z m -1.3,-7 h -1.6 v 2.3 h 1.6 c 0.7,0 1.2,-0.5 1.2,-1.1 0,-0.8 -0.5,-1.2 -1.2,-1.2 z"
   id="path56"
   style="fill:#324093" />
		<path
   class="st0"
   d="m 136.5,137.2 -0.5,-1.5 h -3 l -0.5,1.5 h -1.7 l 3.1,-8.5 h 1.3 l 3.1,8.5 z m -1.9,-6 -1.1,3.1 h 2.1 z"
   id="path58"
   style="fill:#324093" />
		<path
   class="st0"
   d="m 144.1,130.2 v 7.1 h -1.7 v -7.1 h -2.2 v -1.5 h 6.1 v 1.5 z"
   id="path60"
   style="fill:#324093" />
		<path
   class="st0"
   d="m 152.2,137.3 c -1.3,0 -2.3,-0.3 -3.1,-1.1 l 1.1,-1.1 c 0.5,0.5 1.3,0.7 2.1,0.7 1,0 1.5,-0.4 1.5,-1.1 0,-0.3 -0.1,-0.6 -0.3,-0.7 -0.2,-0.2 -0.4,-0.2 -0.8,-0.3 l -1,-0.1 c -0.7,-0.1 -1.3,-0.3 -1.7,-0.7 -0.4,-0.4 -0.6,-1 -0.6,-1.7 0,-1.5 1.1,-2.6 3,-2.6 1.2,0 2,0.3 2.8,1 l -1.1,1 c -0.5,-0.5 -1.2,-0.6 -1.8,-0.6 -0.9,0 -1.3,0.5 -1.3,1.1 0,0.2 0.1,0.4 0.3,0.6 0.2,0.2 0.4,0.3 0.8,0.3 l 1,0.1 c 0.8,0.1 1.3,0.3 1.6,0.7 0.5,0.4 0.7,1.1 0.7,1.8 0,1.7 -1.4,2.7 -3.2,2.7 z"
   id="path62"
   style="fill:#324093" />
		<path
   class="st0"
   d="m 165.8,130.2 v 2.1 h 3.4 v 1.5 h -3.4 v 3.5 h -1.7 v -8.5 h 5.6 v 1.5 h -3.9 z"
   id="path64"
   style="fill:#324093" />
		<path
   class="st0"
   d="m 178.4,136.3 c -0.6,0.6 -1.3,0.9 -2.3,0.9 -1,0 -1.7,-0.3 -2.3,-0.9 -0.9,-0.9 -0.8,-1.9 -0.8,-3.4 0,-1.5 0,-2.5 0.8,-3.4 0.6,-0.6 1.3,-0.9 2.3,-0.9 1,0 1.7,0.3 2.3,0.9 0.9,0.9 0.9,1.9 0.9,3.4 -0.1,1.5 0,2.6 -0.9,3.4 z m -1.2,-5.8 c -0.2,-0.3 -0.6,-0.5 -1.1,-0.5 -0.5,0 -0.8,0.2 -1.1,0.5 -0.3,0.4 -0.4,0.8 -0.4,2.4 0,1.6 0.1,2 0.4,2.4 0.2,0.3 0.6,0.5 1.1,0.5 0.5,0 0.8,-0.2 1.1,-0.5 0.3,-0.4 0.4,-0.8 0.4,-2.4 0,-1.6 -0.1,-2 -0.4,-2.4 z"
   id="path66"
   style="fill:#324093" />
		<path
   class="st0"
   d="m 187.7,137.2 -1.7,-3.4 h -1.2 v 3.4 h -1.7 v -8.5 h 3.3 c 1.7,0 2.8,1.2 2.8,2.6 0,1.2 -0.7,1.9 -1.6,2.2 l 1.9,3.7 z m -1.3,-7 h -1.6 v 2.3 h 1.6 c 0.7,0 1.2,-0.5 1.2,-1.1 0,-0.8 -0.5,-1.2 -1.2,-1.2 z"
   id="path68"
   style="fill:#324093" />
		<path
   class="st0"
   d="m 198.2,137.2 v -8.5 h 5.6 v 1.5 h -4 v 2 h 3.4 v 1.5 h -3.4 v 2.1 h 4 v 1.5 h -5.6 z"
   id="path70"
   style="fill:#324093" />
		<path
   class="st0"
   d="m 210.7,137.3 c -1.8,0 -3.1,-1.2 -3.1,-3 v -5.6 h 1.7 v 5.6 c 0,1 0.6,1.6 1.5,1.6 0.9,0 1.5,-0.6 1.5,-1.6 v -5.6 h 1.7 v 5.6 c -0.2,1.8 -1.6,3 -3.3,3 z"
   id="path72"
   style="fill:#324093" />
		<path
   class="st0"
   d="m 222.4,137.2 -1.7,-3.4 h -1.2 v 3.4 h -1.7 v -8.5 h 3.3 c 1.7,0 2.8,1.2 2.8,2.6 0,1.2 -0.7,1.9 -1.6,2.2 l 1.9,3.7 z m -1.3,-7 h -1.6 v 2.3 h 1.6 c 0.7,0 1.2,-0.5 1.2,-1.1 0.1,-0.8 -0.4,-1.2 -1.2,-1.2 z"
   id="path74"
   style="fill:#324093" />
		<path
   class="st0"
   d="m 233.1,136.3 c -0.6,0.6 -1.3,0.9 -2.3,0.9 -1,0 -1.7,-0.3 -2.3,-0.9 -0.9,-0.9 -0.8,-1.9 -0.8,-3.4 0,-1.5 0,-2.5 0.8,-3.4 0.6,-0.6 1.3,-0.9 2.3,-0.9 1,0 1.7,0.3 2.3,0.9 0.9,0.9 0.9,1.9 0.9,3.4 0,1.5 0,2.6 -0.9,3.4 z m -1.2,-5.8 c -0.2,-0.3 -0.6,-0.5 -1.1,-0.5 -0.5,0 -0.8,0.2 -1.1,0.5 -0.3,0.4 -0.4,0.8 -0.4,2.4 0,1.6 0.1,2 0.4,2.4 0.2,0.3 0.6,0.5 1.1,0.5 0.5,0 0.8,-0.2 1.1,-0.5 0.3,-0.4 0.4,-0.8 0.4,-2.4 0,-1.6 -0.1,-2 -0.4,-2.4 z"
   id="path76"
   style="fill:#324093" />
		<path
   class="st0"
   d="m 241.2,134 h -1.6 v 3.2 h -1.7 v -8.5 h 3.3 c 1.8,0 2.8,1.2 2.8,2.7 0,1.5 -1,2.6 -2.8,2.6 z m -0.1,-3.8 h -1.6 v 2.3 h 1.6 c 0.8,0 1.2,-0.5 1.2,-1.2 0.1,-0.7 -0.4,-1.1 -1.2,-1.1 z"
   id="path78"
   style="fill:#324093" />
		<path
   class="st0"
   d="m 247.6,137.2 v -8.5 h 5.6 v 1.5 h -4 v 2 h 3.4 v 1.5 h -3.4 v 2.1 h 4 v 1.5 h -5.6 z"
   id="path80"
   style="fill:#324093" />
	</g>
	<g
   id="g104">
		<g
   id="g92">
			<defs
   id="defs85">
				<path
   id="path698"
   d="m 298.8,125.1 c -0.1,-0.4 -0.4,-0.7 -0.6,-1 0,0 -0.1,-0.1 -0.1,-0.1 l -8.1,-8.1 c -1.1,-1.1 -3,-1.1 -4.1,0 -1.1,1.1 -1.1,3 0,4.1 l 6.2,6.2 -6.2,6.2 c -1.1,1.1 -1.1,3 0,4.1 1.1,1.1 3,1.1 4.1,0 l 8,-8 c 0.1,-0.1 0.2,-0.1 0.3,-0.2 0.7,-0.9 0.9,-2.1 0.5,-3.2 z" />
			</defs>
			<use
   xlink:href="#SVGID_1_"
   style="overflow:visible;fill:#324093"
   id="use87" />
			<clipPath
   id="SVGID_2_">
				<use
   xlink:href="#SVGID_1_"
   style="overflow:visible"
   id="use89" />
			</clipPath>
		</g>
		<g
   id="g102">
			<defs
   id="defs95">
				<path
   id="path705"
   d="m 310.8,125.1 c -0.1,-0.4 -0.4,-0.7 -0.6,-1 0,0 -0.1,-0.1 -0.1,-0.1 l -8.1,-8.1 c -1.1,-1.1 -3,-1.1 -4.1,0 -1.1,1.1 -1.1,3 0,4.1 l 6.2,6.2 -6.2,6.2 c -1.1,1.1 -1.1,3 0,4.1 1.1,1.1 3,1.1 4.1,0 l 8,-8 c 0.1,-0.1 0.2,-0.1 0.3,-0.2 0.7,-0.9 0.9,-2.1 0.5,-3.2 z" />
			</defs>
			<use
   xlink:href="#SVGID_3_"
   style="overflow:visible;fill:#e6007e"
   id="use97" />
			<clipPath
   id="SVGID_4_">
				<use
   xlink:href="#SVGID_3_"
   style="overflow:visible"
   id="use99" />
			</clipPath>
		</g>
	</g>
</g><g
   id="g126"
   transform="translate(-54.707455,-5.2658403)">
	<polyline
   class="st1"
   points="130.2,101.5 155.4,101.5 155.4,5.3 130.2,5.3 130.2,101.5  "
   id="polyline108"
   style="fill:#e6007e" />
	<polyline
   class="st0"
   points="130.2,44 130.2,101.5 130.2,44 130.2,44  "
   id="polyline110"
   style="fill:#324093" />
	<path
   class="st2"
   d="m 130.2,44 v 57.6 h 8.9 c -0.2,-2.8 -0.3,-5.6 -0.3,-8.3 V 66 c 0,-10.1 -3.2,-17.2 -8.6,-22"
   id="path112"
   style="fill:#3f2683" />
	<path
   class="st0"
   d="m 251.6,35.7 c -22.7,0 -39.1,14 -39.1,38.1 0,11.8 4.4,21.1 11.7,27.7 h 57.6 V 89.7 c -7.6,4.1 -15.4,5.6 -22.3,5.6 -12.3,0 -20,-3.9 -21.4,-14 h 50.4 v -4.6 c -0.1,-21.8 -9.9,-41 -36.9,-41 M 237.7,67 c 0.6,-8.4 4.9,-15.3 14,-15.3 10.1,0 14,6.9 14,15.3 h -28"
   id="path114"
   style="fill:#324093" />
	<path
   class="st3"
   d="m 155.4,46.5 c -5.8,7.1 -8.8,16.7 -8.8,26.1 0,11 3,21 8.8,28.2 V 46.5"
   id="path116"
   style="fill:#702283" />
	<path
   class="st4"
   d="m 212.5,75.1 c 0.3,11.2 4.6,20.1 11.6,26.4 -7,-6.3 -11.3,-15.2 -11.6,-26.4 m 0,-1.3 c 0,0 0,0 0,0 v 0 c 0,0 0,0 0,0 m 0,-0.1 c 0,0 0,0.1 0,0 0,0.1 0,0 0,0 m 0,0 c 0,0 0,0 0,0 0,0 0,0 0,0 m 0,-0.1 c 0,0 0,0 0,0 0,0 0,0 0,0 m 0,-0.1 c 0,0 0,0.1 0,0 0,0.1 0,0 0,0 m 0,0 c 0,0 0,0 0,0 0,0 0,0 0,0 m 0,-0.1 c 0,0 0,0 0,0 0,0 0,0 0,0 m 0,-0.1 c 0,0 0,0 0,0 0,0 0,0 0,0 m 0,-0.1 c 0,0.1 0,0.1 0,0 0,0.1 0,0.1 0,0 m 0,0 c 0,0 0,0 0,0 0,0 0,0 0,0 m 0,-0.1 c 0,0 0,0 0,0 0,0 0,0 0,0 m 0,-0.1 c 0,0 0,0.1 0,0 0,0.1 0,0 0,0 m 0,-0.1 c 0,0 0,0 0,0 0,0 0,0 0,0"
   id="path118"
   style="fill:#37aae1" />
	<path
   class="st5"
   d="m 228.6,41.8 c -9.8,6.2 -15.9,16.8 -16.1,31.1 0,0 0,0 0,0 0,0 0,0.1 0,0.1 0,0 0,0 0,0 0,0 0,0 0,0.1 0,0 0,0 0,0 0,0 0,0 0,0 0,0 0,0 0,0 0,0 0,0 0,0 0,0 0,0 0,0 0,0 0,0 0,0 0,0 0,0 0,0 0,0 0,0 0,0 0,0 0,0 0,0.1 0,0 0,0 0,0 0,0 0,0 0,0 0,0 0,0 0,0 0,0 0,0 0,0.1 0,0 0,0 0,0 0,0 0,0 0,0.1 0,0 0,0 0,0 0,0 0,0 0,0.1 0,0 0,0 0,0 0,0 0,0 0,0.1 0,0 0,0 0,0 0,0 0,0 0,0.1 0,0.4 0,0.8 0,1.2 0.3,11.2 4.6,20.1 11.6,26.4 v 0 h 4.5 V 41.8"
   id="path120"
   style="fill:#283b90" />
	<path
   class="st6"
   d="M 203.2,5.3 V 46.8 H 203 c -6.4,-8.4 -15,-11.1 -25.1,-11.1 -9.6,0 -17.2,4.3 -22.4,10.7 v 54.3 c 0.2,0.2 0.4,0.5 0.6,0.7 h 68.1 c -7.3,-6.5 -11.7,-15.9 -11.7,-27.7 0,-14.8 6.2,-25.7 16.1,-32 V 5.3 Z M 188,92.8 c -9.5,0 -15.3,-8 -15.3,-19.6 0,-9.7 5.5,-18.1 15.3,-18.1 9.2,0 15.4,8 15.4,19.1 0,10.6 -7,18.6 -15.4,18.6 z"
   id="path122"
   style="fill:#36a9e1" />
	<path
   class="st0"
   d="M 130.2,44 C 123.7,38.2 114.3,35.8 104.1,35.8 93.3,35.8 83.9,37.3 75,41 l 0.4,17 c 7,-3.9 15.1,-5.5 23.3,-5.5 9.1,0 16.5,2.7 16.7,12.6 -3.2,-0.6 -7.7,-1 -11.8,-1 -13.5,0 -37.7,2.7 -37.7,24.9 0,5 1.3,9.1 3.5,12.4 h 60.9 V 44 Z M 99.8,95.3 c -5.9,0 -10.4,-2.9 -10.4,-8 0,-7 6.7,-9.7 15.3,-9.7 3.8,0 7.4,0.3 10.7,0.4 -0.1,8.6 -6.1,17.3 -15.6,17.3 z"
   id="path124"
   style="fill:#324093" />
</g><rect
   style="fill:#ffa348;stroke-width:0.855254;stop-color:#000000;opacity:0"
   id="rect1123"
   width="258.68274"
   height="136.49641"
   x="0"
   y="0"
   clip-path="none" /></svg>
