<?xml version="1.0" encoding="utf-8"?>
<!-- Generator: Adobe Illustrator 19.1.0, SVG Export Plug-In . SVG Version: 6.00 Build 0)  -->
<!DOCTYPE svg PUBLIC "-//W3C//DTD SVG 1.1//EN" "http://www.w3.org/Graphics/SVG/1.1/DTD/svg11.dtd" [
	<!ENTITY ns_extend "http://ns.adobe.com/Extensibility/1.0/">
	<!ENTITY ns_ai "http://ns.adobe.com/AdobeIllustrator/10.0/">
	<!ENTITY ns_graphs "http://ns.adobe.com/Graphs/1.0/">
	<!ENTITY ns_vars "http://ns.adobe.com/Variables/1.0/">
	<!ENTITY ns_imrep "http://ns.adobe.com/ImageReplacement/1.0/">
	<!ENTITY ns_sfw "http://ns.adobe.com/SaveForWeb/1.0/">
	<!ENTITY ns_custom "http://ns.adobe.com/GenericCustomNamespace/1.0/">
	<!ENTITY ns_adobe_xpath "http://ns.adobe.com/XPath/1.0/">
]>
<svg version="1.1" id="Calque_1" xmlns:x="&ns_extend;" xmlns:i="&ns_ai;" xmlns:graph="&ns_graphs;"
	 xmlns="http://www.w3.org/2000/svg" xmlns:xlink="http://www.w3.org/1999/xlink" x="0px" y="0px" width="174px" height="82px"
	 viewBox="0 0 174 82" style="enable-background:new 0 0 174 82;" xml:space="preserve">
<style type="text/css">
	.st0{fill:#FFFFFF;}
	.st1{fill:#F8B01E;}
	.st2{fill:url(#SVGID_1_);}
</style>
<metadata>
	<sfw  xmlns="&ns_sfw;">
		<slices></slices>
		<sliceSourceBounds  x="0" y="-82" height="82" width="174" bottomLeftOrigin="true"></sliceSourceBounds>
	</sfw>
</metadata>
<g>
	<path class="st0" d="M66.6,75.1c0.4,0,0.7,0.1,0.9,0.2c0.3,0.1,0.5,0.2,0.6,0.4c0.2,0.2,0.3,0.4,0.4,0.7c0.1,0.3,0.1,0.5,0.1,0.8
		c0,0.3-0.1,0.4-0.2,0.5s-0.3,0.1-0.4,0.1h-2.8c0,0.3,0,0.6,0.1,0.8c0.1,0.2,0.2,0.4,0.3,0.5c0.1,0.1,0.3,0.2,0.5,0.3
		c0.2,0.1,0.4,0.1,0.6,0.1c0.2,0,0.4,0,0.6-0.1c0.2,0,0.4-0.1,0.5-0.2c0.1,0,0.1,0,0.2,0l0.2,0.3c0,0.1,0,0.1,0,0.2
		c-0.2,0.1-0.4,0.2-0.7,0.3c-0.2,0-0.5,0.1-0.7,0.1c-0.7,0-1.2-0.2-1.6-0.6c-0.4-0.4-0.6-1-0.6-1.9c0-0.4,0.1-0.8,0.2-1.1
		c0.1-0.3,0.3-0.6,0.4-0.8c0.2-0.2,0.4-0.4,0.7-0.5C66,75.1,66.3,75.1,66.6,75.1z M68,77.2c0-0.2,0-0.4-0.1-0.6
		c0-0.2-0.1-0.4-0.2-0.5c-0.1-0.1-0.2-0.3-0.4-0.3c-0.2-0.1-0.4-0.1-0.7-0.1c-0.2,0-0.4,0-0.6,0.1c-0.2,0.1-0.3,0.2-0.4,0.3
		c-0.1,0.1-0.2,0.3-0.3,0.5c-0.1,0.2-0.1,0.4-0.1,0.6H68z"/>
	<path class="st0" d="M70.1,75.2c0,0,0.1,0,0.1,0h0.4c0,0,0.1,0,0.1,0c0,0,0,0,0,0.1v2.5c0,0.3,0,0.6,0.1,0.8c0,0.2,0.1,0.4,0.2,0.5
		c0.1,0.1,0.3,0.2,0.5,0.3c0.2,0.1,0.5,0.1,0.8,0.1c0.1,0,0.2,0,0.4,0c0.2,0,0.4,0,0.6-0.1v-4.2c0,0,0-0.1,0-0.1c0,0,0.1,0,0.1,0
		h0.4c0,0,0.1,0,0.1,0c0,0,0,0,0,0.1v4.2c0,0.3-0.2,0.6-0.5,0.6c-0.1,0-0.2,0-0.3,0c-0.1,0-0.2,0-0.3,0c-0.1,0-0.2,0-0.3,0
		c-0.1,0-0.2,0-0.3,0c-0.4,0-0.7,0-1-0.1c-0.3-0.1-0.5-0.2-0.7-0.4c-0.2-0.2-0.3-0.4-0.4-0.7c-0.1-0.3-0.1-0.6-0.1-1.1L70.1,75.2
		C70.1,75.2,70.1,75.2,70.1,75.2z"/>
	<path class="st0" d="M78.6,76.2C78.6,76.2,78.5,76.2,78.6,76.2c-0.1,0-0.1,0-0.1,0c-0.2-0.2-0.4-0.3-0.6-0.4
		c-0.2-0.1-0.5-0.1-0.8-0.1c-0.1,0-0.2,0-0.3,0c-0.1,0-0.2,0-0.3,0.1v4.2c0,0,0,0.1,0,0.1c0,0-0.1,0-0.1,0h-0.4c0,0-0.1,0-0.1,0
		c0,0,0,0,0-0.1v-4.2c0-0.2,0-0.3,0.1-0.4c0.1-0.1,0.2-0.2,0.4-0.2c0.3,0,0.5-0.1,0.8-0.1c0.7,0,1.3,0.2,1.8,0.6c0,0,0,0.1,0,0.1
		L78.6,76.2z"/>
	<path class="st0" d="M83.9,77.6c0,0.8-0.2,1.5-0.6,1.9c-0.4,0.4-0.9,0.7-1.6,0.7c-0.7,0-1.2-0.2-1.6-0.6c-0.4-0.4-0.5-1.1-0.5-1.9
		c0-0.4,0.1-0.8,0.2-1.1c0.1-0.3,0.3-0.6,0.4-0.8c0.2-0.2,0.4-0.4,0.7-0.5c0.3-0.1,0.5-0.2,0.9-0.2c0.7,0,1.2,0.2,1.6,0.7
		C83.7,76.2,83.9,76.8,83.9,77.6z M83.2,77.6c0-0.3,0-0.5-0.1-0.7c0-0.2-0.1-0.5-0.2-0.6c-0.1-0.2-0.3-0.3-0.4-0.4
		c-0.2-0.1-0.4-0.2-0.7-0.2c-0.3,0-0.5,0.1-0.7,0.2c-0.2,0.1-0.3,0.2-0.5,0.4c-0.1,0.2-0.2,0.4-0.3,0.6c-0.1,0.2-0.1,0.5-0.1,0.7
		c0,0.3,0,0.6,0.1,0.8c0,0.2,0.1,0.5,0.2,0.6c0.1,0.2,0.3,0.3,0.4,0.4c0.2,0.1,0.4,0.1,0.7,0.1c0.3,0,0.5-0.1,0.7-0.2
		c0.2-0.1,0.3-0.3,0.5-0.5c0.1-0.2,0.2-0.4,0.2-0.6C83.2,78.1,83.2,77.9,83.2,77.6z"/>
	<path class="st0" d="M89.5,77.6c0,0.4,0,0.7-0.1,1c-0.1,0.3-0.2,0.6-0.4,0.8c-0.2,0.2-0.4,0.4-0.7,0.5c-0.3,0.1-0.6,0.2-0.9,0.2
		c-0.2,0-0.4,0-0.6,0c-0.2,0-0.4-0.1-0.7-0.1v1.9c0,0,0,0.1,0,0.1c0,0,0,0-0.1,0h-0.4c0,0-0.1,0-0.1,0c0,0,0,0,0-0.1v-6.3
		c0-0.1,0-0.1,0.1-0.1c0.3-0.1,0.6-0.2,0.9-0.3c0.3,0,0.6-0.1,0.9-0.1c0.4,0,0.7,0.1,1,0.2c0.3,0.1,0.5,0.3,0.7,0.5
		c0.2,0.2,0.3,0.5,0.4,0.8S89.5,77.2,89.5,77.6z M88.8,77.6c0-0.4,0-0.7-0.1-0.9c-0.1-0.2-0.2-0.4-0.3-0.6c-0.1-0.2-0.3-0.3-0.5-0.3
		c-0.2-0.1-0.4-0.1-0.6-0.1c-0.2,0-0.4,0-0.6,0.1c-0.2,0-0.4,0.1-0.6,0.2v3.5c0.3,0.1,0.5,0.1,0.7,0.2c0.2,0,0.4,0,0.5,0
		c0.2,0,0.4,0,0.6-0.1c0.2-0.1,0.4-0.2,0.5-0.3c0.1-0.2,0.2-0.4,0.3-0.6C88.8,78.3,88.8,78,88.8,77.6z"/>
	<path class="st0" d="M92.9,75.1c0.4,0,0.7,0.1,0.9,0.2c0.3,0.1,0.5,0.2,0.6,0.4c0.2,0.2,0.3,0.4,0.4,0.7c0.1,0.3,0.1,0.5,0.1,0.8
		c0,0.3-0.1,0.4-0.2,0.5c-0.1,0.1-0.3,0.1-0.4,0.1h-2.8c0,0.3,0,0.6,0.1,0.8c0.1,0.2,0.2,0.4,0.3,0.5c0.1,0.1,0.3,0.2,0.5,0.3
		c0.2,0.1,0.4,0.1,0.6,0.1c0.2,0,0.4,0,0.6-0.1c0.2,0,0.4-0.1,0.5-0.2c0.1,0,0.1,0,0.2,0l0.2,0.3c0,0.1,0,0.1,0,0.2
		C94.2,80,94,80,93.7,80.1c-0.2,0-0.5,0.1-0.7,0.1c-0.7,0-1.2-0.2-1.6-0.6c-0.4-0.4-0.6-1-0.6-1.9c0-0.4,0.1-0.8,0.2-1.1
		c0.1-0.3,0.3-0.6,0.4-0.8c0.2-0.2,0.4-0.4,0.7-0.5C92.3,75.1,92.6,75.1,92.9,75.1z M94.3,77.2c0-0.2,0-0.4-0.1-0.6
		c0-0.2-0.1-0.4-0.2-0.5c-0.1-0.1-0.2-0.3-0.4-0.3c-0.2-0.1-0.4-0.1-0.7-0.1c-0.2,0-0.4,0-0.6,0.1c-0.2,0.1-0.3,0.2-0.4,0.3
		c-0.1,0.1-0.2,0.3-0.3,0.5c-0.1,0.2-0.1,0.4-0.1,0.6H94.3z"/>
	<path class="st0" d="M100.2,79.6c0,0.1,0,0.2-0.1,0.2c-0.3,0.1-0.6,0.2-0.9,0.2s-0.6,0.1-0.9,0.1c-0.4,0-0.7,0-1-0.1
		c-0.3-0.1-0.5-0.2-0.6-0.3c-0.1-0.1-0.3-0.3-0.3-0.5c-0.1-0.2-0.1-0.4-0.1-0.6c0-0.2,0-0.4,0.1-0.6c0.1-0.2,0.2-0.4,0.4-0.5
		c0.2-0.1,0.4-0.3,0.6-0.3c0.2-0.1,0.5-0.1,0.9-0.1h1.2v-0.2c0-0.2,0-0.3,0-0.4c0-0.1-0.1-0.2-0.2-0.3c-0.1-0.1-0.2-0.2-0.4-0.2
		c-0.2-0.1-0.4-0.1-0.6-0.1c-0.2,0-0.4,0-0.7,0.1c-0.2,0-0.5,0.1-0.6,0.1c0,0-0.1,0-0.1,0c0,0,0,0-0.1-0.1l-0.1-0.3
		c0-0.1,0-0.1,0.1-0.1c0.1,0,0.2-0.1,0.4-0.1c0.1,0,0.3-0.1,0.4-0.1c0.1,0,0.3,0,0.4-0.1c0.1,0,0.3,0,0.4,0c0.6,0,1,0.1,1.3,0.4
		c0.3,0.3,0.4,0.7,0.4,1.2V79.6z M99.5,77.6h-1.2c-0.1,0-0.2,0-0.4,0c-0.2,0-0.3,0.1-0.4,0.1c-0.1,0.1-0.3,0.2-0.4,0.3
		c-0.1,0.1-0.1,0.3-0.1,0.6c0,0.2,0,0.3,0.1,0.5c0.1,0.1,0.2,0.2,0.3,0.3c0.1,0.1,0.3,0.1,0.4,0.2c0.2,0,0.3,0,0.5,0
		c0.1,0,0.1,0,0.2,0c0.1,0,0.2,0,0.3,0c0.1,0,0.2,0,0.4-0.1c0.1,0,0.2-0.1,0.3-0.1V77.6z"/>
	<path class="st0" d="M105.8,80c0,0-0.1,0-0.1,0h-0.4c0,0-0.1,0-0.1,0c0,0,0,0,0-0.1v-2.5c0-0.3,0-0.6-0.1-0.8
		c0-0.2-0.1-0.4-0.2-0.6c-0.1-0.1-0.3-0.3-0.5-0.3c-0.2-0.1-0.5-0.1-0.8-0.1c-0.1,0-0.2,0-0.4,0c-0.2,0-0.4,0-0.6,0.1v4.2
		c0,0,0,0.1,0,0.1c0,0-0.1,0-0.1,0H102c0,0-0.1,0-0.1,0c0,0,0,0,0-0.1v-4.2c0-0.4,0.2-0.6,0.5-0.6c0.1,0,0.2,0,0.3,0
		c0.1,0,0.2,0,0.3,0c0.1,0,0.2,0,0.3,0c0.1,0,0.2,0,0.3,0c0.4,0,0.7,0,1,0.1c0.3,0.1,0.5,0.2,0.7,0.4c0.2,0.2,0.3,0.4,0.4,0.7
		c0.1,0.3,0.1,0.7,0.1,1.1L105.8,80C105.8,80,105.8,80,105.8,80z"/>
	<path class="st0" d="M114.6,77.6c0,0.4,0,0.7-0.1,1c-0.1,0.3-0.2,0.6-0.4,0.8c-0.2,0.2-0.4,0.4-0.7,0.5c-0.3,0.1-0.6,0.2-0.9,0.2
		c-0.2,0-0.4,0-0.6,0c-0.2,0-0.4-0.1-0.7-0.1v1.9c0,0,0,0.1,0,0.1c0,0,0,0-0.1,0h-0.4c0,0-0.1,0-0.1,0c0,0,0,0,0-0.1v-6.3
		c0-0.1,0-0.1,0.1-0.1c0.3-0.1,0.6-0.2,0.9-0.3c0.3,0,0.6-0.1,0.9-0.1c0.4,0,0.7,0.1,1,0.2c0.3,0.1,0.5,0.3,0.7,0.5
		c0.2,0.2,0.3,0.5,0.4,0.8C114.5,76.9,114.6,77.2,114.6,77.6z M113.8,77.6c0-0.4,0-0.7-0.1-0.9c-0.1-0.2-0.2-0.4-0.3-0.6
		c-0.1-0.2-0.3-0.3-0.5-0.3c-0.2-0.1-0.4-0.1-0.6-0.1c-0.2,0-0.4,0-0.6,0.1c-0.2,0-0.4,0.1-0.6,0.2v3.5c0.3,0.1,0.5,0.1,0.7,0.2
		c0.2,0,0.4,0,0.5,0c0.2,0,0.4,0,0.6-0.1c0.2-0.1,0.4-0.2,0.5-0.3c0.1-0.2,0.2-0.4,0.3-0.6C113.8,78.3,113.8,78,113.8,77.6z"/>
	<path class="st0" d="M118,75.1c0.4,0,0.7,0.1,0.9,0.2c0.3,0.1,0.5,0.2,0.6,0.4c0.2,0.2,0.3,0.4,0.4,0.7c0.1,0.3,0.1,0.5,0.1,0.8
		c0,0.3-0.1,0.4-0.2,0.5c-0.1,0.1-0.3,0.1-0.4,0.1h-2.8c0,0.3,0,0.6,0.1,0.8c0.1,0.2,0.2,0.4,0.3,0.5c0.1,0.1,0.3,0.2,0.5,0.3
		c0.2,0.1,0.4,0.1,0.6,0.1c0.2,0,0.4,0,0.6-0.1c0.2,0,0.4-0.1,0.5-0.2c0.1,0,0.1,0,0.2,0l0.2,0.3c0,0.1,0,0.1,0,0.2
		c-0.2,0.1-0.4,0.2-0.7,0.3c-0.2,0-0.5,0.1-0.7,0.1c-0.7,0-1.2-0.2-1.6-0.6c-0.4-0.4-0.6-1-0.6-1.9c0-0.4,0.1-0.8,0.2-1.1
		c0.1-0.3,0.3-0.6,0.4-0.8c0.2-0.2,0.4-0.4,0.7-0.5C117.4,75.1,117.7,75.1,118,75.1z M119.4,77.2c0-0.2,0-0.4-0.1-0.6
		c0-0.2-0.1-0.4-0.2-0.5c-0.1-0.1-0.2-0.3-0.4-0.3c-0.2-0.1-0.4-0.1-0.7-0.1c-0.2,0-0.4,0-0.6,0.1s-0.3,0.2-0.4,0.3
		c-0.1,0.1-0.2,0.3-0.3,0.5c-0.1,0.2-0.1,0.4-0.1,0.6H119.4z"/>
	<path class="st0" d="M125.6,77.6c0,0.8-0.2,1.5-0.6,1.9c-0.4,0.4-0.9,0.7-1.6,0.7c-0.7,0-1.2-0.2-1.6-0.6c-0.4-0.4-0.5-1.1-0.5-1.9
		c0-0.4,0.1-0.8,0.2-1.1c0.1-0.3,0.3-0.6,0.4-0.8c0.2-0.2,0.4-0.4,0.7-0.5c0.3-0.1,0.5-0.2,0.9-0.2c0.7,0,1.2,0.2,1.6,0.7
		C125.4,76.2,125.6,76.8,125.6,77.6z M124.9,77.6c0-0.3,0-0.5-0.1-0.7c0-0.2-0.1-0.5-0.2-0.6c-0.1-0.2-0.3-0.3-0.4-0.4
		c-0.2-0.1-0.4-0.2-0.7-0.2c-0.3,0-0.5,0.1-0.7,0.2c-0.2,0.1-0.3,0.2-0.5,0.4c-0.1,0.2-0.2,0.4-0.3,0.6c-0.1,0.2-0.1,0.5-0.1,0.7
		c0,0.3,0,0.6,0.1,0.8c0,0.2,0.1,0.5,0.2,0.6c0.1,0.2,0.3,0.3,0.4,0.4c0.2,0.1,0.4,0.1,0.7,0.1c0.3,0,0.5-0.1,0.7-0.2
		c0.2-0.1,0.3-0.3,0.5-0.5c0.1-0.2,0.2-0.4,0.2-0.6C124.9,78.1,124.9,77.9,124.9,77.6z"/>
	<path class="st0" d="M131.2,77.6c0,0.4,0,0.7-0.1,1c-0.1,0.3-0.2,0.6-0.4,0.8c-0.2,0.2-0.4,0.4-0.7,0.5c-0.3,0.1-0.6,0.2-0.9,0.2
		c-0.2,0-0.4,0-0.6,0c-0.2,0-0.4-0.1-0.7-0.1v1.9c0,0,0,0.1,0,0.1c0,0,0,0-0.1,0h-0.4c0,0-0.1,0-0.1,0c0,0,0,0,0-0.1v-6.3
		c0-0.1,0-0.1,0.1-0.1c0.3-0.1,0.6-0.2,0.9-0.3c0.3,0,0.6-0.1,0.9-0.1c0.4,0,0.7,0.1,1,0.2c0.3,0.1,0.5,0.3,0.7,0.5
		c0.2,0.2,0.3,0.5,0.4,0.8C131.2,76.9,131.2,77.2,131.2,77.6z M130.5,77.6c0-0.4,0-0.7-0.1-0.9c-0.1-0.2-0.2-0.4-0.3-0.6
		c-0.1-0.2-0.3-0.3-0.5-0.3c-0.2-0.1-0.4-0.1-0.6-0.1c-0.2,0-0.4,0-0.6,0.1c-0.2,0-0.4,0.1-0.6,0.2v3.5c0.3,0.1,0.5,0.1,0.7,0.2
		c0.2,0,0.4,0,0.5,0c0.2,0,0.4,0,0.6-0.1c0.2-0.1,0.4-0.2,0.5-0.3c0.1-0.2,0.2-0.4,0.3-0.6C130.5,78.3,130.5,78,130.5,77.6z"/>
	<path class="st0" d="M134.3,80C134.3,80,134.3,80,134.3,80c-0.2,0.1-0.3,0.1-0.4,0.1c-0.1,0-0.2,0-0.3,0c-0.3,0-0.5-0.1-0.6-0.2
		c-0.1-0.1-0.2-0.4-0.2-0.7v-5.9c0,0,0-0.1,0-0.1c0,0,0.1,0,0.1,0h0.4c0,0,0.1,0,0.1,0c0,0,0,0,0,0.1v5.7c0,0.2,0,0.3,0.1,0.4
		c0,0.1,0.1,0.1,0.3,0.1c0.1,0,0.1,0,0.2,0c0.1,0,0.1,0,0.2,0c0.1,0,0.1,0,0.1,0.1L134.3,80C134.3,79.9,134.3,80,134.3,80z"/>
	<path class="st0" d="M137.5,75.1c0.4,0,0.7,0.1,0.9,0.2c0.3,0.1,0.5,0.2,0.6,0.4c0.2,0.2,0.3,0.4,0.4,0.7c0.1,0.3,0.1,0.5,0.1,0.8
		c0,0.3-0.1,0.4-0.2,0.5c-0.1,0.1-0.3,0.1-0.4,0.1h-2.8c0,0.3,0,0.6,0.1,0.8c0.1,0.2,0.2,0.4,0.3,0.5c0.1,0.1,0.3,0.2,0.5,0.3
		c0.2,0.1,0.4,0.1,0.6,0.1c0.2,0,0.4,0,0.6-0.1c0.2,0,0.4-0.1,0.5-0.2c0.1,0,0.1,0,0.2,0l0.2,0.3c0,0.1,0,0.1,0,0.2
		c-0.2,0.1-0.4,0.2-0.7,0.3c-0.2,0-0.5,0.1-0.7,0.1c-0.7,0-1.2-0.2-1.6-0.6c-0.4-0.4-0.6-1-0.6-1.9c0-0.4,0.1-0.8,0.2-1.1
		c0.1-0.3,0.3-0.6,0.4-0.8c0.2-0.2,0.4-0.4,0.7-0.5C136.9,75.1,137.2,75.1,137.5,75.1z M138.9,77.2c0-0.2,0-0.4-0.1-0.6
		c0-0.2-0.1-0.4-0.2-0.5c-0.1-0.1-0.2-0.3-0.4-0.3c-0.2-0.1-0.4-0.1-0.7-0.1c-0.2,0-0.4,0-0.6,0.1c-0.2,0.1-0.3,0.2-0.4,0.3
		c-0.1,0.1-0.2,0.3-0.3,0.5c-0.1,0.2-0.1,0.4-0.1,0.6H138.9z"/>
	<path class="st0" d="M141.5,75.5c0,0,0,0.1-0.1,0.1c0,0-0.1,0-0.1,0h-0.2c-0.1,0-0.1,0-0.1-0.1c0-0.3,0.1-0.6,0.1-1
		c0-0.3,0-0.6,0.1-0.9c0,0,0-0.1,0-0.1c0,0,0.1,0,0.1,0h0.6c0.1,0,0.1,0,0.1,0c0,0,0,0.1,0,0.1c0,0,0,0,0,0c0,0,0,0,0,0L141.5,75.5z
		"/>
	<path class="st0" d="M146.7,78.8c0,0.2,0,0.4-0.1,0.6c-0.1,0.2-0.2,0.3-0.4,0.4c-0.2,0.1-0.3,0.2-0.5,0.3c-0.2,0.1-0.4,0.1-0.7,0.1
		c-0.3,0-0.6,0-0.9-0.1c-0.3-0.1-0.6-0.1-0.9-0.3c0,0-0.1,0-0.1-0.1c0,0,0-0.1,0-0.1l0.1-0.3c0-0.1,0.1-0.1,0.2-0.1
		c0.2,0.1,0.5,0.2,0.8,0.3c0.3,0.1,0.5,0.1,0.7,0.1c0.3,0,0.6-0.1,0.8-0.2c0.2-0.1,0.3-0.3,0.3-0.6c0-0.2-0.1-0.4-0.3-0.6
		c-0.2-0.1-0.5-0.3-0.9-0.4c-0.3-0.1-0.5-0.2-0.7-0.3c-0.2-0.1-0.3-0.2-0.5-0.3c-0.1-0.1-0.2-0.2-0.3-0.4c-0.1-0.1-0.1-0.3-0.1-0.5
		c0-0.4,0.1-0.7,0.4-0.9c0.3-0.2,0.7-0.4,1.2-0.4c0.3,0,0.5,0,0.7,0.1c0.2,0,0.5,0.1,0.7,0.2c0.1,0,0.1,0.1,0.1,0.2l-0.1,0.4
		c0,0,0,0-0.1,0.1c0,0,0,0-0.1,0c-0.2-0.1-0.4-0.2-0.6-0.2c-0.2,0-0.4-0.1-0.6-0.1c-0.3,0-0.5,0.1-0.7,0.2c-0.2,0.1-0.3,0.3-0.3,0.5
		c0,0.1,0,0.2,0.1,0.3c0,0.1,0.1,0.2,0.2,0.2c0.1,0.1,0.2,0.1,0.4,0.2c0.1,0.1,0.3,0.1,0.5,0.2c0.2,0.1,0.4,0.2,0.6,0.2
		c0.2,0.1,0.3,0.2,0.5,0.3c0.1,0.1,0.2,0.2,0.3,0.4C146.7,78.4,146.7,78.6,146.7,78.8z"/>
	<path class="st0" d="M155.2,77.6c0,0.4,0,0.7-0.1,1c-0.1,0.3-0.2,0.6-0.4,0.8c-0.2,0.2-0.4,0.4-0.7,0.5c-0.3,0.1-0.6,0.2-0.9,0.2
		c-0.2,0-0.4,0-0.6,0c-0.2,0-0.4-0.1-0.7-0.1v1.9c0,0,0,0.1,0,0.1c0,0,0,0-0.1,0h-0.4c0,0-0.1,0-0.1,0c0,0,0,0,0-0.1v-6.3
		c0-0.1,0-0.1,0.1-0.1c0.3-0.1,0.6-0.2,0.9-0.3c0.3,0,0.6-0.1,0.9-0.1c0.4,0,0.7,0.1,1,0.2c0.3,0.1,0.5,0.3,0.7,0.5
		c0.2,0.2,0.3,0.5,0.4,0.8C155.1,76.9,155.2,77.2,155.2,77.6z M154.5,77.6c0-0.4,0-0.7-0.1-0.9c-0.1-0.2-0.2-0.4-0.3-0.6
		c-0.1-0.2-0.3-0.3-0.5-0.3c-0.2-0.1-0.4-0.1-0.6-0.1c-0.2,0-0.4,0-0.6,0.1c-0.2,0-0.4,0.1-0.6,0.2v3.5c0.3,0.1,0.5,0.1,0.7,0.2
		c0.2,0,0.4,0,0.5,0c0.2,0,0.4,0,0.6-0.1c0.2-0.1,0.4-0.2,0.5-0.3c0.1-0.2,0.2-0.4,0.3-0.6C154.4,78.3,154.5,78,154.5,77.6z"/>
	<path class="st0" d="M160.4,79.6c0,0.1,0,0.2-0.1,0.2c-0.3,0.1-0.6,0.2-0.9,0.2c-0.3,0-0.6,0.1-0.9,0.1c-0.4,0-0.7,0-1-0.1
		c-0.3-0.1-0.5-0.2-0.6-0.3c-0.1-0.1-0.3-0.3-0.3-0.5c-0.1-0.2-0.1-0.4-0.1-0.6c0-0.2,0-0.4,0.1-0.6c0.1-0.2,0.2-0.4,0.4-0.5
		c0.2-0.1,0.4-0.3,0.6-0.3s0.5-0.1,0.9-0.1h1.2v-0.2c0-0.2,0-0.3,0-0.4c0-0.1-0.1-0.2-0.2-0.3c-0.1-0.1-0.2-0.2-0.4-0.2
		c-0.2-0.1-0.4-0.1-0.6-0.1c-0.2,0-0.4,0-0.7,0.1c-0.2,0-0.5,0.1-0.6,0.1c0,0-0.1,0-0.1,0c0,0,0,0-0.1-0.1l-0.1-0.3
		c0-0.1,0-0.1,0.1-0.1c0.1,0,0.2-0.1,0.4-0.1c0.1,0,0.3-0.1,0.4-0.1c0.1,0,0.3,0,0.4-0.1c0.1,0,0.3,0,0.4,0c0.6,0,1,0.1,1.3,0.4
		c0.3,0.3,0.4,0.7,0.4,1.2V79.6z M159.7,77.6h-1.2c-0.1,0-0.2,0-0.4,0c-0.2,0-0.3,0.1-0.4,0.1c-0.1,0.1-0.3,0.2-0.4,0.3
		s-0.1,0.3-0.1,0.6c0,0.2,0,0.3,0.1,0.5c0.1,0.1,0.2,0.2,0.3,0.3c0.1,0.1,0.3,0.1,0.4,0.2c0.2,0,0.3,0,0.5,0c0.1,0,0.1,0,0.2,0
		c0.1,0,0.2,0,0.3,0c0.1,0,0.2,0,0.4-0.1c0.1,0,0.2-0.1,0.3-0.1V77.6z"/>
	<path class="st0" d="M165,76.2C165,76.2,164.9,76.2,165,76.2c-0.1,0-0.1,0-0.1,0c-0.2-0.2-0.4-0.3-0.6-0.4s-0.5-0.1-0.8-0.1
		c-0.1,0-0.2,0-0.3,0c-0.1,0-0.2,0-0.3,0.1v4.2c0,0,0,0.1,0,0.1s-0.1,0-0.1,0h-0.4c0,0-0.1,0-0.1,0c0,0,0,0,0-0.1v-4.2
		c0-0.2,0-0.3,0.1-0.4c0.1-0.1,0.2-0.2,0.4-0.2c0.3,0,0.5-0.1,0.8-0.1c0.7,0,1.3,0.2,1.8,0.6c0,0,0,0.1,0,0.1L165,76.2z"/>
	<path class="st0" d="M166.1,75.7C166,75.7,166,75.7,166.1,75.7c-0.1-0.1-0.1-0.1-0.1-0.1v-0.2c0,0,0-0.1,0-0.1c0,0,0,0,0.1,0
		l0.7-0.1l0.1-0.9c0-0.1,0-0.1,0-0.1c0,0,0.1,0,0.1-0.1l0.2-0.1c0.1,0,0.1,0,0.1,0.1v1.1h1.1c0,0,0.1,0,0.1,0c0,0,0,0.1,0,0.1v0.3
		c0,0,0,0.1,0,0.1c0,0,0,0-0.1,0h-1.1v3.1c0,0.2,0,0.4,0.1,0.5c0.1,0.1,0.3,0.2,0.5,0.2c0.1,0,0.2,0,0.3,0c0.1,0,0.3,0,0.4-0.1
		c0,0,0.1,0,0.1,0c0,0,0,0,0,0.1l0.1,0.4c0,0,0,0.1,0,0.1c0,0,0,0-0.1,0.1c-0.2,0-0.4,0.1-0.5,0.1c-0.2,0-0.3,0-0.4,0
		c-0.2,0-0.4,0-0.6-0.1c-0.2,0-0.3-0.1-0.4-0.2c-0.1-0.1-0.2-0.2-0.2-0.4c0-0.2-0.1-0.3-0.1-0.5v-3.2H166.1z"/>
	<path class="st0" d="M172,80.9c-0.1,0.4-0.3,0.7-0.5,0.9c-0.2,0.2-0.5,0.2-0.8,0.2c-0.1,0-0.2,0-0.3,0c-0.1,0-0.3,0-0.4-0.1
		c-0.1,0-0.1-0.1-0.1-0.1l0.1-0.3c0,0,0-0.1,0.1-0.1c0,0,0.1,0,0.1,0c0.1,0,0.2,0.1,0.3,0.1c0.1,0,0.1,0,0.2,0c0.1,0,0.2,0,0.3,0
		c0.1,0,0.2,0,0.2-0.1c0.1,0,0.1-0.1,0.2-0.2c0.1-0.1,0.1-0.2,0.1-0.3l0.3-0.8h-0.2c-0.1,0-0.1,0-0.2,0c-0.1,0-0.1-0.1-0.1-0.2
		l-1.5-4.5c0-0.1,0-0.1,0.1-0.1h0.5c0,0,0.1,0,0.1,0c0,0,0,0,0,0.1c0,0.1,0.1,0.3,0.2,0.6c0.1,0.3,0.2,0.5,0.3,0.8
		c0.1,0.3,0.2,0.5,0.3,0.8c0.1,0.3,0.1,0.4,0.2,0.6c0,0,0,0.1,0.1,0.3c0,0.1,0.1,0.3,0.1,0.5c0,0.2,0.1,0.3,0.1,0.5
		c0,0.1,0.1,0.2,0.1,0.3h0c0-0.1,0.1-0.3,0.1-0.4c0.1-0.2,0.1-0.3,0.2-0.5c0.1-0.2,0.1-0.3,0.1-0.4c0-0.1,0.1-0.2,0.1-0.2
		c0,0,0.1-0.2,0.1-0.3c0.1-0.2,0.1-0.4,0.2-0.6c0.1-0.3,0.2-0.5,0.3-0.8c0.1-0.3,0.2-0.6,0.3-0.9c0,0,0-0.1,0-0.1c0,0,0,0,0.1,0h0.5
		c0.1,0,0.1,0,0.1,0.1L172,80.9z"/>
</g>
<g>
	<g>
		<path class="st0" d="M80.2,25c5,0,8.7,1.2,11.1,3.7s3.7,6,3.7,10.6c0,2.2-0.4,3.7-1.3,4.5c-0.8,0.8-2,1.2-3.5,1.2H74.1
			c0,1.4,0.3,2.5,0.7,3.4c0.4,0.9,0.9,1.6,1.6,2.2c0.7,0.6,1.5,0.9,2.4,1.1c0.9,0.2,1.9,0.3,3,0.3c1.2,0,2.5-0.1,3.7-0.4
			c1.3-0.3,2.5-0.7,3.6-1.1c0.5-0.2,0.9-0.2,1-0.2c0.2,0.1,0.4,0.3,0.5,0.6l2,4.6c0.2,0.4,0.2,0.7,0.1,0.9c-0.1,0.2-0.3,0.4-0.7,0.6
			c-1.6,1-3.4,1.7-5.5,2.2c-2.1,0.4-4,0.7-5.8,0.7c-5.5,0-9.7-1.4-12.3-4.1c-2.7-2.8-4-7.1-4-13.1c0-2.8,0.4-5.3,1.1-7.5
			c0.7-2.2,1.8-4,3.2-5.6c1.4-1.5,3-2.7,5-3.5C75.6,25.4,77.8,25,80.2,25z M80.4,32.7c-1.7,0-3.2,0.6-4.3,1.8
			c-1.1,1.2-1.7,2.8-1.9,4.7h11.9c0-0.9-0.1-1.8-0.3-2.6c-0.2-0.8-0.5-1.5-0.9-2.1c-0.4-0.6-1-1-1.7-1.4
			C82.5,32.8,81.5,32.7,80.4,32.7z"/>
		<path class="st0" d="M111.7,71.1c0,0.5-0.1,0.8-0.2,0.9c-0.1,0.1-0.5,0.2-1.1,0.2h-6.6c-0.5,0-0.8-0.1-1-0.2
			c-0.2-0.1-0.3-0.4-0.3-0.9V29.7c0-0.5,0.1-0.8,0.2-1.1c0.1-0.3,0.5-0.6,1-0.9c2-0.9,4.3-1.6,6.8-2c2.5-0.4,4.9-0.6,7.2-0.6
			c3,0,5.5,0.5,7.6,1.4c2.1,0.9,3.7,2.1,5,3.7c1.2,1.5,2.1,3.4,2.7,5.5c0.5,2.1,0.8,4.4,0.8,6.8c0,2.4-0.3,4.6-0.9,6.7
			c-0.6,2.1-1.5,3.9-2.7,5.5c-1.2,1.6-2.8,2.8-4.7,3.7c-1.9,0.9-4.1,1.4-6.7,1.4c-1.3,0-2.5-0.1-3.5-0.2c-1.1-0.1-2.3-0.3-3.7-0.6
			V71.1z M124.2,42.3c0-1.7-0.2-3.2-0.5-4.4c-0.3-1.2-0.8-2.1-1.5-2.9c-0.7-0.7-1.5-1.2-2.4-1.5c-1-0.3-2-0.4-3.2-0.4
			c-0.6,0-1.4,0.1-2.3,0.2c-1,0.1-1.8,0.3-2.5,0.5v17.3c1.1,0.3,2.1,0.5,3,0.6c0.9,0.1,1.6,0.1,2.3,0.1c2.1,0,3.9-0.7,5.2-2.2
			C123.5,48.2,124.2,45.8,124.2,42.3z"/>
		<path class="st0" d="M150.8,71.1c0,0.5-0.1,0.8-0.2,0.9c-0.1,0.1-0.5,0.2-1.1,0.2h-6.6c-0.5,0-0.8-0.1-1-0.2
			c-0.2-0.1-0.3-0.4-0.3-0.9V29.7c0-0.5,0.1-0.8,0.2-1.1c0.1-0.3,0.5-0.6,1-0.9c2-0.9,4.3-1.6,6.8-2c2.5-0.4,4.9-0.6,7.2-0.6
			c3,0,5.5,0.5,7.6,1.4c2.1,0.9,3.7,2.1,5,3.7c1.2,1.5,2.1,3.4,2.7,5.5c0.5,2.1,0.8,4.4,0.8,6.8c0,2.4-0.3,4.6-0.9,6.7
			c-0.6,2.1-1.5,3.9-2.7,5.5c-1.2,1.6-2.8,2.8-4.7,3.7c-1.9,0.9-4.1,1.4-6.7,1.4c-1.3,0-2.5-0.1-3.5-0.2c-1.1-0.1-2.3-0.3-3.7-0.6
			V71.1z M163.3,42.3c0-1.7-0.2-3.2-0.5-4.4c-0.3-1.2-0.8-2.1-1.5-2.9c-0.7-0.7-1.5-1.2-2.4-1.5c-1-0.3-2-0.4-3.2-0.4
			c-0.6,0-1.4,0.1-2.3,0.2c-1,0.1-1.8,0.3-2.5,0.5v17.3c1.1,0.3,2.1,0.5,3,0.6c0.9,0.1,1.6,0.1,2.3,0.1c2.1,0,3.9-0.7,5.2-2.2
			C162.6,48.2,163.3,45.8,163.3,42.3z"/>
	</g>
</g>
<polygon class="st1" points="59.8,66.3 56.8,64.2 60.5,64.1 61.7,60.5 62.8,64.1 66.5,64 63.5,66.2 64.6,69.8 61.6,67.6 58.7,69.8 
	"/>
<polygon class="st1" points="49.4,70.5 51,68 51.2,70.9 54.1,71.6 51.4,72.7 51.6,75.6 49.7,73.4 47,74.5 48.5,72 46.6,69.8 "/>
<polygon class="st1" points="27.7,76.3 29.1,74.9 28.8,76.9 30.6,77.8 28.6,78.1 28.3,80 27.4,78.2 25.5,78.4 26.9,77.1 26,75.3 "/>
<polygon class="st1" points="38.7,74.1 40.2,72.3 40.1,74.7 42.4,75.6 40,76.1 39.9,78.5 38.6,76.5 36.4,77 37.8,75.2 36.5,73.3 "/>
<linearGradient id="SVGID_1_" gradientUnits="userSpaceOnUse" x1="25.5274" y1="-2.343" x2="52.1714" y2="60.37">
	<stop  offset="0" style="stop-color:#FFEC00"/>
	<stop  offset="0.2226" style="stop-color:#FCD40C"/>
	<stop  offset="0.4835" style="stop-color:#FAC016"/>
	<stop  offset="0.7437" style="stop-color:#F8B41C"/>
	<stop  offset="1" style="stop-color:#F8B01E"/>
</linearGradient>
<path class="st2" d="M47.6,22.9c15.8-8.3,29.5-0.7,29.5-0.7c-6.9-9.7-20.6-9-26.6-5.5C47.9,7.1,37.9,0.8,28,0.1
	C18.1-0.7,7.7,3.9,3.4,12.3s-9.7,26.8,20.1,60.3l0,0C10.4,51.6,7.9,39.7,8.2,28.2c0.3-9.8,6.2-16.8,13.8-19
	C38.5,5.2,46,17,47.6,22.9z"/>
</svg>
