<svg width="171" height="96" viewBox="0 0 171 96" fill="none" xmlns="http://www.w3.org/2000/svg">
<path d="M170.515 75.0452L0 96V0H170.515V75.0452Z" fill="#57B45F"/>
<path d="M87.1339 38.5775C87.0051 38.415 86.9422 38.2048 86.959 37.993V25.9823C86.9502 25.8782 86.9612 25.7733 86.9912 25.6738C87.0213 25.5743 87.0698 25.4823 87.1339 25.4031C87.289 25.2671 87.4885 25.2022 87.6885 25.2224H94.3496C94.4319 25.2158 94.5143 25.2337 94.5875 25.2741C94.6608 25.3144 94.722 25.3756 94.7644 25.4509C94.8654 25.6816 94.9101 25.9357 94.8943 26.1896V26.7795C94.9101 27.0334 94.8654 27.2875 94.7644 27.5182C94.722 27.5935 94.6608 27.6547 94.5875 27.695C94.5143 27.7354 94.4319 27.7533 94.3496 27.7467H89.7673V30.5581H93.8499C93.9322 30.5515 94.0146 30.5694 94.0878 30.6097C94.161 30.6501 94.2223 30.7113 94.2647 30.7866C94.3642 31.0177 94.4071 31.2718 94.3896 31.5253V32.1205C94.4071 32.3757 94.3642 32.6315 94.2647 32.8645C94.2215 32.9389 94.1601 32.9995 94.087 33.0397C94.014 33.08 93.932 33.0984 93.8499 33.093H89.7573V36.2286H94.3496C94.4319 36.222 94.5143 36.2399 94.5875 36.2803C94.6608 36.3206 94.722 36.3818 94.7644 36.4571C94.8656 36.6839 94.9103 36.9346 94.8943 37.1852V37.7963C94.9101 38.0503 94.8654 38.3043 94.7644 38.535C94.722 38.6103 94.6608 38.6715 94.5875 38.7119C94.5143 38.7522 94.4319 38.7701 94.3496 38.7635H87.6885C87.5891 38.7728 87.489 38.7612 87.3938 38.7292C87.2986 38.6973 87.2103 38.6458 87.1339 38.5775Z" fill="white"/>
<path d="M97.203 38.1577C96.7163 37.479 96.4831 36.6328 96.5484 35.7821V29.2347C96.5458 29.1394 96.5695 29.0453 96.6165 28.9641C96.6636 28.8829 96.7319 28.8181 96.8132 28.7777C97.0741 28.6562 97.3586 28.6034 97.6427 28.6236H98.1424C98.4266 28.6027 98.7112 28.6556 98.9719 28.7777C99.054 28.8169 99.1231 28.8815 99.1703 28.963C99.2175 29.0444 99.2407 29.1391 99.2368 29.2347V35.3463C99.2159 35.6712 99.3084 35.9929 99.4966 36.2498C99.6084 36.3606 99.7411 36.4449 99.8858 36.4971C100.031 36.5494 100.184 36.5683 100.336 36.5527C100.657 36.5586 100.969 36.4374 101.211 36.2126C101.45 35.9954 101.647 35.7299 101.79 35.4314V29.2347C101.786 29.1391 101.809 29.0444 101.857 28.963C101.904 28.8815 101.973 28.8169 102.055 28.7777C102.316 28.6556 102.6 28.6027 102.885 28.6236H103.384C103.668 28.6034 103.953 28.6562 104.214 28.7777C104.295 28.8181 104.363 28.8829 104.411 28.9641C104.458 29.0453 104.481 29.1394 104.479 29.2347V35.3463C104.479 35.9522 104.479 36.4092 104.524 36.7759C104.569 37.1426 104.594 37.4402 104.644 37.7378C104.671 37.8743 104.688 38.0129 104.694 38.1523C104.694 38.3012 104.569 38.4181 104.314 38.5137C104.034 38.6167 103.744 38.6862 103.449 38.721C103.191 38.7583 102.931 38.7796 102.67 38.7848C102.575 38.791 102.48 38.7683 102.397 38.7194C102.314 38.6704 102.245 38.5972 102.2 38.5084C102.091 38.2573 102.017 37.9905 101.98 37.7166L101.93 37.4455C101.624 37.884 101.232 38.2466 100.781 38.5084C100.307 38.7928 99.7712 38.9412 99.2268 38.9389C98.8566 38.9697 98.4844 38.9159 98.1354 38.7812C97.7863 38.6464 97.4684 38.4338 97.203 38.1577Z" fill="white"/>
<path d="M106.637 38.1844V32.0462C106.649 31.2697 106.59 30.4938 106.463 29.7291C106.435 29.5927 106.418 29.454 106.413 29.3146C106.413 29.1711 106.538 29.0542 106.797 28.9585C107.08 28.8626 107.372 28.7967 107.667 28.7619C107.927 28.7203 108.189 28.6972 108.451 28.6928C108.54 28.6853 108.629 28.7048 108.708 28.7491C108.787 28.7933 108.852 28.8604 108.896 28.9426C109 29.1762 109.078 29.4225 109.126 29.676L109.186 29.9576C109.387 29.5514 109.66 29.1904 109.99 28.8948C110.323 28.6181 110.738 28.4768 111.16 28.4962C111.311 28.4782 111.464 28.4981 111.606 28.5544C111.748 28.6107 111.876 28.7018 111.979 28.8204C112.127 29.0282 112.206 29.2824 112.204 29.5431C112.197 29.7503 112.173 29.9565 112.134 30.1596C112.093 30.4014 112.024 30.637 111.929 30.8611C111.839 31.0631 111.739 31.164 111.63 31.164C111.516 31.157 111.404 31.1356 111.295 31.1003C111.124 31.048 110.948 31.0194 110.77 31.0152C110.455 31.007 110.147 31.1118 109.896 31.3128C109.669 31.4879 109.479 31.7126 109.341 31.9718V38.1844C109.341 38.5936 108.971 38.7956 108.232 38.7956H107.732C106.997 38.8009 106.637 38.5936 106.637 38.1844Z" fill="white"/>
<path d="M113.988 37.5784C113.234 36.6749 112.839 35.3835 112.839 33.6882C112.839 31.9929 113.214 30.7174 113.968 29.8246C114.723 28.9318 115.822 28.4854 117.261 28.4854C118.7 28.4854 119.795 28.9318 120.539 29.8193C121.284 30.7068 121.664 31.9982 121.664 33.6882C121.664 35.3782 121.334 36.6749 120.559 37.5784C119.785 38.4818 118.72 38.9282 117.281 38.9282C116.673 38.9717 116.063 38.8734 115.494 38.6403C114.926 38.4071 114.412 38.0447 113.988 37.5784ZM118.546 35.9096C118.855 35.2176 118.995 34.4532 118.95 33.6882C118.994 32.9284 118.854 32.1693 118.546 31.4827C118.421 31.2452 118.237 31.0496 118.014 30.9181C117.79 30.7865 117.536 30.7244 117.281 30.7387C116.149 30.7387 115.582 31.7218 115.582 33.6882C115.536 34.4527 115.679 35.2168 115.997 35.9043C116.121 36.1484 116.307 36.3503 116.535 36.4866C116.762 36.623 117.021 36.6882 117.281 36.6749C117.538 36.6872 117.794 36.6218 118.017 36.4864C118.241 36.351 118.424 36.151 118.546 35.9096Z" fill="white"/>
<path d="M123.722 42.6004C123.642 42.5548 123.575 42.4866 123.528 42.4032C123.481 42.3198 123.457 42.2245 123.458 42.1274V32.03C123.463 31.5741 123.447 31.1182 123.408 30.6642C123.378 30.3347 123.338 30.0158 123.293 29.7129C123.265 29.5764 123.249 29.4378 123.243 29.2984C123.243 29.1549 123.368 29.038 123.617 28.9423C123.899 28.8469 124.188 28.7811 124.482 28.7457C124.742 28.7041 125.004 28.681 125.266 28.6766C125.357 28.6675 125.449 28.6868 125.53 28.7321C125.61 28.7774 125.677 28.8467 125.721 28.9317C125.827 29.1665 125.904 29.4147 125.951 29.6704L126.006 29.9202C126.224 29.4737 126.559 29.1044 126.97 28.8573C127.418 28.5863 127.925 28.4469 128.44 28.4534C129.073 28.4448 129.692 28.6597 130.199 29.0645C130.751 29.5288 131.168 30.1497 131.403 30.8555C131.712 31.761 131.859 32.7198 131.838 33.6828C131.856 34.6227 131.704 35.5575 131.388 36.4357C131.13 37.17 130.675 37.8076 130.079 38.2691C129.469 38.7074 128.746 38.9322 128.01 38.9122C127.341 38.9172 126.687 38.7038 126.136 38.301V42.1115C126.137 42.208 126.114 42.303 126.068 42.3863C126.022 42.4696 125.956 42.5381 125.876 42.5845C125.618 42.7087 125.335 42.7635 125.052 42.7439H124.552C124.269 42.7685 123.984 42.7192 123.722 42.6004ZM129.104 33.7147C129.104 31.7908 128.605 30.8289 127.64 30.8289C127.07 30.8289 126.566 31.2063 126.141 31.9715V36.2815C126.531 36.5181 126.971 36.646 127.42 36.6535C128.545 36.6748 129.104 35.6704 129.104 33.7147Z" fill="white"/>
<path d="M134.381 37.5623C133.55 36.5026 133.13 35.1455 133.207 33.7678C133.207 31.9467 133.598 30.611 134.381 29.7607C134.811 29.3228 135.322 28.9836 135.881 28.7642C136.439 28.5448 137.034 28.4499 137.629 28.4852C138.424 28.4502 139.209 28.6827 139.873 29.1495C140.457 29.5961 140.902 30.2178 141.152 30.9352C141.432 31.7466 141.569 32.6059 141.557 33.4702C141.538 33.6309 141.475 33.7822 141.377 33.906C141.26 34.0861 141.124 34.2519 140.972 34.4002C140.882 34.51 140.761 34.5863 140.627 34.6181H135.99C135.987 34.9146 136.04 35.2087 136.146 35.4827C136.253 35.7567 136.411 36.005 136.61 36.2124C137.031 36.5495 137.552 36.7154 138.079 36.6801C138.391 36.6841 138.702 36.6412 139.003 36.5526C139.278 36.4675 139.578 36.3559 139.888 36.2231C140.009 36.1509 140.141 36.1023 140.278 36.0796C140.36 36.0918 140.439 36.1228 140.508 36.1705C140.578 36.2182 140.638 36.2815 140.682 36.3559C140.834 36.5504 140.962 36.7647 141.062 36.9937C141.147 37.1584 141.201 37.3388 141.222 37.5251C141.222 37.8227 141.032 38.0778 140.652 38.2904C140.23 38.5165 139.779 38.6775 139.313 38.7687C138.866 38.8684 138.411 38.9236 137.954 38.9334C136.36 38.9281 135.166 38.4711 134.381 37.5623ZM138.938 32.7102C138.961 32.2097 138.847 31.7129 138.609 31.2806C138.503 31.1039 138.354 30.9611 138.178 30.8675C138.002 30.7738 137.805 30.733 137.609 30.7492C136.703 30.7492 136.157 31.4064 135.97 32.7208L138.938 32.7102Z" fill="white"/>
<path d="M143.321 38.1469C142.868 37.5713 142.636 36.8347 142.672 36.0849C142.662 35.4778 142.792 34.8775 143.051 34.3364C143.406 33.7245 143.948 33.261 144.585 33.0238C145.644 32.6208 146.766 32.4403 147.889 32.4923V31.8493C147.901 31.6917 147.877 31.5334 147.818 31.388C147.76 31.2426 147.669 31.1146 147.554 31.0149C147.233 30.8024 146.856 30.7055 146.479 30.7385C146.124 30.7318 145.769 30.7784 145.425 30.8767C145.1 30.9791 144.782 31.1015 144.471 31.2434C144.368 31.3016 144.259 31.3445 144.146 31.371C144.021 31.371 143.886 31.2753 143.741 31.0787C143.586 30.8719 143.457 30.6451 143.356 30.4037C143.266 30.224 143.21 30.0272 143.191 29.8245C143.191 29.6013 143.346 29.3834 143.646 29.1761C144.036 28.938 144.459 28.7692 144.9 28.6765C145.483 28.5436 146.078 28.4794 146.674 28.4852C148.038 28.4852 149.028 28.7775 149.672 29.3515C149.983 29.6482 150.228 30.0149 150.389 30.4249C150.55 30.835 150.622 31.278 150.602 31.7217V35.3462C150.602 35.9449 150.617 36.4126 150.647 36.7492C150.677 37.084 150.722 37.4135 150.777 37.7377C150.804 37.8741 150.821 38.0128 150.827 38.1522C150.827 38.301 150.702 38.4179 150.442 38.5136C150.158 38.6163 149.865 38.6858 149.568 38.7208C149.307 38.7582 149.045 38.7795 148.783 38.7846C148.689 38.7878 148.595 38.7625 148.514 38.7118C148.433 38.661 148.367 38.5867 148.323 38.4976C148.215 38.2459 148.141 37.9794 148.103 37.7058V37.5782C148.099 37.5328 148.089 37.4881 148.073 37.4454C147.95 37.6416 147.804 37.8202 147.639 37.9768C147.372 38.2385 147.066 38.4522 146.734 38.6092C146.316 38.8132 145.86 38.9131 145.4 38.9015C145.023 38.9452 144.641 38.9002 144.282 38.7698C143.923 38.6394 143.595 38.4268 143.321 38.1469ZM147.214 36.3081C147.509 36.0861 147.742 35.783 147.889 35.4312V34.3683C146.19 34.3683 145.34 34.8448 145.34 35.7979C145.336 35.9129 145.355 36.0275 145.397 36.1339C145.438 36.2403 145.501 36.3359 145.58 36.4144C145.766 36.5874 146.008 36.6753 146.254 36.6588C146.6 36.6531 146.934 36.5302 147.209 36.3081H147.214Z" fill="white"/>
<path d="M152.72 38.1843V32.0461C152.734 31.2695 152.676 30.4933 152.546 29.729C152.518 29.5926 152.501 29.4539 152.496 29.3145C152.496 29.171 152.626 29.0541 152.88 28.9584C153.163 28.8625 153.455 28.7966 153.75 28.7618C154.01 28.7202 154.272 28.6971 154.534 28.6927C154.623 28.6846 154.712 28.7038 154.791 28.7481C154.87 28.7924 154.935 28.8599 154.979 28.9425C155.083 29.1761 155.161 29.4224 155.209 29.6759L155.269 29.9576C155.578 29.5197 155.972 29.1573 156.423 28.8947C156.895 28.6095 157.43 28.4611 157.972 28.4642C158.343 28.4323 158.715 28.4845 159.065 28.6173C159.415 28.7502 159.734 28.9607 160.001 29.2348C160.488 29.9074 160.721 30.7487 160.656 31.5944V38.1843C160.656 38.5935 160.286 38.7955 159.546 38.7955H159.047C158.322 38.7955 157.962 38.5935 157.962 38.1843V32.0461C157.985 31.7243 157.892 31.4052 157.703 31.1533C157.589 31.0429 157.456 30.9589 157.31 30.9067C157.165 30.8546 157.011 30.8354 156.858 30.8504C156.538 30.8472 156.228 30.9703 155.989 31.1958C155.749 31.4103 155.554 31.6743 155.414 31.9717V38.1843C155.414 38.5935 155.044 38.7955 154.31 38.7955H153.81C153.085 38.8008 152.72 38.5935 152.72 38.1843Z" fill="white"/>
<path d="M87.8537 53.4155C86.8809 52.2853 86.3945 50.5262 86.3945 48.1383C86.3945 43.5324 88.4217 41.2295 92.476 41.2295C93.061 41.2328 93.6447 41.2915 94.2199 41.4049C94.7473 41.4944 95.2614 41.657 95.749 41.8885C96.1588 42.0957 96.3637 42.3243 96.3637 42.5794C96.3467 42.8301 96.2767 43.0736 96.1588 43.2915C96.027 43.5752 95.8588 43.8381 95.6591 44.0727C95.6017 44.1618 95.5277 44.2375 95.4418 44.2951C95.3559 44.3526 95.2597 44.3909 95.1594 44.4075C95.0548 44.3892 94.9536 44.3534 94.8596 44.3012C94.5093 44.1544 94.1504 44.032 93.7852 43.9345C93.3289 43.8301 92.8627 43.7819 92.396 43.7911C91.9477 43.7527 91.4974 43.8292 91.0826 44.0142C90.6679 44.1991 90.3009 44.4871 90.0124 44.8539C89.496 45.5625 89.2395 46.6538 89.2429 48.1276C89.2462 49.6015 89.5044 50.6998 90.0174 51.4226C90.2909 51.7971 90.6468 52.0942 91.0538 52.2879C91.4607 52.4816 91.9062 52.5659 92.351 52.5333C92.829 52.54 93.3063 52.4937 93.7752 52.3951V49.9611H92.2011C92.1188 49.9683 92.0362 49.9507 91.9629 49.9103C91.8895 49.8698 91.8283 49.8083 91.7864 49.7326C91.6854 49.5019 91.6407 49.2478 91.6564 48.9939V48.3668C91.6404 48.1163 91.6852 47.8656 91.7864 47.6387C91.8283 47.563 91.8895 47.5015 91.9629 47.461C92.0362 47.4206 92.1188 47.403 92.2011 47.4102H95.894C96.0962 47.3913 96.2977 47.4539 96.4586 47.5856C96.5856 47.7489 96.6467 47.9591 96.6285 48.1701V53.559C96.6285 54.1383 96.1738 54.5422 95.2593 54.76C94.3148 54.9868 93.3493 55.0991 92.381 55.0949C90.3389 55.109 88.8298 54.5492 87.8537 53.4155Z" fill="white"/>
<path d="M98.7971 54.3719V48.2337C98.8085 47.4572 98.7499 46.6813 98.6222 45.9166C98.5948 45.7802 98.5781 45.6415 98.5723 45.5021C98.5723 45.3586 98.7022 45.2417 98.957 45.1513C99.2392 45.051 99.5307 44.9833 99.8265 44.9494C100.086 44.9078 100.348 44.8847 100.611 44.8803C100.7 44.8722 100.789 44.8914 100.868 44.9357C100.947 44.98 101.012 45.0475 101.056 45.1301C101.16 45.3637 101.237 45.61 101.286 45.8635L101.346 46.1451C101.547 45.7389 101.82 45.3779 102.15 45.0823C102.483 44.8064 102.898 44.6652 103.319 44.6837C103.47 44.6657 103.623 44.6856 103.766 44.7419C103.908 44.7982 104.036 44.8893 104.139 45.0079C104.276 45.2125 104.348 45.4583 104.344 45.7094C104.336 45.9165 104.313 46.1227 104.274 46.3258C104.233 46.5677 104.164 46.8032 104.069 47.0273C103.979 47.2293 103.879 47.3303 103.769 47.3303C103.656 47.3232 103.543 47.3018 103.434 47.2665C103.272 47.2164 103.104 47.1878 102.935 47.1815C102.618 47.1733 102.309 47.2781 102.055 47.4791C101.826 47.6589 101.634 47.8868 101.491 48.1487V54.3719C101.491 54.7811 101.121 54.9831 100.381 54.9831H99.8815C99.1569 54.9831 98.7971 54.7811 98.7971 54.3719Z" fill="white"/>
<path d="M106.217 53.7504C105.386 52.6928 104.964 51.3378 105.038 49.9612C105.038 48.1402 105.431 46.8045 106.217 45.9541C106.647 45.5161 107.156 45.1769 107.714 44.9574C108.272 44.738 108.867 44.6431 109.461 44.6787C110.257 44.6436 111.044 44.876 111.709 45.343C112.292 45.7911 112.737 46.4124 112.989 47.1286C113.269 47.9418 113.406 48.8029 113.393 49.6689C113.372 49.8291 113.31 49.98 113.213 50.1047C113.095 50.2821 112.959 50.446 112.809 50.5937C112.717 50.7047 112.595 50.7812 112.459 50.8115H107.842C107.84 51.1078 107.894 51.4014 108 51.6751C108.107 51.9489 108.263 52.1973 108.461 52.4059C108.885 52.7373 109.405 52.9009 109.93 52.8682C110.244 52.8722 110.557 52.8293 110.86 52.7407C111.16 52.648 111.455 52.538 111.744 52.4112C111.865 52.3391 111.997 52.2905 112.134 52.2677C112.216 52.2812 112.294 52.3128 112.364 52.3604C112.434 52.408 112.493 52.4705 112.539 52.544C112.689 52.7387 112.815 52.953 112.914 53.1818C112.998 53.3464 113.053 53.5268 113.073 53.7132C113.073 54.0055 112.884 54.2447 112.504 54.4732C112.081 54.6998 111.63 54.8609 111.165 54.9515C110.719 55.0541 110.266 55.1093 109.81 55.1162C108.198 55.1162 107 54.661 106.217 53.7504ZM110.77 48.8983C110.792 48.3986 110.679 47.9025 110.445 47.4688C110.339 47.2925 110.19 47.15 110.014 47.0564C109.838 46.9628 109.642 46.9217 109.446 46.9373C108.546 46.9373 108 47.5945 107.807 48.909L110.77 48.8983Z" fill="white"/>
<path d="M115.907 53.7504C115.075 52.6928 114.653 51.3378 114.728 49.9612C114.728 48.1402 115.121 46.8045 115.907 45.9541C116.336 45.5161 116.846 45.1769 117.404 44.9574C117.962 44.738 118.556 44.6431 119.15 44.6787C119.947 44.6436 120.733 44.876 121.399 45.343C121.983 45.7895 122.428 46.4113 122.678 47.1286C122.958 47.9418 123.096 48.8029 123.083 49.6689C123.062 49.8291 123 49.98 122.903 50.1047C122.784 50.2821 122.649 50.446 122.498 50.5937C122.407 50.7047 122.284 50.7812 122.148 50.8115H117.511C117.509 51.1078 117.563 51.4014 117.67 51.6751C117.776 51.9489 117.933 52.1973 118.131 52.4059C118.555 52.7373 119.074 52.9009 119.6 52.8682C119.914 52.8722 120.227 52.8293 120.529 52.7407C120.829 52.648 121.125 52.538 121.414 52.4112C121.535 52.3391 121.667 52.2905 121.803 52.2677C121.885 52.2812 121.964 52.3128 122.033 52.3604C122.103 52.408 122.163 52.4705 122.208 52.544C122.358 52.7387 122.484 52.953 122.583 53.1818C122.67 53.3455 122.724 53.5263 122.743 53.7132C122.743 54.0055 122.553 54.2447 122.173 54.4732C121.751 54.6998 121.3 54.8609 120.834 54.9515C120.389 55.0541 119.935 55.1093 119.48 55.1162C117.881 55.1162 116.69 54.661 115.907 53.7504ZM120.459 48.8983C120.484 48.3984 120.371 47.9016 120.134 47.4688C120.029 47.2925 119.88 47.15 119.704 47.0564C119.528 46.9628 119.331 46.9217 119.135 46.9373C118.236 46.9373 117.689 47.5945 117.496 48.909L120.459 48.8983Z" fill="white"/>
<path d="M124.727 54.3719V48.2337C124.738 47.4572 124.68 46.6813 124.552 45.9166C124.525 45.7802 124.508 45.6415 124.502 45.5021C124.502 45.3586 124.627 45.2417 124.882 45.1514C125.164 45.0521 125.456 44.9845 125.751 44.9494C126.011 44.908 126.273 44.885 126.536 44.8803C126.625 44.8715 126.714 44.8904 126.793 44.9348C126.872 44.9792 126.937 45.047 126.98 45.1301C127.087 45.3627 127.165 45.6093 127.21 45.8635L127.275 46.1452C127.584 45.7089 127.976 45.3467 128.425 45.0823C128.897 44.7978 129.431 44.6495 129.974 44.6518C130.344 44.6188 130.716 44.67 131.066 44.802C131.415 44.9339 131.735 45.1436 132.003 45.4171C132.488 46.0901 132.721 46.9311 132.657 47.7767V54.3719C132.657 54.7811 132.287 54.9831 131.553 54.9831H131.053C130.334 54.9831 129.969 54.7811 129.969 54.3719V48.2337C129.99 47.9121 129.897 47.5936 129.709 47.3409C129.596 47.2305 129.462 47.1465 129.317 47.0944C129.171 47.0422 129.017 47.023 128.864 47.038C128.545 47.0368 128.236 47.1596 127.995 47.3834C127.756 47.5979 127.56 47.8619 127.42 48.1593V54.3719C127.42 54.7811 127.055 54.9831 126.316 54.9831H125.816C125.087 54.9831 124.727 54.7811 124.727 54.3719Z" fill="white"/>
<path d="M135.795 54.9513C135.391 54.8647 135.002 54.7066 134.646 54.4836C134.519 54.4204 134.411 54.3228 134.331 54.2005C134.251 54.0783 134.203 53.9358 134.191 53.7874C134.205 53.5776 134.259 53.373 134.351 53.1869C134.456 52.9599 134.589 52.749 134.746 52.5598C134.844 52.4187 134.989 52.3235 135.151 52.2941C135.291 52.3225 135.426 52.3745 135.551 52.4482C135.773 52.5583 136.001 52.6524 136.235 52.7298C136.478 52.8078 136.731 52.8454 136.985 52.8414C137.263 52.8567 137.54 52.7786 137.774 52.6182C137.862 52.5475 137.933 52.4547 137.979 52.348C138.025 52.2414 138.046 52.1243 138.039 52.0071C138.044 51.8239 137.988 51.6447 137.879 51.5022C137.767 51.363 137.629 51.2492 137.474 51.1674C137.31 51.0824 137.08 50.9761 136.78 50.8538L136.485 50.7316C136.127 50.5931 135.784 50.415 135.461 50.2002C135.146 49.9742 134.889 49.6694 134.711 49.3127C134.492 48.8579 134.387 48.351 134.406 47.8406C134.39 47.243 134.53 46.6524 134.811 46.1346C135.086 45.6666 135.486 45.2965 135.96 45.0717C136.513 44.8091 137.114 44.6803 137.719 44.6944C138.128 44.6972 138.536 44.7381 138.939 44.8166C139.312 44.8775 139.673 45.0032 140.008 45.1887C140.129 45.2387 140.234 45.3241 140.311 45.4352C140.388 45.5462 140.434 45.6782 140.443 45.8158C140.433 46.0185 140.391 46.218 140.318 46.4057C140.239 46.6368 140.133 46.8565 140.003 47.0593C139.883 47.2453 139.763 47.341 139.658 47.341C139.559 47.3208 139.461 47.2887 139.368 47.2453C139.171 47.1545 138.967 47.0799 138.759 47.0221C138.54 46.9638 138.315 46.9353 138.089 46.9371C137.449 46.9371 137.13 47.1656 137.13 47.612C137.123 47.8063 137.185 47.9961 137.305 48.1435C137.43 48.2933 137.583 48.4145 137.754 48.4996C137.929 48.5952 138.179 48.7068 138.499 48.8397L139.183 49.1426C139.639 49.3756 140.035 49.7219 140.338 50.1523C140.649 50.6439 140.801 51.2295 140.773 51.8211C140.785 52.432 140.64 53.0348 140.353 53.5642C140.062 54.0744 139.634 54.4799 139.124 54.7281C138.52 55.0188 137.862 55.1605 137.2 55.1426C136.726 55.1345 136.255 55.0704 135.795 54.9513Z" fill="white"/>
<path d="M47.0525 11.447C47.0525 11.447 46.7227 11.9785 46.213 12.8341C45.7033 13.6897 45.0087 14.9174 44.2942 16.3151C43.5294 17.7963 42.8437 19.3222 42.2404 20.8855C41.6438 22.3802 41.2225 23.9473 40.9861 25.5516C40.8071 26.7588 40.8926 27.9937 41.236 29.1601C41.6813 30.5897 42.6282 31.7815 43.8794 32.4869C44.0898 32.6112 44.3106 32.7144 44.539 32.7951C44.539 32.7951 44.8538 32.5188 45.3286 32.0139C45.9656 31.3353 46.5599 30.6128 47.1075 29.8509C47.8517 28.8341 48.4932 27.7369 49.0214 26.5772C49.6167 25.2809 50.0083 23.8896 50.1807 22.4586C50.3303 21.0387 50.2594 19.6024 49.9708 18.207C49.7225 16.9983 49.3505 15.8221 48.8615 14.6995C48.5079 13.8721 48.0988 13.0728 47.6372 12.308C47.4567 12.0034 47.2616 11.7089 47.0525 11.4258" fill="#FFDC2E"/>
<path d="M23.561 44.0034H23.471C21.9719 44.2691 20.3878 44.6517 18.8637 45.0663C17.3396 45.4808 15.8655 45.9485 14.5662 46.3736C13.267 46.7988 12.1477 47.2027 11.3231 47.495C10.4986 47.7873 9.96394 47.9839 9.854 47.9998C10.1735 48.335 10.5234 48.6358 10.8984 48.898C11.7861 49.5514 12.7181 50.134 13.6868 50.6411C14.9502 51.3154 16.2812 51.8359 17.6544 52.1929C19.1535 52.5904 20.7091 52.6877 22.2417 52.4799H22.4566C23.201 52.371 23.935 52.1932 24.6503 51.9485C25.314 51.7268 25.9619 51.4551 26.5892 51.1353C27.1665 50.8389 27.7271 50.5071 28.2682 50.1415C28.7679 49.7908 29.2676 49.4294 29.6724 49.0787C30.0771 48.7279 30.4669 48.3772 30.7867 48.0583C31.1065 47.7394 31.3864 47.4418 31.6062 47.192C31.8261 46.9423 31.996 46.735 32.1059 46.5915C32.2159 46.448 32.2808 46.363 32.2858 46.363C32.1434 46.1619 31.9752 45.983 31.7861 45.8315C31.312 45.4267 30.7915 45.0874 30.237 44.8218C29.3753 44.4126 28.4635 44.1353 27.5286 43.9981C26.2142 43.8145 24.8821 43.827 23.571 44.0353" fill="#FFDC2E"/>
<path d="M64.5172 33.4013H64.4522H64.3923H64.3323H64.2723C62.8269 33.6318 61.4252 34.1054 60.1198 34.8044C59.0215 35.387 57.9888 36.1001 57.0416 36.9301C56.3533 37.5315 55.7086 38.187 55.1127 38.8912C54.673 39.4226 54.4431 39.7521 54.4331 39.7521C54.5744 39.9543 54.7427 40.1333 54.9328 40.2835C55.4269 40.7056 55.9672 41.0625 56.5419 41.3464C57.4262 41.7849 58.3653 42.0856 59.3302 42.2393C60.6774 42.4463 62.0456 42.4463 63.3929 42.2393C64.9758 41.9773 66.544 41.6224 68.0901 41.1764C69.6292 40.7353 71.0883 40.241 72.3976 39.7734C73.7068 39.3057 74.7912 38.8699 75.5957 38.551C76.4002 38.2322 76.8899 38.0196 76.9599 38.0196C76.6263 37.6723 76.2615 37.3608 75.8705 37.0896C74.9656 36.4139 74.0171 35.8065 73.0322 35.272C71.7609 34.5808 70.4197 34.0459 69.0345 33.6777C67.5537 33.2625 66.0115 33.1543 64.4922 33.3588" fill="#FFDC2E"/>
<path d="M16.4302 33.4067C16.4552 33.4652 16.6401 33.9382 16.9799 34.6503C17.4257 35.5692 17.9264 36.4568 18.479 37.3075C19.1676 38.3967 19.9669 39.4019 20.8626 40.3049C21.8003 41.2694 22.9028 42.0342 24.1107 42.5582C24.5036 42.7224 24.9079 42.8539 25.32 42.9515C25.716 43.0503 26.1186 43.116 26.5243 43.1481C26.918 43.1852 27.3136 43.1958 27.7086 43.18C28.0933 43.18 28.4781 43.1268 28.8479 43.0737C29.2177 43.0206 29.6174 42.9355 29.9822 42.8452C30.347 42.7548 30.6968 42.6432 31.0316 42.5316C31.3664 42.42 31.6862 42.2978 31.9811 42.1702C32.2759 42.0427 32.5507 41.9205 32.8006 41.7982C33.0504 41.676 33.2753 41.5538 33.4752 41.4475L33.9749 41.1499L34.2997 40.9479L34.4146 40.8735C34.4243 40.6019 34.4126 40.3299 34.3796 40.0604C34.307 39.4175 34.1524 38.7882 33.9199 38.1897C33.5975 37.3748 33.1194 36.64 32.5157 36.0321C31.6975 35.2408 30.7145 34.6671 29.6474 34.358C28.286 34.0101 26.9008 33.7773 25.5049 33.6618C24.0457 33.5237 22.5666 33.4652 21.2374 33.4439C19.9081 33.4227 18.7388 33.4439 17.8693 33.4439C17.3929 33.4736 16.915 33.463 16.4402 33.4121" fill="#FFDC2E"/>
<path d="M29.9924 20.8325C29.9924 20.8325 29.9025 21.3268 29.8026 22.1346C29.6701 23.1922 29.59 24.2566 29.5627 25.3232C29.5169 26.6525 29.5888 27.9835 29.7776 29.2984C29.9443 30.6078 30.3464 31.8708 30.9619 33.0185C31.4082 33.8051 32.0164 34.4738 32.7408 34.9742C33.3882 35.411 34.1016 35.7256 34.8496 35.9043C35.5056 36.0621 36.1758 36.1441 36.8484 36.1487C37.3499 36.1512 37.8508 36.1156 38.3475 36.0424L38.5874 35.9999L38.7723 35.968H38.8822H38.9222C38.9222 35.968 39.1121 35.6279 39.357 35.054C39.6743 34.3089 39.9285 33.5353 40.1165 32.7422C40.3638 31.7426 40.46 30.7075 40.4013 29.6757C40.3368 28.5381 39.9922 27.4384 39.4019 26.4871C38.7154 25.474 37.8497 24.6129 36.8534 23.9521C35.8622 23.2777 34.8131 22.7047 33.7203 22.2408C32.7208 21.7997 31.7564 21.4756 31.0668 21.2577C30.3772 21.0398 29.9475 20.9229 29.9525 20.9016" fill="#FFDC2E"/>
<path d="M70.0341 21.2631C69.3195 21.3694 68.535 21.5182 67.7355 21.7201C66.8898 21.9252 66.0557 22.1807 65.2369 22.4854C64.3573 22.8056 63.4991 23.1891 62.6685 23.6333C61.8091 24.0918 60.9867 24.6251 60.2099 25.2276C58.9339 26.1885 57.7742 27.313 56.7569 28.5757C55.9778 29.5489 55.2978 30.6071 54.7281 31.7325C54.3454 32.4847 54.0244 33.2706 53.7687 34.0815C53.6707 34.3823 53.5906 34.6894 53.5288 35.0009L53.7487 35.0328C53.8936 35.0328 54.1085 35.07 54.3883 35.0753C54.6681 35.0806 55.0029 35.0753 55.3877 35.0753C55.7725 35.0753 56.2272 35.0115 56.7169 34.9371C57.238 34.8608 57.755 34.7562 58.266 34.6236C58.861 34.4804 59.4481 34.303 60.025 34.0921C60.682 33.8462 61.3259 33.5624 61.9539 33.2418C62.6603 32.8812 63.3461 32.4766 64.0077 32.0301C65.4343 31.0573 66.7726 29.9453 68.0053 28.7086C69.1304 27.5813 70.1964 26.389 71.1984 25.1373C72.0979 24.0106 72.8225 23.0115 73.3172 22.2834C73.8119 21.5554 74.0868 21.1143 74.0868 21.1089C74.0868 21.1036 73.9868 21.0611 73.7919 21.0452C73.597 21.0292 73.2922 21.0452 72.9624 21.0452C72.6326 21.0452 72.1729 21.0717 71.6832 21.1089C71.1934 21.1461 70.6388 21.2099 70.0491 21.3003" fill="#FFDC2E"/>
<path d="M63.1929 10.4907C62.7351 10.7965 62.293 11.1282 61.8687 11.4845C61.0691 12.1116 59.9848 13.0151 58.7855 14.1099C57.4737 15.3011 56.2211 16.5641 55.0327 17.8937C53.7931 19.2692 52.6757 20.7636 51.6947 22.3579C50.8954 23.6489 50.2713 25.0533 49.8407 26.5297C49.5462 27.5636 49.3964 28.638 49.396 29.7184C49.4 30.4003 49.4856 31.0789 49.6509 31.7378C49.7069 31.9729 49.7821 32.2023 49.8757 32.4234C49.8757 32.4234 50.2255 32.2905 50.8102 32.0036C51.6147 31.6038 52.3942 31.1494 53.1438 30.6431C54.2113 29.9193 55.2149 29.094 56.142 28.1772C57.2806 27.0602 58.2874 25.8003 59.1403 24.4252C60.0273 22.954 60.7564 21.3818 61.314 19.7378C61.8191 18.2665 62.2249 16.7587 62.5283 15.2259C62.8031 13.8601 62.968 12.675 63.058 11.8353C63.1479 10.9956 63.1729 10.496 63.1779 10.4907" fill="#FFDC2E"/>
<path d="M42.1354 53.3621C42.1354 53.3621 41.8206 53.6331 41.3359 54.1274C40.6866 54.7929 40.079 55.503 39.517 56.2531C38.7608 57.2505 38.1059 58.33 37.5631 59.4737C36.9486 60.7495 36.5382 62.1253 36.3488 63.5445C36.1879 64.9635 36.2555 66.4013 36.5487 67.7961C36.8127 69.0423 37.1997 70.2554 37.703 71.4152C38.0805 72.2833 38.5129 73.1231 38.9973 73.929C39.1884 74.2537 39.3952 74.5677 39.6169 74.8696C39.6169 74.8696 39.9667 74.37 40.5014 73.5197C41.0361 72.6694 41.7507 71.4843 42.5002 70.1079C43.2933 68.6444 43.9977 67.1284 44.609 65.5693C45.2203 64.0677 45.6404 62.4859 45.8582 60.8661C46.0282 59.6183 45.9274 58.3458 45.5634 57.146C45.2916 56.2885 44.8464 55.5048 44.2592 54.8501C43.8402 54.384 43.3586 53.9864 42.83 53.6703C42.612 53.5379 42.3828 53.4275 42.1454 53.3408" fill="#FFDC2E"/>
<path d="M29.7676 51.0981C29.2979 51.1672 28.7682 51.2629 28.2335 51.401C27.6988 51.5392 27.0992 51.7093 26.4845 51.9325C25.8334 52.1609 25.1945 52.427 24.5706 52.7297C23.8685 53.0624 23.1845 53.4367 22.5218 53.851C21.0727 54.7686 19.6927 55.8045 18.3943 56.9493C17.125 58.06 15.9857 59.1973 15.0212 60.2177C14.0568 61.2381 13.2823 62.1522 12.7426 62.8058C12.2029 63.4595 11.9031 63.8687 11.8981 63.8687C11.8931 63.8687 12.043 63.9272 12.3128 63.9591C12.5827 63.991 12.9824 64.0122 13.4771 64.0175C13.9719 64.0228 14.5665 64.0175 15.2311 63.9697C15.8957 63.9219 16.6353 63.8528 17.4198 63.7359C18.0994 63.6349 18.809 63.502 19.5386 63.3266C20.2913 63.1507 21.0351 62.9343 21.7673 62.6783C22.5307 62.411 23.2782 62.0951 24.006 61.7323C24.7485 61.3619 25.4635 60.932 26.1447 60.4462C27.4588 59.5499 28.6595 58.4783 29.7176 57.2576C30.5281 56.3294 31.2387 55.308 31.8364 54.2124C32.231 53.481 32.5654 52.7146 32.8358 51.9219C32.9385 51.6244 33.0252 51.321 33.0956 51.0131C33.0187 50.9912 32.9401 50.977 32.8608 50.9706C32.7059 50.9706 32.481 50.9387 32.1962 50.9281C31.9113 50.9174 31.5565 50.9281 31.1468 50.9281C30.737 50.9281 30.2773 50.9918 29.7626 51.0716" fill="#FFDC2E"/>
<path d="M36.7183 53.5908C36.7183 53.5908 36.3635 53.7183 35.7738 53.9947C34.9524 54.3661 34.1545 54.7939 33.3852 55.2754C32.293 55.9651 31.2582 56.7527 30.2921 57.6297C29.1255 58.691 28.0791 59.8931 27.1739 61.2117C26.2414 62.6069 25.4602 64.1098 24.8453 65.6917C24.2923 67.0966 23.8364 68.5424 23.4811 70.0177C23.2181 71.0951 23.0063 72.186 22.8464 73.2861C22.7265 74.0992 22.6865 74.5828 22.6865 74.5934C23.1822 74.3239 23.6627 74.0241 24.1257 73.6953C24.9752 73.1266 26.1245 72.3082 27.3788 71.3038C28.7529 70.2154 30.0661 69.0424 31.3115 67.7909C32.6131 66.5068 33.7854 65.0819 34.8094 63.5394C35.6374 62.2859 36.2857 60.9086 36.7333 59.4526C37.0527 58.4397 37.2213 57.38 37.233 56.3118C37.2353 55.6315 37.1513 54.954 36.9831 54.2976C36.925 54.0525 36.8446 53.814 36.7433 53.5854" fill="#FFDC2E"/>
<path d="M57.841 43.2545C57.4546 43.3112 57.0848 43.3856 56.7317 43.4777C56.3719 43.568 56.0321 43.669 55.7073 43.7806C55.3824 43.8922 55.0776 44.0091 54.7878 44.1314C54.498 44.2536 54.2381 44.3705 53.9983 44.4874C53.7584 44.6043 53.5335 44.7213 53.3436 44.8276C53.1538 44.9338 52.9839 45.0295 52.8439 45.1145L52.5291 45.3059L52.4092 45.3803C52.4038 45.6611 52.4205 45.942 52.4592 46.2199C52.5416 46.8861 52.7097 47.537 52.9589 48.1544C53.309 49.0156 53.8189 49.7928 54.458 50.4396C55.3132 51.2927 56.3379 51.9302 57.4562 52.305C58.8697 52.7324 60.3112 53.0468 61.7687 53.2456C63.2678 53.4688 64.8169 53.6123 66.1961 53.708C67.5753 53.8036 68.7946 53.8568 69.6941 53.894C70.1958 53.8856 70.6974 53.9229 71.1932 54.0056C71.1932 53.9365 70.9483 53.4104 70.5635 52.6238C70.0489 51.6097 69.4817 50.6268 68.8645 49.6796C68.108 48.4836 67.239 47.3725 66.2711 46.3634C65.2922 45.3149 64.1382 44.4697 62.8681 43.871C62.4484 43.6846 62.0157 43.5336 61.5738 43.4192C61.1531 43.3104 60.7256 43.234 60.2946 43.1907C59.8795 43.1477 59.4622 43.1335 59.0453 43.1482C58.6439 43.159 58.2435 43.1944 57.846 43.2545" fill="#FFDC2E"/>
<path d="M48.3218 50.2161H48.1619H48.042H47.967H47.942C47.942 50.2161 47.7521 50.5562 47.5073 51.1355C47.189 51.8832 46.9364 52.6607 46.7527 53.4579C46.511 54.4801 46.4233 55.5366 46.4929 56.5881C46.5771 57.7725 46.9415 58.9151 47.5522 59.9096C48.2921 60.9937 49.2055 61.9309 50.2507 62.6784C51.3078 63.4505 52.4245 64.1261 53.5887 64.6979C54.6781 65.2294 55.6875 65.6651 56.422 65.9574C57.1566 66.2497 57.6163 66.4092 57.6113 66.4357C57.6113 66.4357 57.6913 65.9043 57.7712 65.0646C57.8512 64.2249 57.9162 63.0345 57.9062 61.7112C57.9047 60.2958 57.7826 58.8835 57.5414 57.4915C57.3197 56.0985 56.8644 54.7593 56.1972 53.5376C55.6952 52.6549 55.0118 51.9046 54.1983 51.3427C53.4952 50.8614 52.7193 50.5127 51.9047 50.3117C51.2096 50.1419 50.4991 50.0546 49.7859 50.0513C49.2947 50.0461 48.8038 50.0781 48.3168 50.147" fill="#FFDC2E"/>
</svg>
